<svg width="120" height="70" viewBox="0 0 120 70" fill="none" xmlns="http://www.w3.org/2000/svg">
<g clip-path="url(#clip0)">
<path d="M17.4556 19C14.4456 19 12.0103 21.3662 12.0103 24.2875V46.7135C12.0103 49.6324 14.4456 52 17.4556 52H40.5593C43.567 52 46.0033 49.6326 46.0033 46.7135V46.484C45.902 46.4431 37.1689 42.9068 32.73 40.8347C29.7353 44.4123 25.8727 46.5829 21.8622 46.5829C15.0805 46.5829 12.7775 40.821 15.9886 37.0282C16.6888 36.2013 17.8798 35.4114 19.7284 34.9692C22.6201 34.2795 27.2222 35.3998 31.5356 36.7817C32.3115 35.3941 32.9642 33.866 33.4504 32.239H20.158V30.9321H27.0121V28.5886H18.7105V27.2809H27.0121V23.9379C27.0121 23.9379 27.0121 23.3749 27.5998 23.3749H30.9505V27.2808H39.1573V28.5888H30.9505V30.9321H37.6493C37.0083 33.4815 36.0351 35.8282 34.8133 37.8882C36.8464 38.6021 38.6713 39.2793 40.0314 39.7215C44.5681 41.1951 45.8396 41.3752 46.0036 41.394V24.2876C46.0036 21.3663 43.5672 19.0001 40.5596 19.0001H17.456L17.4556 19ZM21.1833 36.8796C20.8923 36.8829 20.5998 36.8983 20.3053 36.9264C19.456 37.0093 17.8617 37.373 16.99 38.1216C14.3773 40.3336 15.941 44.3774 21.229 44.3774C24.303 44.3774 27.3743 42.4696 29.7871 39.4148C26.6764 37.9413 23.9973 36.8479 21.1833 36.8796Z" fill="#00A1E9"/>
<path d="M105.125 41.9406L103.608 45.1486L102.068 41.9406H100.564L102.907 46.376V49.47H104.287V46.376L104.295 46.3588L106.629 41.9406H105.125ZM94.0154 43.8814L95.0858 47.0043H92.9072L94.0154 43.8814ZM95.4146 47.9531L95.9303 49.4696H97.3767L94.5288 41.94H93.4229L90.5844 49.4696H92.0321L92.5701 47.9531H95.4146ZM84.6195 45.54H83.0831V42.9641H84.6195C85.3918 42.9641 85.8531 43.6216 85.8531 44.2572C85.8531 44.879 85.4213 45.5399 84.6195 45.5399V45.54ZM84.6975 41.9404H81.6922V49.4699H83.083V46.5751H84.6974C86.1972 46.5751 87.245 45.6218 87.245 44.2572C87.245 42.8926 86.1972 41.9405 84.6974 41.9405L84.6975 41.9404ZM74.6609 49.47H76.053V41.9405H74.6611L74.6609 49.47ZM64.8763 41.9406V49.4701H69.5586V48.4442H66.2673V41.9406H64.8763ZM56.9524 43.8814L58.0216 47.0043H55.8443L56.9524 43.8814ZM58.3516 47.9531L58.8673 49.4696H60.3126L57.4646 41.94H56.36L53.5214 49.4696H54.9678L55.506 47.9531H58.3516ZM68.1438 27.2212H62.177V25.1393H69.0959V23.8428H62.177V21.2047H59.0925C58.7542 21.2047 58.481 21.481 58.481 21.8207V23.8428H51.6105V25.1393H58.481V27.2213H52.6823V28.5167H64.2324C64.2324 28.5167 63.5925 30.9499 60.4241 33.5648C57.5855 31.4725 56.637 29.8064 56.637 29.8064H53.5382C54.7919 31.9217 56.5731 33.6155 58.4914 34.9592C56.7292 36.0739 54.4441 37.1483 51.4897 38.0085V39.5606C51.4897 39.5606 56.0479 38.7235 60.4536 36.196C64.8664 38.704 69.298 39.5606 69.298 39.5606V38.0913C66.4618 37.0861 64.2146 35.9806 62.4501 34.9145C65.0059 33.0709 67.246 30.5687 68.1438 27.2213V27.2212ZM87.5261 21.4645H84.4201V24.6242H76.7644V25.8966H84.4201V37.2564C84.393 37.5167 84.1825 37.7193 83.9187 37.7331H82.3398V39.0493H86.3658C87.0033 39.024 87.5119 38.5092 87.5261 37.8713V25.8965H88.7868V24.6241H87.5262L87.5261 21.4645ZM80.976 28.0401C80.8625 27.8145 80.6307 27.6589 80.361 27.6566H77.7733L79.7899 33.8378H82.8508L80.976 28.0401ZM73.3322 21.3149L69.7697 29.5192H72.5029V39.2815H75.4918V26.3321H74.4085L76.6592 21.315L73.3322 21.3149ZM107.989 38.8337L106.898 35.2434C106.824 35.0142 106.611 34.8485 106.358 34.8485H103.464L104.304 37.6062H100.901V32.2634H107.582V30.9922H100.901V28.4772H107.582V27.2059H90.9099V28.4772H97.5899V30.9921H90.9099V32.2633H97.5899V37.6061H90.9099V38.8775H107.99L107.976 38.8337H107.989ZM94.3837 24.1728H104.114V26.0485H107.59V23.826C107.589 23.8214 107.589 23.8191 107.589 23.8134C107.589 23.3136 107.187 22.9095 106.689 22.9015H101.064V21.1523H97.4268V22.9014H90.9088V26.0485H94.3836L94.3837 24.1728Z" fill="#3F3B3A"/>
</g>
<defs>
<clipPath id="clip0">
<rect width="96" height="33" fill="white" transform="translate(12 19)"/>
</clipPath>
</defs>
</svg>
