<svg width="120" height="70" viewBox="0 0 120 70" fill="none" xmlns="http://www.w3.org/2000/svg">
<g clip-path="url(#clip0)">
<path d="M31.5901 20.8034C30.5266 22.0618 28.8251 23.0544 27.1235 22.9126C26.9108 21.211 27.7439 19.4031 28.7187 18.2865C29.7822 16.9926 31.6433 16.0709 33.1499 16C33.3271 17.7725 32.6358 19.5095 31.5901 20.8034ZM33.1321 23.2494C30.6684 23.1076 28.5592 24.6496 27.3894 24.6496C26.2018 24.6496 24.4116 23.3203 22.4619 23.3557C19.9273 23.3912 17.5699 24.8269 16.276 27.1133C13.6173 31.6863 15.5848 38.4571 18.1548 42.1792C19.4133 44.0226 20.9199 46.0432 22.905 45.9723C24.7838 45.9014 25.5283 44.7493 27.797 44.7493C30.0835 44.7493 30.7393 45.9723 32.7245 45.9369C34.7805 45.9014 36.0744 44.0935 37.3329 42.2501C38.7686 40.1586 39.3535 38.1203 39.3889 38.014C39.3535 37.9785 35.4186 36.4719 35.3832 31.9344C35.3477 28.1414 38.485 26.3334 38.6268 26.2271C36.8543 23.6039 34.0893 23.3203 33.1321 23.2494ZM47.365 18.1092V45.7419H51.6544V36.2947H57.5921C63.0158 36.2947 66.8266 32.5725 66.8266 27.1842C66.8266 21.7959 63.0867 18.1092 57.7339 18.1092H47.365ZM51.6544 21.725H56.5995C60.3217 21.725 62.4486 23.7102 62.4486 27.202C62.4486 30.6937 60.3217 32.6966 56.5818 32.6966H51.6544V21.725ZM74.6609 45.9546C77.355 45.9546 79.8542 44.5898 80.9886 42.4274H81.0772V45.7419H85.0475V31.9876C85.0475 27.9996 81.8571 25.4295 76.9474 25.4295C72.3921 25.4295 69.0245 28.035 68.9004 31.6154H72.7644C73.0834 29.9138 74.6609 28.7972 76.8233 28.7972C79.4465 28.7972 80.9177 30.0202 80.9177 32.2712V33.7955L75.5649 34.1145C70.5842 34.4159 67.8901 36.4542 67.8901 39.9991C67.8901 43.5795 70.6729 45.9546 74.6609 45.9546ZM75.813 42.6755C73.5265 42.6755 72.0731 41.5766 72.0731 39.8928C72.0731 38.1558 73.4734 37.1455 76.1498 36.9859L80.9177 36.6846V38.2444C80.9177 40.8322 78.7198 42.6755 75.813 42.6755ZM90.3472 53.2571C94.5302 53.2571 96.4976 51.6619 98.2169 46.8231L105.75 25.6954H101.39L96.3381 42.0197H96.2495L91.198 25.6954H86.7136L93.9807 45.8128L93.5908 47.0358C92.935 49.1096 91.8715 49.9072 89.975 49.9072C89.6382 49.9072 88.9824 49.8717 88.7165 49.8363V53.1508C88.9647 53.2217 90.0281 53.2571 90.3472 53.2571Z" fill="black"/>
</g>
<defs>
<clipPath id="clip0">
<rect width="90.75" height="37.8125" fill="white" transform="translate(15 16)"/>
</clipPath>
</defs>
</svg>
