<svg width="120" height="70" viewBox="0 0 120 70" fill="none" xmlns="http://www.w3.org/2000/svg">
<path d="M89.3008 19.5957H85.7652H69.4188H65.8832L63.5011 22.2276L55.764 30.7675L53.382 33.3994H49.8463H33.8095H30.2738L32.6184 30.7307L33.7251 29.4699L36.0696 26.8012H32.534H27.9762H25.4253C23.484 26.8012 21.8896 28.4025 21.8896 30.3626V37.2368V37.8718C21.8896 39.8319 23.484 41.4331 25.4253 41.4331H26.4194H63.5293H66.1927C68.134 41.4331 70.7975 40.246 72.101 38.792L78.2719 31.9086L89.3008 19.5957Z" fill="#005697"/>
<path d="M93.9995 11.5703C95.9408 11.5703 97.5351 13.1715 97.5351 15.1317V22.6409C97.5351 24.601 95.9408 26.2022 93.9995 26.2022H92.0769H86.9189H83.3833L85.7466 23.5611L86.9189 22.2544L89.2822 19.6133H65.874L53.3821 33.4077H30.1333L46.8079 14.9016L47.4363 14.2022C48.7398 12.7482 51.4033 11.5703 53.354 11.5703H54.1792H93.9995Z" fill="#FBD500"/>
<path d="M29.8612 54.2046C29.8612 53.7169 29.7393 53.2936 29.5048 52.9347C29.2704 52.5758 28.9609 52.2997 28.5764 52.1156C28.9609 51.9316 29.261 51.6463 29.4673 51.2782C29.683 50.9101 29.7862 50.496 29.7862 50.0359V49.7782C29.7862 49.2077 29.6736 48.7383 29.4579 48.361C29.2329 47.9837 28.9234 47.68 28.5295 47.4592C28.1262 47.2291 27.6479 47.0727 27.0946 46.9715C26.5413 46.8702 25.9129 46.8242 25.2377 46.8242C25.0032 46.8242 24.7688 46.8334 24.5156 46.8426C24.2624 46.8518 24.0185 46.861 23.7841 46.8794C23.5496 46.8978 23.3339 46.907 23.137 46.9254C22.94 46.9439 22.7806 46.9623 22.6493 46.9807C22.3679 47.0267 22.171 47.1095 22.0585 47.2383C21.9459 47.358 21.8896 47.5788 21.8896 47.9009V56.5052C21.8896 56.8273 21.9459 57.0482 22.0678 57.1678C22.1898 57.2874 22.3961 57.3795 22.6774 57.4255C22.8181 57.4531 22.9963 57.4807 23.1932 57.4991C23.3996 57.5175 23.6153 57.5359 23.8497 57.5451C24.0842 57.5635 24.328 57.5727 24.5812 57.5819C24.8344 57.5911 25.0783 57.6003 25.3127 57.6003C25.9411 57.6003 26.5225 57.5543 27.0758 57.4623C27.6292 57.3703 28.1075 57.2046 28.5201 56.9561C28.9327 56.7169 29.2516 56.3948 29.4954 55.9807C29.7393 55.5666 29.8518 55.0512 29.8518 54.4347V54.2046H29.8612ZM27.4135 50.1371C27.4135 50.2843 27.3853 50.4316 27.3384 50.5696C27.2915 50.7077 27.2071 50.8273 27.104 50.9193C26.9914 51.0205 26.8414 51.0942 26.6538 51.1586C26.4663 51.223 26.2318 51.2506 25.9411 51.2506H24.328V48.8028C24.3749 48.8028 24.4499 48.8028 24.5531 48.7935C24.6562 48.7843 24.7594 48.7843 24.8719 48.7843H25.1908H25.4253C26.1661 48.7843 26.682 48.8764 26.9727 49.0604C27.2634 49.2445 27.4135 49.5297 27.4135 49.9163V50.1371ZM27.4697 54.3518C27.4697 54.7475 27.3291 55.0512 27.0477 55.2721C26.7664 55.4929 26.2506 55.5942 25.5097 55.5942H25.2752C25.1627 55.5942 25.0501 55.5942 24.9282 55.585C24.8063 55.585 24.6938 55.5758 24.5812 55.5758H24.328V52.9439H25.9411C26.5131 52.9439 26.9164 53.0727 27.1415 53.3212C27.3666 53.5696 27.4697 53.8641 27.4697 54.2046V54.3518ZM37.7577 52.1248C37.7577 51.6095 37.6827 51.1678 37.5233 50.7997C37.3638 50.4408 37.1388 50.1371 36.8574 49.907C36.5667 49.677 36.2197 49.5021 35.7977 49.4009C35.3756 49.2905 34.9067 49.2353 34.3909 49.2353C33.9126 49.2353 33.4437 49.2721 32.9842 49.3365C32.5246 49.4009 32.1683 49.4653 31.8963 49.5297C31.7181 49.5758 31.6243 49.677 31.6243 49.8426V50.9929C31.6243 51.085 31.6525 51.1494 31.6993 51.1954C31.7462 51.2322 31.8119 51.2506 31.8869 51.2506H31.9619C32.0745 51.2414 32.2245 51.2322 32.3933 51.2138C32.5621 51.1954 32.7591 51.1862 32.9748 51.177C33.1905 51.1678 33.4156 51.1586 33.65 51.1586C33.8845 51.1494 34.1189 51.1494 34.3534 51.1494C34.691 51.1494 34.9536 51.2138 35.1506 51.3334C35.3381 51.4531 35.4413 51.7199 35.4413 52.1248V52.631H34.6629C33.4249 52.631 32.5246 52.8242 31.9619 53.2015C31.3992 53.5788 31.1179 54.1862 31.1179 55.0236V55.1525C31.1179 55.6126 31.1835 55.9991 31.3242 56.312C31.4649 56.6249 31.6525 56.8733 31.8775 57.0666C32.112 57.2506 32.3746 57.3887 32.6653 57.4715C32.956 57.5543 33.2655 57.5911 33.5844 57.5911C34.0158 57.5911 34.3909 57.5359 34.7004 57.4255C35.0099 57.315 35.31 57.1586 35.5913 56.9561V57.1862C35.5913 57.2598 35.6195 57.3242 35.6757 57.3887C35.732 57.4439 35.7977 57.4715 35.8821 57.4715H37.4764C37.5514 57.4715 37.617 57.4439 37.6827 57.3887C37.739 57.3334 37.7671 57.269 37.7671 57.1862V52.1248H37.7577ZM35.4694 55.5482C35.3006 55.631 35.113 55.7046 34.9161 55.769C34.7192 55.8334 34.5128 55.861 34.2878 55.861C33.9783 55.861 33.7532 55.815 33.6031 55.7322C33.4531 55.6494 33.3781 55.4561 33.3781 55.1525V55.0236C33.3781 54.858 33.3968 54.7015 33.4343 54.5727C33.4718 54.4439 33.5375 54.3334 33.6406 54.2506C33.7344 54.1678 33.8657 54.1034 34.0252 54.0574C34.1846 54.0113 34.3909 53.9929 34.6441 53.9929H35.4694V55.5482ZM46.5827 57.1586V52.4469C46.5827 52.0052 46.5452 51.5911 46.4702 51.1954C46.3951 50.8089 46.2638 50.4684 46.0856 50.1739C45.8981 49.8886 45.6355 49.6586 45.3072 49.4837C44.979 49.3181 44.5476 49.2261 44.0318 49.2261C43.5723 49.2261 43.1596 49.2813 42.8032 49.3917C42.4469 49.5021 42.0717 49.6954 41.6778 49.9715V49.631C41.6778 49.5574 41.6497 49.4929 41.5934 49.4285C41.5372 49.3733 41.4715 49.3457 41.3871 49.3457H39.7741C39.699 49.3457 39.6334 49.3733 39.5677 49.4285C39.5115 49.4837 39.4833 49.5482 39.4833 49.631V57.1586C39.4833 57.2322 39.5115 57.3058 39.5771 57.3611C39.6428 57.4255 39.7084 57.4531 39.7834 57.4531H41.5278C41.6028 57.4531 41.6685 57.4255 41.7341 57.3611C41.7904 57.2966 41.8185 57.2322 41.8185 57.1586V51.6003C42.0717 51.4715 42.3062 51.361 42.5219 51.2782C42.747 51.1954 42.9627 51.1494 43.169 51.1494C43.3941 51.1494 43.5723 51.1678 43.7129 51.2138C43.8536 51.2598 43.9568 51.3334 44.0412 51.4347C44.1162 51.5359 44.1725 51.6739 44.2006 51.8396C44.2287 52.0052 44.2475 52.2169 44.2475 52.4653V57.1678C44.2475 57.2414 44.2756 57.315 44.3319 57.3703C44.3882 57.4347 44.4538 57.4623 44.5382 57.4623H46.2826C46.3576 57.4623 46.4326 57.4347 46.4889 57.3703C46.5546 57.2966 46.5827 57.2322 46.5827 57.1586ZM53.6727 57.0482V55.7874C53.6727 55.7138 53.6445 55.6494 53.5977 55.6126C53.5414 55.5666 53.4757 55.5482 53.4007 55.5482H53.3726C53.1006 55.5758 52.8474 55.6034 52.6036 55.6218C52.3597 55.6402 52.0315 55.6494 51.6188 55.6494C51.4594 55.6494 51.3 55.6218 51.1593 55.5758C51.0186 55.5206 50.8873 55.4377 50.7842 55.3089C50.681 55.1801 50.5966 55.0144 50.531 54.8028C50.4653 54.5911 50.4372 54.3242 50.4372 54.0206V52.8334C50.4372 52.5205 50.4653 52.2629 50.531 52.0512C50.5966 51.8396 50.681 51.6739 50.7842 51.5451C50.8873 51.4163 51.0186 51.3242 51.1593 51.2782C51.3 51.223 51.4594 51.2046 51.6188 51.2046C52.0315 51.2046 52.3597 51.2138 52.6036 51.2322C52.8474 51.2506 53.11 51.2782 53.3726 51.3058H53.4007C53.4757 51.3058 53.5414 51.2874 53.5977 51.2414C53.6539 51.1954 53.6727 51.1402 53.6727 51.0666V49.8058C53.6727 49.7046 53.6445 49.631 53.5977 49.585C53.5508 49.5389 53.4757 49.5113 53.3632 49.4745C53.1569 49.4285 52.9037 49.3825 52.5754 49.3365C52.2566 49.2905 51.872 49.2629 51.4406 49.2629C50.4184 49.2629 49.6119 49.5666 48.9929 50.1831C48.3833 50.7997 48.0738 51.6831 48.0738 52.8426V54.0298C48.0738 55.1893 48.3833 56.0727 48.9929 56.6893C49.6025 57.3058 50.4184 57.6095 51.4406 57.6095C51.872 57.6095 52.2472 57.5819 52.5754 57.5359C52.8943 57.4899 53.1569 57.4439 53.3632 57.3979C53.4664 57.3703 53.5414 57.3334 53.5977 57.2874C53.6539 57.223 53.6727 57.1494 53.6727 57.0482ZM61.6724 52.9163C61.6724 52.3457 61.5973 51.8396 61.4379 51.3886C61.2785 50.9377 61.044 50.5512 60.7439 50.2383C60.4438 49.9255 60.0687 49.677 59.6185 49.5021C59.1684 49.3273 58.6526 49.2445 58.0617 49.2445C57.4709 49.2445 56.9551 49.3365 56.5049 49.5021C56.0548 49.677 55.6796 49.9255 55.3702 50.2383C55.0607 50.5512 54.8262 50.9377 54.6668 51.3886C54.5074 51.8396 54.4323 52.3457 54.4323 52.9163V53.9101C54.4323 54.4715 54.5074 54.9868 54.6668 55.4377C54.8262 55.8887 55.0607 56.2752 55.3702 56.588C55.6796 56.9009 56.0548 57.1494 56.5049 57.3242C56.9551 57.4991 57.4709 57.5819 58.0617 57.5819C58.6526 57.5819 59.1684 57.4899 59.6185 57.3242C60.0687 57.1494 60.4438 56.9009 60.7439 56.588C61.044 56.2752 61.2785 55.8887 61.4379 55.4377C61.5973 54.9868 61.6724 54.4715 61.6724 53.9101V52.9163ZM59.3372 53.9009C59.3372 55.0604 58.9151 55.6402 58.0617 55.6402C57.6397 55.6402 57.3208 55.4929 57.1051 55.1985C56.8894 54.904 56.7769 54.4715 56.7769 53.9009V52.9071C56.7769 52.3365 56.8894 51.904 57.1051 51.6095C57.3208 51.3242 57.6491 51.177 58.0617 51.177C58.9151 51.177 59.3372 51.7567 59.3372 52.9071V53.9009ZM70.2535 57.1586V52.4469C70.2535 52.0052 70.216 51.5911 70.141 51.1954C70.0659 50.8089 69.9346 50.4684 69.7471 50.1739C69.5595 49.8886 69.2969 49.6586 68.9687 49.4837C68.6404 49.3181 68.209 49.2261 67.6932 49.2261C67.2337 49.2261 66.821 49.2813 66.4647 49.3917C66.1083 49.5021 65.7332 49.6954 65.3393 49.9715V49.631C65.3393 49.5574 65.3111 49.4929 65.2549 49.4285C65.1986 49.3733 65.133 49.3457 65.0579 49.3457H63.4449C63.3698 49.3457 63.3042 49.3733 63.2385 49.4285C63.1823 49.4837 63.1541 49.5482 63.1541 49.631V57.1586C63.1541 57.2322 63.1823 57.3058 63.2479 57.3611C63.3136 57.4255 63.3792 57.4531 63.4542 57.4531H65.1986C65.2736 57.4531 65.3393 57.4255 65.4049 57.3611C65.4612 57.2966 65.4893 57.2322 65.4893 57.1586V51.6003C65.7425 51.4715 65.977 51.361 66.1927 51.2782C66.4178 51.1954 66.6335 51.1494 66.8398 51.1494C67.0649 51.1494 67.2431 51.1678 67.3837 51.2138C67.5244 51.2598 67.6276 51.3334 67.712 51.4347C67.787 51.5359 67.8433 51.6739 67.8714 51.8396C67.8996 52.0052 67.9183 52.2169 67.9183 52.4653V57.1678C67.9183 57.2414 67.9464 57.315 68.0027 57.3703C68.059 57.4347 68.1246 57.4623 68.209 57.4623H69.9534C70.0284 57.4623 70.1035 57.4347 70.1597 57.3703C70.216 57.2966 70.2535 57.2322 70.2535 57.1586ZM76.537 57.1862V56.0911C76.537 55.9347 76.4338 55.8518 76.2369 55.8518H75.5335C75.3084 55.8518 75.1771 55.815 75.1302 55.7322C75.0833 55.6494 75.0552 55.4745 75.0552 55.1893V51.0758H76.2369C76.3119 51.0758 76.3775 51.0482 76.4432 50.9929C76.4995 50.9377 76.5276 50.8733 76.5276 50.7905V49.631C76.5276 49.5574 76.4995 49.4837 76.4432 49.4285C76.3869 49.3733 76.3213 49.3457 76.2369 49.3457H75.0552V47.8457C75.0552 47.7721 75.0271 47.7077 74.9802 47.6708C74.9333 47.6248 74.8676 47.6064 74.7926 47.6064H74.7457L73.0013 47.9009C72.9263 47.9193 72.8607 47.9561 72.8044 48.0021C72.7481 48.0481 72.72 48.1126 72.72 48.1862V49.3457H71.5665C71.4914 49.3457 71.4164 49.3733 71.3601 49.4377C71.2945 49.5021 71.2664 49.5666 71.2664 49.6402V50.5696C71.2664 50.6432 71.2945 50.7077 71.3601 50.7629C71.4258 50.8181 71.4914 50.8457 71.5665 50.8733L72.72 51.0574V55.1617C72.72 55.6586 72.7763 56.0727 72.8794 56.3856C72.9826 56.6985 73.142 56.9469 73.339 57.131C73.5359 57.3058 73.7891 57.4347 74.0892 57.4899C74.3893 57.5543 74.7363 57.5819 75.1302 57.5819C75.3459 57.5819 75.5335 57.5727 75.6929 57.5543C75.8523 57.5359 76.0493 57.5083 76.265 57.4715C76.4432 57.4439 76.537 57.3518 76.537 57.1862ZM84.2365 52.1248C84.2365 51.6095 84.1615 51.1678 84.0021 50.7997C83.8427 50.4408 83.6176 50.1371 83.3362 49.907C83.0455 49.677 82.6985 49.5021 82.2765 49.4009C81.8545 49.2905 81.3855 49.2353 80.8697 49.2353C80.3914 49.2353 79.9225 49.2721 79.463 49.3365C79.0035 49.4009 78.6471 49.4653 78.3751 49.5297C78.1875 49.5758 78.1031 49.677 78.1031 49.8426V50.9929C78.1031 51.085 78.1313 51.1494 78.1782 51.1954C78.2251 51.2322 78.2907 51.2506 78.3657 51.2506H78.4408C78.5533 51.2414 78.7034 51.2322 78.8722 51.2138C79.041 51.1954 79.2379 51.1862 79.4536 51.177C79.6693 51.1678 79.8944 51.1586 80.1288 51.1586C80.3633 51.1494 80.5978 51.1494 80.8322 51.1494C81.1698 51.1494 81.4324 51.2138 81.6294 51.3334C81.8169 51.4531 81.9201 51.7199 81.9201 52.1248V52.631H81.1417C79.9038 52.631 79.0035 52.8242 78.4408 53.2015C77.8781 53.5788 77.5967 54.1862 77.5967 55.0236V55.1525C77.5967 55.6126 77.6624 55.9991 77.803 56.312C77.9437 56.6249 78.1313 56.8733 78.3564 57.0666C78.5908 57.2506 78.8534 57.3887 79.1441 57.4715C79.4349 57.5543 79.7443 57.5911 80.0632 57.5911C80.4946 57.5911 80.8697 57.5359 81.1792 57.4255C81.4887 57.315 81.7888 57.1586 82.0702 56.9561V57.1862C82.0702 57.2598 82.0983 57.3242 82.1546 57.3887C82.2108 57.4439 82.2765 57.4715 82.3609 57.4715H83.9739C84.049 57.4715 84.1146 57.4439 84.1803 57.3887C84.2365 57.3334 84.2647 57.269 84.2647 57.1862V52.1248H84.2365ZM81.9389 55.5482C81.7701 55.631 81.5825 55.7046 81.3855 55.769C81.1886 55.8334 80.9823 55.861 80.7572 55.861C80.4477 55.861 80.2226 55.815 80.0726 55.7322C79.9225 55.6494 79.8475 55.4561 79.8475 55.1525V55.0236C79.8475 54.858 79.8663 54.7015 79.9038 54.5727C79.9413 54.4439 80.0069 54.3334 80.1101 54.2506C80.2039 54.1678 80.3352 54.1034 80.4946 54.0574C80.654 54.0113 80.8604 53.9929 81.1136 53.9929H81.9389V55.5482ZM91.3265 57.0482V55.7874C91.3265 55.7138 91.2984 55.6494 91.2515 55.6126C91.1952 55.5666 91.1296 55.5482 91.0546 55.5482H91.0264C90.7545 55.5758 90.5012 55.6034 90.2574 55.6218C90.0136 55.6402 89.6853 55.6494 89.2727 55.6494C89.1133 55.6494 88.9538 55.6218 88.8131 55.5758C88.6725 55.5206 88.5412 55.4377 88.438 55.3089C88.3349 55.1801 88.2505 55.0144 88.1848 54.8028C88.1192 54.5911 88.091 54.3242 88.091 54.0206V52.8334C88.091 52.5205 88.1192 52.2629 88.1848 52.0512C88.2505 51.8396 88.3349 51.6739 88.438 51.5451C88.5412 51.4163 88.6725 51.3242 88.8131 51.2782C88.9538 51.223 89.1133 51.2046 89.2727 51.2046C89.6853 51.2046 90.0136 51.2138 90.2574 51.2322C90.5012 51.2506 90.7638 51.2782 91.0264 51.3058H91.0546C91.1296 51.3058 91.1952 51.2874 91.2515 51.2414C91.3078 51.1954 91.3265 51.1402 91.3265 51.0666V49.8058C91.3265 49.7046 91.2984 49.631 91.2515 49.585C91.2046 49.5389 91.1296 49.5113 91.0171 49.4745C90.8107 49.4285 90.5575 49.3825 90.2293 49.3365C89.9104 49.2905 89.5259 49.2629 89.0945 49.2629C88.0723 49.2629 87.2657 49.5666 86.6468 50.1831C86.0372 50.7997 85.7277 51.6831 85.7277 52.8426V54.0298C85.7277 55.1893 86.0372 56.0727 86.6468 56.6893C87.2564 57.3058 88.0723 57.6095 89.0945 57.6095C89.5259 57.6095 89.901 57.5819 90.2293 57.5359C90.5481 57.4899 90.8107 57.4439 91.0171 57.3979C91.1202 57.3703 91.1952 57.3334 91.2515 57.2874C91.2984 57.223 91.3265 57.1494 91.3265 57.0482ZM97.535 57.1862V56.0911C97.535 55.9347 97.4318 55.8518 97.2349 55.8518H96.5315C96.3064 55.8518 96.1751 55.815 96.1282 55.7322C96.0813 55.6494 96.0532 55.4745 96.0532 55.1893V51.0758H97.2349C97.3099 51.0758 97.3755 51.0482 97.4412 50.9929C97.4975 50.9377 97.5256 50.8733 97.5256 50.7905V49.631C97.5256 49.5574 97.4975 49.4837 97.4412 49.4285C97.3849 49.3733 97.3193 49.3457 97.2349 49.3457H96.0532V47.8457C96.0532 47.7721 96.0251 47.7077 95.9782 47.6708C95.9313 47.6248 95.8656 47.6064 95.7906 47.6064H95.7437L93.9993 47.9009C93.9243 47.9193 93.8587 47.9561 93.8024 48.0021C93.7461 48.0481 93.718 48.1126 93.718 48.1862V49.3457H92.5645C92.4894 49.3457 92.4144 49.3733 92.3581 49.4377C92.2925 49.5021 92.2644 49.5666 92.2644 49.6402V50.5696C92.2644 50.6432 92.2925 50.7077 92.3581 50.7629C92.4238 50.8181 92.4894 50.8457 92.5645 50.8733L93.718 51.0574V55.1617C93.718 55.6586 93.7743 56.0727 93.8774 56.3856C93.9806 56.6985 94.14 56.9469 94.337 57.131C94.5339 57.3058 94.7871 57.4347 95.0872 57.4899C95.3873 57.5543 95.7343 57.5819 96.1282 57.5819C96.3439 57.5819 96.5221 57.5727 96.6909 57.5543C96.8503 57.5359 97.0473 57.5083 97.263 57.4715C97.4506 57.4439 97.535 57.3518 97.535 57.1862Z" fill="#005697"/>
</svg>
