<svg width="120" height="70" viewBox="0 0 120 70" fill="none" xmlns="http://www.w3.org/2000/svg">
<path d="M90.0195 53.8105H29.9803C26.6775 53.8105 24 51.1284 24 47.82V21.8551C24 18.5465 26.6775 15.8646 29.9803 15.8646H90.0195C93.3224 15.8646 96 18.5465 96 21.8551V47.82C96 51.1284 93.3224 53.8105 90.0195 53.8105Z" fill="url(#paint0_linear)"/>
<path d="M58.5296 48.9395H53.6472V21.5406H58.5296V48.9395Z" fill="white"/>
<path d="M67.5879 48.9395H62.7056V30.7915H67.5879V48.9395Z" fill="white"/>
<path d="M89.4708 48.9395L82.1341 39.3352L88.8825 30.7915H83.1178L76.6472 39.0802V21.5406H71.7649V48.9395H76.6472V39.622L83.1178 48.9395H89.4708Z" fill="white"/>
<path d="M41.2061 44.2579C38.7859 44.2579 36.8238 42.2925 36.8238 39.8682C36.8238 37.444 38.7859 35.4786 41.2061 35.4786C43.6263 35.4786 45.5885 37.444 45.5885 39.8682C45.5885 42.2925 43.6263 44.2579 41.2061 44.2579ZM41.2061 30.588C39.6206 30.588 38.1287 30.9877 36.8238 31.6908V21.5434H31.9414V39.8682C31.9414 44.9935 36.0894 49.1484 41.2061 49.1484C46.3228 49.1484 50.4708 44.9935 50.4708 39.8682C50.4708 34.743 46.3228 30.588 41.2061 30.588Z" fill="white"/>
<path d="M50.3236 24.544C50.3236 26.9523 48.3746 28.9043 45.9706 28.9043C43.5666 28.9043 41.6177 26.9523 41.6177 24.544C41.6177 22.136 43.5666 20.1838 45.9706 20.1838C48.3746 20.1838 50.3236 22.136 50.3236 24.544Z" fill="url(#paint1_radial)"/>
<defs>
<linearGradient id="paint0_linear" x1="60" y1="53.8105" x2="60" y2="15.8646" gradientUnits="userSpaceOnUse">
<stop stop-color="#3D3E3F"/>
<stop offset="1" stop-color="#050606"/>
</linearGradient>
<radialGradient id="paint1_radial" cx="0" cy="0" r="1" gradientUnits="userSpaceOnUse" gradientTransform="translate(42.4314 19.9481) rotate(40.0473) scale(14.2812 14.2853)">
<stop stop-color="#EE252C"/>
<stop offset="0.494975" stop-color="#EF304C"/>
<stop offset="1" stop-color="#9C41A6"/>
</radialGradient>
</defs>
</svg>
