<svg width="120" height="70" viewBox="0 0 120 70" fill="none" xmlns="http://www.w3.org/2000/svg">
<path d="M105.967 3H13.6214C11.6213 3 10 4.62135 10 6.62139V62.7529C10 64.7529 11.6213 66.3742 13.6214 66.3742H105.967C107.967 66.3742 109.588 64.7529 109.588 62.7529V6.62139C109.588 4.62135 107.967 3 105.967 3Z" fill="#F9F9F9"/>
<path d="M22.3276 13.8359H23.1805V36.4805H22.3276V13.8359ZM24.0333 13.8359H24.8861V36.4805H24.0333V13.8359ZM29.154 13.8359H30.0068V36.4805H29.154V13.8359ZM45.7544 13.8359H46.6072V36.4805H45.7544V13.8359ZM51.3042 13.8359H52.157V36.4805H51.3042V13.8359ZM56.6855 13.8359H57.5384V36.4805H56.6855V13.8359ZM58.0725 13.8359H58.9254V36.4805H58.0725V13.8359ZM59.4613 13.8359H60.3142V36.4805H59.4613V13.8359ZM61.0221 13.8359H61.875V36.4805H61.0221V13.8359ZM62.583 13.8359H63.4358V36.4805H62.583V13.8359ZM66.9214 13.8359H67.7742V36.4805H66.9214V13.8359ZM77.6787 13.8359H78.5315V36.4805H77.6787V13.8359ZM88.8996 13.8359H89.7524V36.4805H88.8996V13.8359ZM91.9687 13.8359H92.8215V36.4805H91.9687V13.8359ZM94.1868 13.8359H95.0396V36.4805H94.1868V13.8359ZM95.5521 13.8359H96.4049V36.4805H95.5521V13.8359ZM34.7852 13.8359H35.638V36.4805H34.7852V13.8359ZM26.2514 13.8359H27.7869V36.4805H26.2514V13.8359ZM36.3859 13.8359H37.9213V36.4805H36.3859V13.8359ZM43.5019 13.8359H45.0373V36.4805H43.5019V13.8359ZM47.145 13.8359H48.6805V36.4805H47.145V13.8359ZM52.8704 13.8359H54.4059V36.4805H52.8704V13.8359ZM69.1938 13.8359H71.5821V36.4805H69.1938V13.8359ZM72.3136 13.8359H74.1913V36.4805H72.3136V13.8359ZM75.6055 13.8359H77.1409V36.4805H75.6055V13.8359ZM79.9584 13.8359H82.5187V36.4805H79.9584V13.8359ZM84.9722 13.8359H87.5325V36.4805H84.9722V13.8359ZM30.8596 13.8359H33.9306V36.4805H30.8596V13.8359ZM38.8194 13.8359H41.2077V36.4805H38.8194V13.8359Z" fill="#010101"/>
<path d="M23.4316 56.5871V43.6262H28.2952C29.1078 43.5948 29.9184 43.7285 30.678 44.0191C31.2603 44.268 31.7512 44.6912 32.0831 45.2305C32.412 45.7408 32.5885 46.3344 32.5919 46.9416C32.592 47.4951 32.4357 48.0374 32.1411 48.506C31.8094 49.0225 31.3369 49.4333 30.7794 49.6902C31.495 49.8739 32.1309 50.2866 32.5901 50.8653C33.0151 51.4301 33.2377 52.1215 33.2221 52.8281C33.2269 53.4146 33.0955 53.9941 32.8382 54.5211C32.6205 54.9938 32.2934 55.4077 31.884 55.7289C31.4578 56.0342 30.9753 56.2521 30.4644 56.3698C29.7793 56.5271 29.0776 56.6001 28.3748 56.5871H23.4316ZM25.1482 49.0728H27.9511C28.4986 49.0942 29.0465 49.0437 29.5808 48.9225C29.9717 48.8233 30.3184 48.5964 30.5658 48.2779C30.7961 47.9466 30.9124 47.5494 30.8971 47.1462C30.9051 46.7459 30.7976 46.3517 30.5875 46.0109C30.3869 45.6873 30.0754 45.4479 29.7111 45.3373C29.065 45.1887 28.4017 45.1278 27.7393 45.1562H25.1482V49.0728ZM25.1482 55.0589H28.3748C28.7651 55.0691 29.1557 55.0485 29.5427 54.9973C29.8929 54.9406 30.229 54.8177 30.5332 54.6352C30.8111 54.4556 31.0366 54.2057 31.1868 53.9109C31.3622 53.576 31.4506 53.2025 31.444 52.8245C31.4561 52.3736 31.3262 51.9302 31.0728 51.557C30.8227 51.1987 30.4601 50.9342 30.0425 50.8056C29.425 50.6386 28.7859 50.5654 28.1467 50.5883H25.1482V55.0589ZM35.7281 50.275C35.6196 48.4283 36.2421 46.613 37.4609 45.2214C38.0353 44.6182 38.7311 44.1437 39.5023 43.829C40.2735 43.5144 41.1027 43.3669 41.9351 43.3962C43.0719 43.3806 44.1912 43.6775 45.1708 44.2545C46.1231 44.8174 46.8874 45.6497 47.3672 46.6464C47.8847 47.7318 48.1432 48.9225 48.1222 50.1248C48.1434 51.3472 47.8708 52.5568 47.3274 53.652C46.8346 54.6489 46.0477 55.4705 45.073 56.0059C44.1096 56.5371 43.0262 56.8126 41.9261 56.8062C40.7748 56.8253 39.6415 56.5197 38.6559 55.9244C37.7076 55.3495 36.9479 54.5099 36.4704 53.509C35.9785 52.5021 35.7246 51.3956 35.7281 50.275ZM37.4971 50.3022C37.4234 51.6509 37.878 52.9752 38.7646 53.9942C39.1644 54.4321 39.6535 54.7792 40.1989 55.0119C40.7443 55.2446 41.3333 55.3576 41.9261 55.3432C42.5224 55.3583 43.115 55.2443 43.6632 55.009C44.2114 54.7736 44.7022 54.4225 45.102 53.9797C45.9964 52.8983 46.4439 51.5161 46.3532 50.1157C46.3769 49.1676 46.1973 48.2254 45.8263 47.3526C45.4993 46.5999 44.9544 45.9623 44.2619 45.522C43.5698 45.0871 42.7669 44.8614 41.9496 44.8719C41.3704 44.8632 40.7952 44.9692 40.2573 45.184C39.7193 45.3987 39.2292 45.7179 38.8153 46.1231C38.3255 46.6947 37.9563 47.3594 37.7298 48.0772C37.5033 48.795 37.4241 49.5512 37.4971 50.3004V50.3022ZM50.9343 56.5871V43.6262H52.649V55.0571H59.0317V56.5871H50.9343ZM61.7803 56.5871V43.6262H71.1525V45.1562H63.495V49.1253H70.6654V50.6462H63.495V55.0571H71.453V56.5871H61.7803ZM77.7905 56.5871V45.1562H73.519V43.6262H83.7929V45.1562H79.5052V56.5871H77.7905ZM85.3736 50.275C85.2662 48.4278 85.8899 46.6125 87.1101 45.2214C87.6845 44.6182 88.3803 44.1437 89.1515 43.829C89.9227 43.5144 90.7519 43.3669 91.5843 43.3962C92.7211 43.3806 93.8404 43.6775 94.82 44.2545C95.7723 44.8174 96.5366 45.6497 97.0164 46.6464C97.5339 47.7318 97.7924 48.9225 97.7715 50.1248C97.7926 51.3472 97.52 52.5568 96.9766 53.652C96.4822 54.6506 95.6926 55.473 94.715 56.0077C93.7516 56.5389 92.6682 56.8144 91.568 56.808C90.416 56.8269 89.282 56.5206 88.2961 55.9244C87.3498 55.3487 86.5921 54.5092 86.116 53.509C85.6241 52.5021 85.3701 51.3956 85.3736 50.275ZM87.1427 50.3022C87.069 51.6509 87.5236 52.9752 88.4102 53.9942C88.81 54.4321 89.2991 54.7792 89.8445 55.0119C90.3899 55.2446 90.9789 55.3576 91.5716 55.3432C92.1697 55.3601 92.7643 55.2472 93.3145 55.0121C93.8647 54.777 94.3573 54.4254 94.7585 53.9815C95.6528 52.9001 96.1004 51.5179 96.0097 50.1175C96.0282 49.1682 95.843 48.226 95.4664 47.3544C95.1394 46.6017 94.5946 45.9641 93.902 45.5238C93.21 45.0889 92.407 44.8632 91.5898 44.8738C91.0106 44.865 90.4354 44.971 89.8974 45.1858C89.3595 45.4005 88.8694 45.7197 88.4554 46.1249C87.9666 46.6966 87.5982 47.3611 87.3723 48.0786C87.1464 48.7961 87.0677 49.5518 87.1409 50.3004L87.1427 50.3022Z" fill="black"/>
</svg>
