<svg width="120" height="70" viewBox="0 0 120 70" fill="none" xmlns="http://www.w3.org/2000/svg">
<path d="M83.6337 34.6248H76.8754C76.1245 34.6248 75.5196 34.0304 75.5196 33.2794C75.5196 32.5285 76.1245 31.8715 76.8754 31.8715H87.1588V26.8027H76.8754C73.2877 26.8027 70.3674 29.7334 70.3674 33.3107C70.3674 36.888 73.2877 39.8187 76.8754 39.8187H83.5398C84.2907 39.8187 84.8956 40.4132 84.8956 41.1641C84.8956 41.915 84.2907 42.4678 83.5398 42.4678H69.2515C68.0417 44.7831 66.8631 46.7647 64.4644 47.7555H83.6337C87.1588 47.7034 90.0478 44.7206 90.0478 41.1745C90.0478 37.6181 87.1588 34.677 83.6337 34.6248Z" fill="#71706F"/>
<path d="M57.7368 26.8027C52.0111 26.8027 47.3491 31.496 47.3491 37.253V37.4721V58.9984H52.5326V47.7555H57.7264C63.4522 47.7555 68.0933 42.9997 68.0933 37.2426C68.1037 31.4751 63.4626 26.8027 57.7368 26.8027ZM57.7368 42.4573H52.5326V37.2322C52.5326 34.3119 54.8583 31.934 57.7368 31.934C60.6154 31.934 62.962 34.3119 62.962 37.2322C62.962 40.1524 60.6154 42.4573 57.7368 42.4573Z" fill="#71706F"/>
<path d="M30.9438 47.755C26.042 47.755 21.9224 44.2611 20.8064 39.7035C20.8064 39.7035 20.4831 38.1912 20.4831 37.2004C20.4831 36.2096 20.7856 34.6869 20.7856 34.6869C21.9119 30.1397 26.0211 26.7501 30.9126 26.7501C36.6696 26.7501 41.3941 31.4225 41.3941 37.1795V39.7139H26.1046C27.0119 41.4765 28.8371 42.4673 30.9438 42.4673H44.6899L44.7107 27.5427C44.7107 25.3212 42.896 23.4961 40.6641 23.4961H21.1819C18.9604 23.4961 17.1353 25.2587 17.1353 27.4906V46.9728C17.1353 49.1943 18.9604 51.0716 21.1819 51.0716H40.6641C42.6561 51.0716 44.3248 49.6427 44.6481 47.7654H30.9438V47.755Z" fill="#B90466"/>
<path d="M30.9231 31.6934C28.8268 31.6934 27.0016 32.9762 26.0942 34.6345H35.7519C34.8445 32.9762 33.0194 31.6934 30.9231 31.6934Z" fill="#B90466"/>
<path d="M39.7461 17.1551C39.7461 12.3992 35.7933 8.55078 30.9227 8.55078C26.1356 8.55078 22.235 12.2845 22.1099 16.9256C22.1099 16.9465 22.1099 16.9674 22.1099 16.9882V19.5643C22.1099 19.8772 22.3602 20.1796 22.6835 20.1796H25.927C26.2399 20.1796 26.5215 19.8772 26.5215 19.5643V17.1551C26.5215 14.7772 28.4927 12.8477 30.9332 12.8477C33.3737 12.8477 35.3448 14.7772 35.3448 17.1551V19.5643C35.3448 19.8772 35.5951 20.1796 35.9185 20.1796H39.162C39.4749 20.1796 39.7565 19.8772 39.7565 19.5643V17.1551H39.7461Z" fill="#B90466"/>
<path d="M63.5566 54.4814L63.0873 57.1409C62.8579 58.4863 61.9714 59.1016 60.7824 59.1016C59.7707 59.1016 58.9885 58.4446 59.218 57.1409L59.6873 54.4814H60.4069L59.9376 57.1409C59.7916 57.9753 60.1671 58.4446 60.8658 58.4446C61.5855 58.4446 62.2112 58.017 62.3573 57.1409L62.8266 54.4814H63.5566ZM60.7094 53.6471C60.7094 53.8661 60.8763 53.9704 61.064 53.9704C61.2934 53.9704 61.5438 53.8139 61.5438 53.501C61.5438 53.282 61.3977 53.1777 61.21 53.1777C60.9701 53.1777 60.7094 53.3237 60.7094 53.6471ZM62.2738 53.6366C62.2738 53.8661 62.4511 53.9704 62.6388 53.9704C62.837 53.9704 63.1082 53.8139 63.1082 53.5115C63.1082 53.2925 62.9517 53.1777 62.7744 53.1777C62.545 53.1777 62.2738 53.3237 62.2738 53.6366Z" fill="#71706F"/>
<path d="M65.2984 54.4824L64.9751 56.318C65.2566 55.9425 65.8198 55.7444 66.2057 55.7444C67.0192 55.7444 67.572 56.2241 67.572 57.1002C67.572 58.3413 66.7063 59.0922 65.6008 59.0922C65.1732 59.0922 64.8082 58.9358 64.5787 58.529L64.4536 59.0088H63.8174L64.6204 54.4824H65.2984ZM64.7978 57.58C64.7665 58.1119 65.1211 58.456 65.6217 58.456C66.2579 58.456 66.8628 57.9659 66.9045 57.2254C66.9358 56.683 66.5812 56.3597 66.091 56.3597C65.4652 56.3597 64.829 56.8708 64.7978 57.58Z" fill="#71706F"/>
<path d="M68.8963 57.673C68.8755 58.111 69.2197 58.476 69.8037 58.476C70.127 58.476 70.5546 58.3509 70.7945 58.1319L71.1595 58.5491C70.7632 58.9141 70.1792 59.1018 69.6786 59.1018C68.7503 59.1018 68.208 58.5491 68.208 57.6938C68.208 56.5674 69.0945 55.7227 70.2313 55.7227C71.2743 55.7227 71.8583 56.3484 71.5037 57.673H68.8963ZM70.9614 57.1202C71.0135 56.5674 70.6902 56.338 70.1479 56.338C69.6577 56.338 69.2092 56.5674 69.0111 57.1202H70.9614Z" fill="#71706F"/>
<path d="M73.298 55.7957L73.2667 56.2233C73.5796 55.8165 73.9551 55.7227 74.2992 55.7227C74.6121 55.7227 74.8937 55.8374 75.0397 55.9938L74.633 56.5779C74.487 56.4423 74.341 56.3797 74.1011 56.3797C73.6422 56.3797 73.1833 56.6613 73.079 57.2558L72.7661 58.9871H72.0986L72.6722 55.7852H73.298V55.7957Z" fill="#71706F"/>
<path d="M78.2832 55.7969L78.6169 58.3312L79.8476 55.7969H80.5881L78.909 58.9987H78.1267L77.8034 56.892L77.2924 57.9349L76.7292 58.9987H75.947L75.3838 55.7969H76.1347L76.4685 58.3312L77.6991 55.7969H78.2832Z" fill="#71706F"/>
<path d="M81.4535 57.673C81.4326 58.111 81.7768 58.476 82.3609 58.476C82.6842 58.476 83.1118 58.3509 83.3517 58.1319L83.7167 58.5491C83.3204 58.9141 82.7363 59.1018 82.2357 59.1018C81.3075 59.1018 80.7651 58.5491 80.7651 57.6938C80.7651 56.5674 81.6516 55.7227 82.7885 55.7227C83.8314 55.7227 84.4155 56.3484 84.0609 57.673H81.4535ZM83.5185 57.1202C83.5707 56.5674 83.2474 56.338 82.705 56.338C82.2148 56.338 81.7664 56.5674 81.5682 57.1202H83.5185Z" fill="#71706F"/>
<path d="M85.9069 55.7953L85.3438 58.9971H84.6763L85.2395 55.7953H85.9069ZM85.3125 54.9296C85.3125 55.1591 85.4793 55.2738 85.6671 55.2738C85.9278 55.2738 86.1677 55.1069 86.1677 54.7836C86.1677 54.5646 86.0112 54.4395 85.8339 54.4395C85.5836 54.4499 85.3125 54.6063 85.3125 54.9296Z" fill="#71706F"/>
<path d="M88.8796 56.5896C88.671 56.3602 88.3998 56.2872 88.0869 56.2872C87.6489 56.2872 87.3256 56.4332 87.3256 56.7148C87.3256 56.9547 87.5759 57.0485 87.9618 57.0798C88.5458 57.132 89.2967 57.3301 89.1403 58.1541C89.0256 58.7485 88.4311 59.1032 87.5967 59.1032C87.0753 59.1032 86.5746 58.9884 86.2305 58.5087L86.6685 58.0289C86.9084 58.3627 87.336 58.4982 87.7115 58.5087C88.0348 58.5087 88.4102 58.3939 88.4728 58.0915C88.5354 57.7995 88.2746 57.6952 87.8053 57.6534C87.2526 57.6013 86.6581 57.4031 86.6581 56.7878C86.6581 55.9847 87.5237 55.7031 88.1808 55.7031C88.6814 55.7031 89.036 55.8179 89.3384 56.1307L88.8796 56.5896Z" fill="#71706F"/>
<path d="M91.007 55.7969L90.7045 57.5177C90.6002 58.0705 90.8505 58.4459 91.4137 58.4459C91.9456 58.4459 92.3941 58.0079 92.4775 57.476L92.7695 55.7969H93.437L92.8738 58.9987H92.2689L92.3106 58.5398C91.9352 58.8944 91.5597 59.0717 91.1113 59.0717C90.3186 59.0717 89.8493 58.5085 90.0266 57.5386L90.3291 55.8073H91.007V55.7969Z" fill="#71706F"/>
<path d="M96.3886 58.9987L96.7014 57.2883C96.7953 56.7356 96.6076 56.3705 95.9922 56.3705C95.4603 56.3705 95.0119 56.7981 94.918 57.33L94.626 59.0092H93.9585L94.5217 55.8073H95.137L95.0849 56.2767C95.4603 55.9325 95.8462 55.7656 96.2634 55.7656C97.0456 55.7656 97.5567 56.308 97.3794 57.2883L97.0665 59.0092H96.3886V58.9987Z" fill="#71706F"/>
<path d="M98.6625 59.4355C98.6208 59.8736 98.9545 60.0509 99.5177 60.0509C100.018 60.0509 100.55 59.7797 100.675 59.0705L100.769 58.5177C100.477 58.9245 99.9453 59.0914 99.5386 59.0914C98.7146 59.0914 98.141 58.6012 98.141 57.7147C98.141 56.4527 99.0797 55.7227 100.143 55.7227C100.592 55.7227 100.999 55.9417 101.145 56.3067L101.259 55.7957H101.906L101.343 59.0914C101.134 60.3116 100.227 60.6871 99.403 60.6871C98.4122 60.6871 97.8699 60.2073 98.0054 59.4355H98.6625ZM98.8502 57.6C98.8502 58.1527 99.2048 58.476 99.7263 58.476C101.113 58.476 101.489 56.3484 100.102 56.3484C99.4447 56.3484 98.8502 56.8386 98.8502 57.6Z" fill="#71706F"/>
</svg>
