<svg width="120" height="70" viewBox="0 0 120 70" fill="none" xmlns="http://www.w3.org/2000/svg">
<path fill-rule="evenodd" clip-rule="evenodd" d="M68.8628 24.75C71.119 24.75 72.9437 25.2542 74.0941 25.7108L73.3009 30.5843L72.7734 30.3446C71.718 29.8883 70.3249 29.4323 68.4287 29.4805C66.126 29.4805 65.0932 30.4643 65.0693 31.4248C65.0693 32.4814 66.3186 33.1777 68.3586 34.2103C71.719 35.819 73.2776 37.7875 73.2543 40.3567C73.2071 45.0387 69.2229 48.0642 63.103 48.0642C60.4864 48.0399 57.9661 47.4866 56.5982 46.863L57.4144 41.7968L58.1824 42.1574C60.0785 42.9986 61.3262 43.3579 63.6548 43.3579C65.334 43.3579 67.1345 42.661 67.1574 41.149C67.1574 40.1646 66.3904 39.4437 64.1339 38.3393C61.9261 37.2585 58.9743 35.458 59.0222 32.2165C59.047 27.823 63.103 24.75 68.8628 24.75ZM47.1187 47.7275H52.9512L56.599 25.1588H50.7668L47.1187 47.7275ZM81.846 39.7322C82.3263 38.4357 84.1746 33.4177 84.1746 33.4177C84.1648 33.4371 84.2411 33.2255 84.3545 32.911L84.3546 32.9106C84.5221 32.4463 84.7703 31.7578 84.942 31.257L85.3496 33.2016C85.3496 33.2016 86.4541 38.6039 86.6939 39.7322H81.846ZM89.0455 25.1588H84.534C83.1428 25.1588 82.0858 25.5666 81.4856 27.0313L72.8221 47.7272H78.942C78.942 47.7272 79.9496 44.9417 80.1661 44.3418H87.6546C87.822 45.1341 88.3505 47.7272 88.3505 47.7272H93.7508L89.0455 25.1588ZM42.2447 25.1588L36.5328 40.5485L35.9088 37.4281L35.9098 37.4308L33.8698 27.0585C33.534 25.6171 32.5019 25.2089 31.2299 25.1614H21.846L21.75 25.6174C24.0385 26.2029 26.0853 27.0466 27.8788 28.0956L33.0767 47.7036H39.2444L48.4121 25.1588H42.2447Z" fill="#1A1F71"/>
<path fill-rule="evenodd" clip-rule="evenodd" d="M18 23.3727C18 19.7908 20.9166 16.8867 24.5125 16.8867H95.4875C99.085 16.8867 102 19.7908 102 23.3727V46.5512C102 50.131 99.085 53.0357 95.4875 53.0357H24.5125C20.9166 53.0357 18 50.131 18 46.5512V23.3727Z" fill="#000268"/>
<path fill-rule="evenodd" clip-rule="evenodd" d="M20.6729 23.5939V46.3307C20.6729 48.5686 22.4959 50.3836 24.7446 50.3836H61.9291V19.541H24.7446C22.4959 19.541 20.6729 21.356 20.6729 23.5939ZM71.5369 34.8488C71.5369 36.2964 70.8215 37.2913 69.637 37.2913C68.5905 37.2913 67.7182 36.2964 67.7182 34.9707C67.7182 33.61 68.4854 32.5983 69.637 32.5983C70.8581 32.5983 71.5369 33.645 71.5369 34.8488ZM64.582 43.1513H67.7182V38.2145H67.7533C68.3473 39.2963 69.5334 39.6971 70.6311 39.6971C73.3322 39.6971 74.7788 37.465 74.7788 34.7786C74.7788 32.5816 73.4023 30.1903 70.8916 30.1903C69.4634 30.1903 68.1387 30.7666 67.5096 32.0404H67.4745V30.4013H64.582V43.1513ZM79.0623 36.6099C79.0623 35.7385 79.898 35.4082 80.9628 35.4082C81.4329 35.4082 81.8869 35.4412 82.2875 35.46C82.2875 36.5235 81.538 37.6053 80.352 37.6053C79.6198 37.6053 79.0623 37.2395 79.0623 36.6099ZM85.3886 39.4883C85.25 38.774 85.215 38.0575 85.215 37.3431V33.959C85.215 31.1858 83.2115 30.1903 80.8927 30.1903C79.5513 30.1903 78.3835 30.3824 77.2675 30.8367L77.3209 32.9657C78.1895 32.4763 79.2025 32.2843 80.2134 32.2843C81.3445 32.2843 82.2687 32.6166 82.2875 33.8554C81.8869 33.7853 81.3278 33.7319 80.8226 33.7319C79.1507 33.7319 76.1348 34.0642 76.1348 36.837C76.1348 38.809 77.7377 39.6971 79.533 39.6971C80.8226 39.6971 81.6949 39.1932 82.4093 38.0575H82.4443C82.4443 38.5301 82.4956 38.999 82.5144 39.4883H85.3886ZM86.8001 43.1513C87.4454 43.2916 88.0897 43.3622 88.7518 43.3622C91.6281 43.3622 92.3069 41.1463 93.1959 38.8608L96.5262 30.4013H93.3879L91.523 36.3314H91.4879L89.5357 30.4013H86.1558L89.8328 39.6971C89.6058 40.5 89.0138 40.9543 88.2461 40.9543C87.8089 40.9543 87.4271 40.9009 87.0082 40.7622L86.8001 43.1513Z" fill="white"/>
<path fill-rule="evenodd" clip-rule="evenodd" d="M28.3351 34.868C28.3351 33.6292 28.9459 32.5992 30.1137 32.5992C31.5252 32.5992 32.1172 33.7328 32.1172 34.7444C32.1172 36.1402 31.2281 37.0818 30.1137 37.0818C29.1729 37.0818 28.3351 36.2805 28.3351 34.868ZM35.1503 30.4021H32.3091V32.0413H32.2761C31.612 30.9244 30.5305 30.1912 29.1896 30.1912C26.3666 30.1912 25.0938 32.2166 25.0938 34.9197C25.0938 37.6061 26.6454 39.4892 29.1357 39.4892C30.3924 39.4892 31.4383 38.9999 32.1872 37.9364H32.2223V38.4257C32.2223 40.2041 31.2464 41.0588 29.4349 41.0588C28.1269 41.0588 27.3242 40.7798 26.3666 40.3093L26.2097 42.7869C26.9403 43.0491 28.1782 43.3631 29.6786 43.3631C33.3388 43.3631 35.1503 42.1589 35.1503 38.4257V30.4021ZM40.4527 26.6172H37.3149V28.9195H40.4527V26.6172ZM37.3165 39.4892H40.4527V30.4021H37.3165V39.4892ZM49.1883 30.2964C48.8745 30.2451 48.4906 30.1912 48.1256 30.1912C46.7659 30.1912 45.982 30.9244 45.4412 32.0763H45.4062V30.4021H42.5482V39.4892H45.6849V35.653C45.6849 33.8731 46.5055 32.8096 47.9687 32.8096C48.3358 32.8096 48.6826 32.8096 49.0314 32.9127L49.1883 30.2964ZM54.59 37.501C53.1435 37.501 52.5515 36.2972 52.5515 34.9548C52.5515 33.5941 53.1435 32.3904 54.59 32.3904C56.0381 32.3904 56.6306 33.5941 56.6306 34.9548C56.6306 36.2972 56.0381 37.501 54.59 37.501ZM54.59 39.698C57.5882 39.698 59.8719 37.9552 59.8719 34.9548C59.8719 31.9361 57.5882 30.1912 54.59 30.1912C51.5924 30.1912 49.3102 31.9361 49.3102 34.9548C49.3102 37.9552 51.5924 39.698 54.59 39.698Z" fill="#FF0007"/>
</svg>
