<svg width="120" height="70" viewBox="0 0 120 70" fill="none" xmlns="http://www.w3.org/2000/svg">
<g clip-path="url(#clip0)">
<path d="M57.9216 35.1179V45.6818H54.5703V19.5935H63.4586C64.5195 19.5714 65.5744 19.7596 66.5622 20.1472C67.5501 20.5348 68.4514 21.1143 69.2141 21.852C69.9846 22.545 70.5977 23.3949 71.0124 24.3446C71.4271 25.2942 71.6337 26.3217 71.6183 27.3578C71.6404 28.3995 71.437 29.4336 71.022 30.3893C70.607 31.345 69.9903 32.1997 69.2141 32.8948C67.6599 34.3768 65.7414 35.1172 63.4586 35.1158H57.9216V35.1179ZM57.9216 22.8054V31.9123H63.5419C64.158 31.9305 64.7712 31.82 65.3422 31.5877C65.9131 31.3555 66.4294 31.0066 66.8578 30.5634C67.284 30.149 67.6228 29.6534 67.8541 29.1059C68.0855 28.5583 68.2046 27.9699 68.2046 27.3755C68.2046 26.7811 68.0855 26.1927 67.8541 25.6451C67.6228 25.0975 67.284 24.6019 66.8578 24.1876C66.4347 23.735 65.9203 23.3776 65.3486 23.139C64.777 22.9003 64.1611 22.7859 63.5419 22.8033H57.9216V22.8054Z" fill="#5F6368"/>
<path d="M79.3408 27.25C81.8179 27.25 83.7732 27.9119 85.2067 29.2358C86.6402 30.5597 87.3562 32.3748 87.3548 34.6812V45.6823H84.1492V43.2052H84.0035C82.6158 45.2451 80.7702 46.2651 78.4666 46.2651C76.5002 46.2651 74.855 45.6823 73.5312 44.5166C72.8958 43.9816 72.3879 43.3115 72.0443 42.5553C71.7008 41.7991 71.5303 40.9758 71.5453 40.1453C71.5453 38.2983 72.2434 36.8294 73.6394 35.7386C75.0354 34.6479 76.8991 34.1011 79.2305 34.0983C81.2205 34.0983 82.8593 34.4626 84.1471 35.1912V34.4252C84.1509 33.859 84.0287 33.2991 83.7893 32.7861C83.5498 32.273 83.1993 31.8197 82.7629 31.4589C81.8767 30.6593 80.7217 30.2231 79.5282 30.237C77.6561 30.237 76.1747 31.0267 75.084 32.6059L72.1323 30.747C73.756 28.4157 76.1588 27.25 79.3408 27.25ZM75.0049 40.2182C75.0027 40.6447 75.1024 41.0655 75.2957 41.4457C75.4891 41.8259 75.7705 42.1544 76.1165 42.4038C76.8577 42.9868 77.7776 43.2957 78.7205 43.2781C80.1347 43.2757 81.4903 42.7128 82.4902 41.7127C83.6004 40.6678 84.1555 39.4417 84.1555 38.0346C83.1105 37.202 81.6534 36.7856 79.7842 36.7856C78.4228 36.7856 77.2877 37.1138 76.3787 37.7702C75.4608 38.4363 75.0049 39.2461 75.0049 40.2182Z" fill="#5F6368"/>
<path d="M105.756 27.834L94.5656 53.5517H91.106L95.2587 44.5531L87.9004 27.834H91.5431L96.8615 40.6564H96.9344L102.107 27.834H105.756Z" fill="#5F6368"/>
<path d="M44.3797 32.8404C44.381 31.8191 44.2946 30.7995 44.1216 29.793H29.9878V35.5651H38.083C37.9173 36.4871 37.5667 37.3659 37.0523 38.1486C36.5379 38.9314 35.8702 39.6018 35.0897 40.1196V43.8664H39.921C42.7499 41.2582 44.3797 37.4011 44.3797 32.8404Z" fill="#4285F4"/>
<path d="M29.9874 47.4861C34.0319 47.4861 37.4373 46.158 39.9206 43.8683L35.0893 40.1215C33.7446 41.0332 32.0128 41.5536 29.9874 41.5536C26.0782 41.5536 22.7602 38.9183 21.5737 35.3672H16.5967V39.2285C17.8441 41.7107 19.7569 43.7974 22.1214 45.2555C24.486 46.7137 27.2094 47.4859 29.9874 47.4861Z" fill="#34A853"/>
<path d="M21.5739 35.3676C20.9466 33.5068 20.9466 31.4917 21.5739 29.6308V25.7695H16.5969C15.5475 27.8577 15.001 30.1623 15.001 32.4992C15.001 34.8362 15.5475 37.1408 16.5969 39.2289L21.5739 35.3676Z" fill="#FBBC04"/>
<path d="M29.9874 23.4452C32.1247 23.4102 34.1899 24.2178 35.7367 25.6933L40.0143 21.4156C37.3018 18.868 33.7084 17.4692 29.9874 17.5127C27.2094 17.5128 24.486 18.2851 22.1214 19.7432C19.7569 21.2014 17.8441 23.2881 16.5967 25.7703L21.5737 29.6316C22.7602 26.0804 26.0782 23.4452 29.9874 23.4452Z" fill="#EA4335"/>
</g>
<defs>
<clipPath id="clip0">
<rect width="90.75" height="37.8125" fill="white" transform="translate(15 16)"/>
</clipPath>
</defs>
</svg>
