<svg width="120" height="70" viewBox="0 0 120 70" fill="none" xmlns="http://www.w3.org/2000/svg">
<path d="M67.4712 45.3382H52.5317V18.6719H67.4712V45.3382Z" fill="#6C6BBD"/>
<path d="M53.4867 31.9998C53.4867 26.5904 56.0368 21.7719 60.0079 18.6666C57.1039 16.3959 53.439 15.0406 49.4559 15.0406C40.0265 15.0406 32.3828 22.6334 32.3828 31.9998C32.3828 41.3662 40.0265 48.959 49.4559 48.959C53.439 48.959 57.1039 47.6037 60.0079 45.333C56.0368 42.2277 53.4867 37.4092 53.4867 31.9998Z" fill="#EB001B"/>
<path d="M87.6169 31.9978C87.6169 41.3643 79.9732 48.957 70.5438 48.957C66.5607 48.957 62.8958 47.6017 59.9907 45.331C63.9629 42.2258 66.513 37.4072 66.513 31.9978C66.513 26.5885 63.9629 21.7699 59.9907 18.6647C62.8958 16.394 66.5607 15.0386 70.5438 15.0386C79.9732 15.0386 87.6169 22.6314 87.6169 31.9978Z" fill="#0099DF"/>
<path d="M72.508 52.8677C72.7067 52.8677 72.9922 52.9055 73.2104 52.9906L72.9064 53.9136C72.698 53.8284 72.4896 53.8004 72.2898 53.8004C71.645 53.8004 71.3226 54.2144 71.3226 54.9584V57.4836H70.3358V52.9809H71.3128V53.5276C71.569 53.1319 71.9392 52.8677 72.508 52.8677ZM68.8626 53.8759H67.2505V55.9104C67.2505 56.3622 67.4112 56.6641 67.9051 56.6641C68.1613 56.6641 68.4837 56.5789 68.7768 56.4097L69.0613 57.2474C68.7486 57.4641 68.2558 57.5968 67.8291 57.5968C66.6621 57.5968 66.255 56.9746 66.255 55.9288V53.8759H65.3344V52.9809H66.255V51.6148H67.2505V52.9809H68.8626V53.8759ZM56.2383 54.8365C56.3436 54.1864 56.7409 53.7432 57.4433 53.7432C58.0783 53.7432 58.4865 54.1389 58.5907 54.8365H56.2383ZM59.6155 55.2322C59.6058 53.8284 58.733 52.8677 57.4617 52.8677C56.134 52.8677 55.2048 53.8284 55.2048 55.2322C55.2048 56.663 56.172 57.5957 57.529 57.5957C58.2119 57.5957 58.8372 57.4264 59.3876 56.9649L58.9034 56.2393C58.5245 56.5412 58.0403 56.7105 57.5855 56.7105C56.9504 56.7105 56.3718 56.4183 56.2296 55.6085H59.596C59.6058 55.4856 59.6155 55.3638 59.6155 55.2322ZM63.9492 54.1303C63.6746 53.96 63.1155 53.7432 62.5369 53.7432C61.9962 53.7432 61.6738 53.9416 61.6738 54.2716C61.6738 54.5724 62.0147 54.6576 62.4413 54.7136L62.906 54.7794C63.8928 54.9217 64.4898 55.3358 64.4898 56.1272C64.4898 56.9843 63.731 57.5968 62.4229 57.5968C61.6825 57.5968 60.9997 57.4081 60.459 57.0124L60.9237 56.249C61.2559 56.5035 61.7498 56.7202 62.4326 56.7202C63.1057 56.7202 63.4661 56.5229 63.4661 56.1735C63.4661 55.9201 63.2099 55.7778 62.6693 55.7034L62.2047 55.6377C61.1896 55.4953 60.6393 55.0436 60.6393 54.3093C60.6393 53.4144 61.3796 52.8677 62.5271 52.8677C63.2479 52.8677 63.9025 53.0284 64.3759 53.3389L63.9492 54.1303ZM76.1133 53.7982C75.9103 53.7982 75.7225 53.8338 75.5477 53.9039C75.374 53.9751 75.2231 54.0742 75.0961 54.2015C74.9691 54.3287 74.8692 54.4818 74.7965 54.6597C74.7237 54.8376 74.6879 55.0339 74.6879 55.2473C74.6879 55.4619 74.7237 55.6571 74.7965 55.835C74.8692 56.0129 74.9691 56.166 75.0961 56.2932C75.2231 56.4204 75.374 56.5196 75.5477 56.5908C75.7225 56.662 75.9103 56.6965 76.1133 56.6965C76.3163 56.6965 76.5052 56.662 76.6789 56.5908C76.8537 56.5196 77.0056 56.4204 77.1327 56.2932C77.2618 56.166 77.3617 56.0129 77.4355 55.835C77.5083 55.6571 77.5441 55.4619 77.5441 55.2473C77.5441 55.0339 77.5083 54.8376 77.4355 54.6597C77.3617 54.4818 77.2618 54.3287 77.1327 54.2015C77.0056 54.0742 76.8537 53.9751 76.6789 53.9039C76.5052 53.8338 76.3163 53.7982 76.1133 53.7982ZM76.1133 52.8677C76.465 52.8677 76.7907 52.9281 77.0903 53.0499C77.3899 53.1707 77.6494 53.3378 77.8676 53.5502C78.0869 53.7626 78.2573 54.0139 78.3811 54.3028C78.5048 54.5929 78.5667 54.9077 78.5667 55.2473C78.5667 55.587 78.5048 55.9018 78.3811 56.1919C78.2573 56.4808 78.0869 56.7331 77.8676 56.9455C77.6494 57.1579 77.3899 57.324 77.0903 57.4458C76.7907 57.5666 76.465 57.627 76.1133 57.627C75.7615 57.627 75.4359 57.5666 75.1362 57.4458C74.8366 57.324 74.5793 57.1579 74.3622 56.9455C74.1451 56.7331 73.9747 56.4808 73.8509 56.1919C73.7271 55.9018 73.6653 55.587 73.6653 55.2473C73.6653 54.9077 73.7271 54.5929 73.8509 54.3028C73.9747 54.0139 74.1451 53.7626 74.3622 53.5502C74.5793 53.3378 74.8366 53.1707 75.1362 53.0499C75.4359 52.9281 75.7615 52.8677 76.1133 52.8677ZM50.4759 55.2322C50.4759 54.4408 50.9981 53.7907 51.8514 53.7907C52.6667 53.7907 53.2171 54.4128 53.2171 55.2322C53.2171 56.0517 52.6667 56.6727 51.8514 56.6727C50.9981 56.6727 50.4759 56.0237 50.4759 55.2322ZM54.1463 55.2322V52.9809H53.1606V53.5276C52.8469 53.1222 52.3736 52.8677 51.7287 52.8677C50.4575 52.8677 49.462 53.8564 49.462 55.2322C49.462 56.607 50.4575 57.5968 51.7287 57.5968C52.3736 57.5968 52.8469 57.3423 53.1606 56.9369V57.4836H54.1463V55.2322ZM48.5892 57.4836V54.6576C48.5892 53.5934 47.9063 52.8774 46.8066 52.8677C46.228 52.858 45.6299 53.037 45.213 53.6688C44.9003 53.1696 44.4064 52.8677 43.7138 52.8677C43.2307 52.8677 42.7563 53.009 42.3861 53.5362V52.9809H41.4004V57.4836H42.3959V54.9875C42.3959 54.2058 42.8323 53.7907 43.5054 53.7907C44.16 53.7907 44.4922 54.2144 44.4922 54.9778V57.4836H45.4876V54.9875C45.4876 54.2058 45.9436 53.7907 46.5971 53.7907C47.2713 53.7907 47.5937 54.2144 47.5937 54.9778V57.4836H48.5892Z" fill="#231F20"/>
</svg>
