<svg width="120" height="70" viewBox="0 0 120 70" fill="none" xmlns="http://www.w3.org/2000/svg">
<path d="M68.1089 21.0137H51.8862V50.4849H68.1089V21.0137Z" fill="#FF5F00"/>
<path d="M52.9178 35.7547C52.9178 29.7667 55.6988 24.4557 59.9734 21.0191C56.8319 18.5198 52.8663 17.0098 48.5403 17.0098C38.2916 17.0098 30 25.3929 30 35.7547C30 46.1165 38.2916 54.4997 48.5403 54.4997C52.8663 54.4997 56.8319 52.9897 59.9734 50.4903C55.6988 47.1058 52.9178 41.7427 52.9178 35.7547Z" fill="#EC001B"/>
<path d="M89.9988 35.7449C89.9988 46.1067 81.7072 54.4899 71.4586 54.4899C67.1325 54.4899 63.1669 52.9799 60.0254 50.4806C64.3514 47.044 67.081 41.7329 67.081 35.7449C67.081 29.757 64.2999 24.4459 60.0254 21.0093C63.1669 18.51 67.1325 17 71.4586 17C81.7072 17 89.9988 25.4352 89.9988 35.7449Z" fill="#F89E1B"/>
</svg>
