<svg width="120" height="70" viewBox="0 0 120 70" fill="none" xmlns="http://www.w3.org/2000/svg">
<path fill-rule="evenodd" clip-rule="evenodd" d="M108.894 32.1851C108.894 31.081 109.745 30.1875 110.784 30.1875C111.828 30.1875 112.67 31.081 112.67 32.1851C112.67 33.2909 111.828 34.1843 110.784 34.1843C109.745 34.1843 108.894 33.2909 108.894 32.1851ZM110.784 33.711C111.578 33.711 112.226 33.0256 112.226 32.1851C112.226 31.3489 111.578 30.6695 110.784 30.6695C109.993 30.6695 109.342 31.3489 109.342 32.1851C109.342 33.0256 109.993 33.711 110.784 33.711ZM110.527 33.0607H110.14V31.3008H110.841C110.984 31.3008 111.144 31.3094 111.267 31.3978C111.401 31.497 111.478 31.6637 111.478 31.84C111.478 32.0351 111.368 32.2176 111.193 32.2838L111.496 33.0607H111.066L110.81 32.3709H110.526V33.0607H110.527ZM110.527 32.0717H110.742C110.822 32.0717 110.913 32.0743 110.98 32.0351C111.045 31.9923 111.074 31.9068 111.074 31.8314C111.074 31.7652 111.036 31.6855 110.98 31.6544C110.922 31.615 110.806 31.6239 110.738 31.6239H110.527V32.0717Z" fill="#EC2127"/>
<path fill-rule="evenodd" clip-rule="evenodd" d="M81.8749 18.8994L81.3573 22.2871C80.2344 21.6857 79.4086 21.45 78.5266 21.45C76.1729 21.45 74.5083 23.857 74.5083 27.2936C74.5083 29.6673 75.6258 31.0974 77.4634 31.0974C78.2434 31.0974 79.1006 30.8453 80.1494 30.2926L79.5971 33.8575C78.437 34.1933 77.6802 34.3127 76.803 34.3127C73.3937 34.3127 71.2732 31.7255 71.2732 27.5727C71.2732 21.9867 74.2031 18.0859 78.3944 18.0859C78.9358 18.0859 79.4195 18.1392 79.8125 18.2537L81.1156 18.5973C81.5034 18.7518 81.5906 18.7754 81.8749 18.8994Z" fill="#EC2127"/>
<path fill-rule="evenodd" clip-rule="evenodd" d="M71.3826 21.2203C71.2834 21.2013 71.1735 21.1875 71.0591 21.1875C70.0175 21.1875 69.4286 21.742 68.4613 23.255L68.7421 21.325H65.8782L63.9368 34.0243H67.1138C68.2499 26.2625 68.5405 24.9222 70.0635 24.9222C70.1562 24.9222 70.1648 24.9222 70.2946 24.9351C70.5755 23.4049 70.9602 22.2798 71.4907 21.2537L71.3826 21.2203Z" fill="#EC2127"/>
<path fill-rule="evenodd" clip-rule="evenodd" d="M52.454 33.8697C51.5945 34.1575 50.9152 34.2884 50.1856 34.2884C48.5719 34.2884 47.6907 33.2994 47.6907 31.4949C47.6907 31.141 47.717 30.7592 47.7808 30.3563L47.9764 29.1181L48.1214 28.1067L49.4931 19.4414H52.6362L52.2758 21.3256H53.8935L53.4493 24.4126H51.8356L51.0005 29.7126C50.9718 29.9466 50.9475 30.1192 50.9475 30.2386C50.9475 30.8889 51.2773 31.1796 52.0247 31.1796C52.3893 31.1796 52.6642 31.1413 52.8756 31.061L52.454 33.8697Z" fill="#EC2127"/>
<path fill-rule="evenodd" clip-rule="evenodd" d="M39.9905 25.3418C39.9905 26.9445 40.7244 28.0529 42.3864 28.8814C43.6592 29.5182 43.8614 29.7038 43.8614 30.2818C43.8614 31.0708 43.2965 31.4363 42.0523 31.4363C41.1139 31.4363 40.2367 31.2786 39.2256 30.9278L38.7883 33.8571L38.9313 33.8876L39.5117 34.0114C39.6984 34.0514 39.9733 34.087 40.336 34.1265C41.0899 34.1972 41.6679 34.2312 42.0769 34.2312C45.3936 34.2312 46.9281 32.884 46.9281 29.9915C46.9281 28.2535 46.2885 27.2257 44.708 26.4562C43.3892 25.824 43.2396 25.675 43.2396 25.0854C43.2396 24.3965 43.7627 24.0426 44.7784 24.0426C45.3979 24.0426 46.2379 24.1165 47.0399 24.2316L47.4904 21.2992C46.6661 21.1579 45.4419 21.0488 44.7166 21.0488C41.1974 21.0488 39.9773 22.9978 39.9905 25.3418Z" fill="#EC2127"/>
<path fill-rule="evenodd" clip-rule="evenodd" d="M107.06 34.0249H104.068L104.225 32.7807C103.353 33.7637 102.459 34.1927 101.304 34.1927C98.9911 34.1927 97.4758 32.0964 97.4758 28.9211C97.4758 24.6973 99.8306 21.1309 102.627 21.1309C103.856 21.1309 104.785 21.6661 105.66 22.8695L106.348 18.4082H109.464L107.06 34.0249ZM102.394 31.0349C103.871 31.0349 104.904 29.2702 104.904 26.7567C104.904 25.1427 104.314 24.2636 103.222 24.2636C101.789 24.2636 100.771 26.0356 100.771 28.5347C100.771 30.1976 101.319 31.0349 102.394 31.0349Z" fill="#EC2127"/>
<path fill-rule="evenodd" clip-rule="evenodd" d="M62.4664 33.7591C61.3847 34.101 60.339 34.2736 59.2178 34.269C55.6921 34.269 53.8499 32.3169 53.8499 28.5845C53.8499 24.2202 56.1929 21.0078 59.3783 21.0078C61.9761 21.0078 63.6448 22.8083 63.6448 25.6299C63.6448 26.5643 63.5323 27.4753 63.2509 28.7624H56.9643C56.938 28.9557 56.934 29.0441 56.934 29.1563C56.934 30.6405 57.8744 31.3881 59.7143 31.3881C60.8421 31.3881 61.8574 31.1421 62.9941 30.5804L62.4664 33.7591ZM60.6925 26.1971C60.7105 25.9318 60.7148 25.7154 60.7148 25.5545C60.7148 24.5166 60.1582 23.9106 59.2178 23.9106C58.215 23.9106 57.4966 24.7201 57.202 26.1885L60.6925 26.1971Z" fill="#EC2127"/>
<path fill-rule="evenodd" clip-rule="evenodd" d="M27.2954 34.0252H24.1366L25.9456 22.0246L21.9034 34.0252H19.7385L19.4768 22.0951L17.5711 34.0252H14.6125L17.0809 18.4082H21.6331L21.7584 28.072L24.831 18.4082H29.7439L27.2954 34.0252Z" fill="#EC2127"/>
<path fill-rule="evenodd" clip-rule="evenodd" d="M35.4343 28.3672C35.1 28.3272 34.953 28.3125 34.7265 28.3125C32.9351 28.3125 32.0273 28.9683 32.0273 30.2511C32.0273 31.0418 32.4735 31.5457 33.1637 31.5457C34.4496 31.5457 35.3817 30.2511 35.4343 28.3672ZM37.7336 34.024H35.1154L35.1726 32.7056C34.3747 33.757 33.3087 34.2447 31.86 34.2447C30.1411 34.2447 28.9675 32.8296 28.9675 30.7848C28.9675 27.6846 31.0183 25.8848 34.5242 25.8848C34.8823 25.8848 35.3397 25.9127 35.8102 25.9789C35.9088 25.5587 35.9354 25.3775 35.9354 25.1547C35.9354 24.316 35.386 23.9977 33.9042 23.9977C33.0098 23.9977 31.983 24.1347 31.2754 24.3606L30.8358 24.4886L30.5589 24.5709L30.994 21.7228C32.5725 21.2293 33.6119 21.0391 34.7834 21.0391C37.5002 21.0391 38.94 22.3288 38.94 24.7625C38.94 25.3947 38.894 25.8638 38.6786 27.2818L38.0171 31.7813L37.9092 32.5939L37.828 33.2411L37.7731 33.6833L37.7336 34.024Z" fill="#EC2127"/>
<path fill-rule="evenodd" clip-rule="evenodd" d="M87.3187 28.3672C86.9898 28.3272 86.837 28.3125 86.6162 28.3125C84.8178 28.3125 83.9071 28.9683 83.9071 30.2511C83.9071 31.0418 84.3581 31.5457 85.0486 31.5457C86.3405 31.5457 87.262 30.2511 87.3187 28.3672ZM89.6202 34.024H86.9986L87.0595 32.7056C86.2621 33.757 85.1939 34.2447 83.7472 34.2447C82.0282 34.2447 80.8499 32.8296 80.8499 30.7848C80.8499 27.6846 82.8986 25.8848 86.4114 25.8848C86.7675 25.8848 87.2292 25.9127 87.6965 25.9789C87.7935 25.5587 87.8218 25.3775 87.8218 25.1547C87.8218 24.316 87.2726 23.9977 85.7914 23.9977C84.8915 23.9977 83.8676 24.1347 83.166 24.3606L82.7164 24.4886L82.443 24.5709L82.8829 21.7228C84.4634 21.2293 85.5005 21.0391 86.6637 21.0391C89.3849 21.0391 90.8247 22.3288 90.8247 24.7625C90.8247 25.3947 90.7703 25.8638 90.5655 27.2818L89.8988 31.7813L89.801 32.5939L89.7126 33.2411L89.6549 33.6833L89.6202 34.024Z" fill="#EC2127"/>
<path fill-rule="evenodd" clip-rule="evenodd" d="M98.4518 21.2203C98.3583 21.2013 98.2547 21.1875 98.1337 21.1875C97.0958 21.1875 96.5023 21.742 95.5304 23.255L95.8124 21.325H92.9523L91.0188 34.0243H94.185C95.3222 26.2625 95.6208 24.9222 97.1335 24.9222C97.2316 24.9222 97.2251 24.9133 97.3546 24.9351C97.6412 23.4049 98.0279 22.2798 98.5593 21.2537L98.4518 21.2203Z" fill="#EC2127"/>
<path fill-rule="evenodd" clip-rule="evenodd" d="M85.182 46.341C85.182 49.2199 84.2962 50.9151 82.8998 50.9151C81.8805 50.9467 81.2624 49.8038 81.2624 48.0943C81.2624 46.0725 82.1654 43.7809 83.6143 43.7809C84.779 43.7812 85.182 45.0228 85.182 46.341ZM88.2915 46.3939C88.2915 43.1939 86.7199 40.7031 83.7659 40.7031C80.3652 40.7031 78.1628 43.732 78.1628 48.1909C78.1628 51.3832 79.4645 53.9934 82.6842 53.9934C85.9333 53.9934 88.2915 51.679 88.2915 46.3939Z" fill="#F89620"/>
<path fill-rule="evenodd" clip-rule="evenodd" d="M79.1792 38.4565L78.6958 41.8404C77.6447 41.2433 76.8799 40.9956 76.0533 40.9956C73.8441 40.9956 72.301 43.4129 72.301 46.8495C72.301 49.222 73.3344 50.6573 75.0557 50.6573C75.7896 50.6573 76.5927 50.4052 77.5675 49.8519L77.0555 53.4145C75.9629 53.7532 75.2496 53.8692 74.4382 53.8692C71.2554 53.8692 69.2727 51.2809 69.2727 47.1275C69.2727 41.5388 72.009 37.6387 75.9283 37.6387C76.4357 37.6387 76.8847 37.7034 77.256 37.8064L78.4653 38.1517C78.8385 38.3008 78.9157 38.327 79.1792 38.4565Z" fill="#F89620"/>
<path fill-rule="evenodd" clip-rule="evenodd" d="M59.6303 40.7812C59.5402 40.7562 59.4364 40.7461 59.3269 40.7461C58.3681 40.7461 57.8058 41.3029 56.9072 42.8107L57.1686 40.8842H54.4952L52.6904 53.5849H55.6424C56.7044 45.8154 56.9852 44.4785 58.4013 44.4785C58.4848 44.4785 58.4934 44.4785 58.6167 44.4929C58.883 42.9566 59.2413 41.8312 59.7379 40.8031L59.6303 40.7812Z" fill="#F89620"/>
<path fill-rule="evenodd" clip-rule="evenodd" d="M98.194 53.4486H95.4045L95.5481 52.209C94.7367 53.1865 93.8926 53.6193 92.8129 53.6193C90.6618 53.6193 89.2415 51.5196 89.2415 48.3451C89.2415 44.1282 91.4461 40.5514 94.0525 40.5514C95.2026 40.5514 96.0752 41.0982 96.8815 42.3015L97.5328 37.8359H100.439L98.194 53.4486ZM93.8294 50.4612C95.22 50.4612 96.1788 48.6979 96.1788 46.1821C96.1788 44.5635 95.631 43.6945 94.6157 43.6945C93.2728 43.6945 92.3187 45.4599 92.3187 47.967C92.3187 49.6219 92.8307 50.4612 93.8294 50.4612Z" fill="#F89620"/>
<path fill-rule="evenodd" clip-rule="evenodd" d="M31.9441 53.3959C30.9399 53.7444 29.9614 53.913 28.9198 53.913C25.6226 53.913 23.9016 51.9569 23.9016 48.2256C23.9016 43.8674 26.0908 40.6523 29.0625 40.6523C31.4959 40.6523 33.0475 42.4496 33.0475 45.2713C33.0475 46.2039 32.942 47.1178 32.6894 48.4055H26.805C26.7872 48.5951 26.7806 48.6892 26.7806 48.8C26.7806 50.2807 27.6621 51.0277 29.3745 51.0277C30.4296 51.0277 31.3835 50.7803 32.4409 50.2235L31.9441 53.3959ZM30.2932 45.8399C30.3067 45.5714 30.3152 45.3576 30.3152 45.1945C30.3152 44.1589 29.7967 43.5529 28.9195 43.5529C27.9765 43.5529 27.3058 44.368 27.0358 45.8267L30.2932 45.8399Z" fill="#F89620"/>
<path fill-rule="evenodd" clip-rule="evenodd" d="M67.0631 53.3959C66.0557 53.7444 65.0753 53.913 64.0373 53.913C60.7336 53.913 59.0149 51.9569 59.0149 48.2256C59.0149 43.8674 61.2063 40.6523 64.1758 40.6523C66.6098 40.6523 68.1663 42.4496 68.1663 45.2713C68.1663 46.2039 68.0561 47.1178 67.7947 48.4055H61.9231C61.9051 48.5951 61.8942 48.6892 61.8942 48.8C61.8942 50.2807 62.7737 51.0277 64.4858 51.0277C65.5412 51.0277 66.4976 50.7803 67.5553 50.2235L67.0631 53.3959ZM65.4031 45.8399C65.4225 45.5714 65.4334 45.3576 65.4334 45.1945C65.4334 44.1589 64.9105 43.5529 64.037 43.5529C63.0938 43.5529 62.4239 44.368 62.1511 45.8267L65.4031 45.8399Z" fill="#F89620"/>
<path fill-rule="evenodd" clip-rule="evenodd" d="M108.265 53.3959C107.245 53.7444 106.278 53.913 105.232 53.913C101.935 53.913 100.209 51.9569 100.209 48.2256C100.209 43.8674 102.406 40.6523 105.375 40.6523C107.808 40.6523 109.358 42.4496 109.358 45.2713C109.358 46.2039 109.257 47.1178 108.995 48.4055H103.118C103.097 48.5951 103.093 48.6892 103.093 48.8C103.093 50.2807 103.975 51.0277 105.687 51.0277C106.744 51.0277 107.696 50.7803 108.756 50.2235L108.265 53.3959ZM106.606 45.8399C106.619 45.5714 106.627 45.3576 106.627 45.1945C106.627 44.1589 106.111 43.5529 105.232 43.5529C104.289 43.5529 103.621 44.368 103.348 45.8267L106.606 45.8399Z" fill="#F89620"/>
<path fill-rule="evenodd" clip-rule="evenodd" d="M23.2047 41.3556C22.6266 40.9666 21.8441 40.6268 20.7384 40.6268C19.5448 40.6268 18.5844 40.8757 18.5844 42.1533C18.5844 44.4095 22.9364 43.567 22.9364 48.3986C22.9364 52.7994 20.0639 53.9404 17.4655 53.9404C16.3094 53.9404 14.9794 53.5556 13.9993 53.1174L14.7049 49.8837C15.2963 50.4241 16.4896 50.7944 17.4655 50.7944C18.3953 50.7944 19.8526 50.5389 19.8526 48.9062C19.8526 46.3495 15.5029 47.3006 15.5029 42.8131C15.5029 38.7081 18.0438 37.4785 20.495 37.4785C21.8753 37.4785 23.1721 37.6822 23.9326 38.1907L23.2047 41.3556Z" fill="#F89620"/>
<path fill-rule="evenodd" clip-rule="evenodd" d="M40.5912 53.392C39.9823 53.6867 39.1691 53.8806 37.969 53.8806C35.3886 53.8806 33.7883 51.2857 33.7883 48.1265C33.7883 43.9918 36.1031 40.6934 39.5098 40.6934C40.2529 40.6934 41.3869 41.0168 42.2816 41.5385L41.6286 44.5716C40.9954 44.153 40.3361 43.8868 39.6571 43.8868C38.0786 43.8868 36.9511 45.3422 36.9511 47.9501C36.9511 49.4516 37.7688 50.6832 39.061 50.6832C39.8301 50.6832 40.3713 50.52 41.0331 50.1307L40.5912 53.392Z" fill="#F89620"/>
<path fill-rule="evenodd" clip-rule="evenodd" d="M51.6317 50.2118C51.4802 51.3044 51.3394 52.3651 51.2556 53.5048H48.4135L48.6532 51.452H48.6243C47.7342 52.8473 46.8132 53.7972 45.2041 53.7972C43.4197 53.7972 42.4526 51.9081 42.4526 49.441C42.4526 48.5907 42.5053 48.1107 42.694 46.7827L43.4986 40.9046H46.6616L45.813 46.8C45.7272 47.4333 45.6065 48.0615 45.6065 48.7167C45.6065 49.4597 45.9429 50.2113 46.7958 50.1652C48.0923 50.1652 48.8574 48.5697 49.075 46.7079L49.948 40.9043H53.0098L51.6317 50.2118Z" fill="#F89620"/>
<path fill-rule="evenodd" clip-rule="evenodd" d="M111.211 53.3524H110.733V51.2461H110.041V50.7949H111.903V51.2461H111.211V53.3524Z" fill="#F89620"/>
<path fill-rule="evenodd" clip-rule="evenodd" d="M114.384 53.3524H113.937V51.2145H113.93L113.503 53.3524H113.035L112.618 51.2145H112.611V53.3524H112.166V50.7949H112.863L113.278 52.8112H113.284L113.692 50.7949H114.384V53.3524Z" fill="#F89620"/>
</svg>
