<svg width="120" height="70" viewBox="0 0 120 70" fill="none" xmlns="http://www.w3.org/2000/svg">
<path d="M74.2024 19.4004H66.3074C65.4362 19.4004 64.7175 20.1082 64.7175 20.9794V39.0125C64.7175 39.8401 65.4471 40.5261 66.3292 40.5261H75.8031C79.1898 40.5261 81.9557 37.9344 81.9557 34.7656C81.9557 32.5223 80.5619 30.5622 78.5473 29.6148C79.5927 28.5258 80.2352 27.0558 80.2352 25.4441C80.2461 22.1228 77.5237 19.4004 74.2024 19.4004ZM78.6344 34.428C78.6344 36.0505 77.3059 37.3791 75.6833 37.3791H67.9953V22.4168H74.0608C75.6398 22.4168 76.9248 23.7018 76.9248 25.2808C76.9248 26.7073 75.8685 27.8942 74.4964 28.112V28.1447H71.48C70.5652 28.1447 69.8247 28.8961 69.8247 29.7999C69.8247 30.7146 70.5761 31.466 71.48 31.466H74.4964V31.4769H75.6833C77.3059 31.4769 78.6344 32.8054 78.6344 34.428Z" fill="black"/>
<path d="M46.4013 62.4471C47.0329 62.4471 47.5992 62.1857 48.013 61.7719C48.4268 61.3581 48.6881 60.7919 48.6881 60.1603V57.4161C48.6881 57.133 48.4594 56.9043 48.1763 56.9043C47.8932 56.9043 47.6645 57.133 47.6645 57.4161V60.1603C47.6645 60.5088 47.5229 60.8246 47.2943 61.0532C47.0656 61.2819 46.7498 61.4235 46.4013 61.4235C46.0528 61.4235 45.737 61.2819 45.5084 61.0532C45.2797 60.8246 45.1381 60.5088 45.1381 60.1603V57.4161C45.1381 57.133 44.9094 56.9043 44.6263 56.9043C44.3432 56.9043 44.1145 57.133 44.1145 57.4161V60.1603C44.1145 60.7919 44.3759 61.3581 44.7788 61.7719C45.2035 62.1857 45.7697 62.4471 46.4013 62.4471Z" fill="black"/>
<path d="M52.4666 62.4482C52.7497 62.4482 52.9784 62.2195 52.9784 61.9364C52.9784 61.6533 52.7497 61.4246 52.4666 61.4246H51.0618C50.8114 61.4246 50.5936 61.3266 50.4302 61.1632C50.2669 60.9999 50.1689 60.7821 50.1689 60.5316V57.4063C50.1689 57.1232 49.9402 56.8945 49.6571 56.8945C49.3739 56.8945 49.1453 57.1232 49.1453 57.4063V60.5316C49.1453 61.0543 49.3631 61.5335 49.7006 61.882C50.0491 62.2304 50.5282 62.4482 51.0509 62.4482H52.4666Z" fill="black"/>
<path d="M39.6278 40.8209C40.6732 40.9298 41.6097 40.1784 41.7186 39.133L43.2758 24.7915L48.8077 38.8281L48.8186 38.8608V38.8717L48.8295 38.8935L48.8403 38.9153L48.8512 38.937L48.8621 38.9588L48.873 38.9806L48.8839 38.9915L48.9057 39.0242L48.9275 39.0568L48.9383 39.0786C48.9928 39.1875 49.0581 39.2746 49.1344 39.3726L49.1453 39.3835C49.167 39.4053 49.1779 39.4271 49.1997 39.4488C49.2106 39.4706 49.2324 39.4815 49.2433 39.4924C49.2541 39.5033 49.2759 39.5251 49.2977 39.536C49.3195 39.5577 49.3413 39.5795 49.363 39.5904L49.3739 39.6013C49.461 39.6775 49.5591 39.7429 49.668 39.7973L49.6897 39.8082L49.7224 39.83L49.7551 39.8518L49.766 39.8626L49.7877 39.8735L49.8095 39.8844L49.8313 39.8953L49.8531 39.9062L49.8749 39.9171H49.8857L49.9075 39.928C50.1144 40.0042 50.3213 40.0478 50.5282 40.0587H50.55H50.5718H50.5936H50.6262H50.648C50.8331 40.0478 51.0183 40.0151 51.2034 39.9498H51.2143L51.236 39.9389L51.2469 39.928H51.2578L51.2796 39.9171L51.3014 39.9062L51.3232 39.8953L51.3449 39.8844L51.3667 39.8735L51.3885 39.8626L51.4103 39.8518L51.4212 39.8409L51.4538 39.8191L51.4865 39.7973H51.4974C51.6172 39.732 51.7261 39.6557 51.8241 39.5686L51.8568 39.5468H51.8676C52.0201 39.4053 52.1508 39.2311 52.2488 39.0459L52.2597 39.035L52.2706 39.0024L52.2814 38.9915L52.2923 38.9588L52.3032 38.937L52.3141 38.9044V38.8935L52.325 38.8608L52.3468 38.8281L52.3577 38.8172L57.8678 24.7915L59.425 39.133C59.5339 40.1784 60.4704 40.9298 61.5158 40.8209C62.5612 40.712 63.3126 39.7755 63.2037 38.7301L61.3633 21.8186V21.8077C61.3416 21.6117 61.298 21.4157 61.2436 21.2197C61.1891 21.0346 61.1129 20.8494 61.0149 20.6752C60.5466 19.7932 59.6864 19.1724 58.6518 19.0309C58.6192 19.0309 58.5865 19.02 58.5429 19.02C58.3796 18.9982 58.2163 18.9982 58.0638 19.0091H58.0529C57.846 19.02 57.65 19.0418 57.4758 19.0853C56.4957 19.314 55.6572 20.0001 55.2652 20.991L50.5718 32.9369L45.8675 20.991C45.4755 19.9892 44.6479 19.314 43.6569 19.0853C43.4827 19.0418 43.2867 19.02 43.0798 19.0091H43.0689C42.9055 18.9982 42.7531 19.0091 42.5897 19.02C42.5571 19.02 42.5244 19.0309 42.4808 19.0309C41.4463 19.1724 40.5861 19.7932 40.1178 20.6752C40.0198 20.8494 39.9436 21.0346 39.8891 21.2197C39.8347 21.4157 39.7911 21.6117 39.7693 21.8077V21.8186L37.9399 38.7301C37.8201 39.7755 38.5824 40.712 39.6278 40.8209Z" fill="black"/>
<path d="M37.4391 62.4469C37.7114 62.4795 37.9727 62.2835 38.0054 62.0004L38.441 58.3415L39.9873 61.946C40.0417 62.0657 40.1289 62.1529 40.2486 62.2073C40.51 62.3162 40.804 62.1964 40.9129 61.946L42.481 58.3415L42.9166 62.0004C42.9493 62.2726 43.1997 62.4795 43.4829 62.4469C43.7551 62.4142 43.962 62.1637 43.9293 61.8806L43.4284 57.6337V57.6228C43.4284 57.601 43.4175 57.5792 43.4175 57.5575C43.4066 57.5248 43.4066 57.4921 43.3957 57.4594C43.374 57.405 43.3522 57.3614 43.3304 57.3179C43.1997 57.1001 42.971 56.9476 42.6988 56.915C42.6879 56.915 42.677 56.915 42.6552 56.915C42.6226 56.915 42.579 56.915 42.5463 56.915C42.4919 56.915 42.4483 56.9259 42.3939 56.9368C42.1325 56.9912 41.9148 57.1654 41.795 57.4159L40.4773 60.465L39.1597 57.4159C39.1488 57.3941 39.1379 57.3723 39.127 57.3614C39.1052 57.3288 39.0835 57.2961 39.0726 57.2634C39.0399 57.2199 39.0072 57.1763 38.9637 57.1437C38.7786 56.9694 38.5172 56.8823 38.2559 56.915H38.245C38.1905 56.9259 38.1361 56.9368 38.0925 56.9476C38.0816 56.9476 38.0707 56.9585 38.049 56.9585C38.0163 56.9694 37.9836 56.9912 37.951 57.0021C37.7114 57.1328 37.5371 57.3506 37.5045 57.6337L37.0036 61.8806C36.9709 62.1529 37.1669 62.4142 37.4391 62.4469Z" fill="black"/>
<path d="M54.1873 62.4482C54.4704 62.4482 54.6991 62.2195 54.6991 61.9364V57.9182H56.1474C56.4305 57.9182 56.6592 57.6895 56.6592 57.4063C56.6592 57.1232 56.4305 56.8945 56.1474 56.8945H54.1873H52.2271C51.944 56.8945 51.7153 57.1232 51.7153 57.4063C51.7153 57.6895 51.944 57.9182 52.2271 57.9182H53.6755V61.9364C53.6755 62.2195 53.9041 62.4482 54.1873 62.4482Z" fill="black"/>
<path d="M56.8442 57.4161V61.9353C56.8442 62.2184 57.0729 62.4471 57.356 62.4471C57.6392 62.4471 57.8679 62.2184 57.8679 61.9353V57.4161C57.8679 57.133 57.6392 56.9043 57.356 56.9043C57.0729 56.9043 56.8442 57.133 56.8442 57.4161Z" fill="black"/>
<path d="M64.8265 60.0639C64.8265 60.3471 65.0552 60.5757 65.3383 60.5757H67.1024L67.2876 62.0132C67.3202 62.2963 67.5707 62.4923 67.8538 62.4596C68.1261 62.427 68.333 62.1765 68.3003 61.8934L67.9518 59.073C67.9518 59.0621 67.9518 59.0403 67.9409 59.0294C67.9192 58.8879 67.8865 58.7463 67.8538 58.6156C67.8103 58.4741 67.7558 58.3216 67.6796 58.18C67.3093 57.4504 66.6342 56.9277 65.7521 56.9277C65.5779 56.9277 65.4146 56.9495 65.2621 56.9822C65.0988 57.0257 64.9463 57.0802 64.8156 57.1455C64.1187 57.5049 63.6505 58.2345 63.5633 59.073L63.2475 61.8934C63.2149 62.1656 63.4218 62.427 63.694 62.4487C63.9771 62.4814 64.2276 62.2854 64.2603 62.0023L64.5761 59.1819C64.6305 58.681 64.8919 58.2454 65.2839 58.0494C65.3601 58.0058 65.4363 57.984 65.5126 57.9622C65.5997 57.9405 65.6759 57.9296 65.7739 57.9296C66.2313 57.9296 66.6015 58.2127 66.7975 58.6156C66.8411 58.6918 66.8738 58.7899 66.9064 58.8879C66.9282 58.975 66.95 59.0621 66.9609 59.1492C66.9609 59.1601 66.9609 59.171 66.9609 59.1819L67.0153 59.5521H65.3819C65.0552 59.5521 64.8265 59.7808 64.8265 60.0639Z" fill="black"/>
<path d="M73.3531 62.2729C73.3639 62.2729 73.3857 62.262 73.3966 62.2511H73.4075C73.4293 62.2402 73.4511 62.2293 73.4728 62.2184C73.5055 62.1966 73.5382 62.1749 73.5708 62.1531C73.7342 62.0224 73.8322 61.8155 73.8322 61.5977V57.4161C73.8322 57.133 73.6035 56.9043 73.3204 56.9043C73.0373 56.9043 72.8086 57.133 72.8086 57.4161V60.7483L70.108 57.2963C69.9773 57.1221 69.7813 57.035 69.5744 57.0241H69.5635C69.5199 57.0241 69.4764 57.0241 69.4437 57.035C69.4219 57.035 69.411 57.0459 69.3893 57.0459C69.3675 57.0459 69.3457 57.0568 69.3239 57.0676C69.1497 57.1221 69.0081 57.2419 68.921 57.4052C68.9101 57.4379 68.8883 57.4706 68.8774 57.4923C68.8557 57.5468 68.8448 57.6012 68.8339 57.6557C68.8339 57.6883 68.823 57.7101 68.823 57.7428V61.9353C68.823 62.2184 69.0517 62.4471 69.3348 62.4471C69.6179 62.4471 69.8466 62.2184 69.8466 61.9353V58.5813L72.5581 62.0333L72.569 62.0442L72.5908 62.066C72.6126 62.0986 72.6343 62.1204 72.6561 62.1313C72.6888 62.164 72.7215 62.1857 72.7541 62.2075C72.7759 62.2184 72.7977 62.2293 72.8195 62.2402C72.9719 62.3273 73.1679 62.3382 73.3531 62.2729Z" fill="black"/>
<path d="M76.2822 57.9279H77.785C78.0681 57.9279 78.2968 57.6992 78.2968 57.4161C78.2968 57.133 78.0681 56.9043 77.785 56.9043H76.2822C75.7269 56.9043 75.2368 57.133 74.8666 57.4923C74.5072 57.8517 74.2786 58.3526 74.2786 58.908V60.4325C74.2786 60.9879 74.5072 61.4888 74.8666 61.8482C75.226 62.2075 75.7269 62.4362 76.2822 62.4362H77.785C78.0681 62.4362 78.2968 62.2075 78.2968 61.9244C78.2968 61.6413 78.0681 61.4126 77.785 61.4126H76.2822C76.01 61.4126 75.7595 61.3037 75.5853 61.1186C75.4002 60.9443 75.2913 60.6939 75.2913 60.4216V58.8971C75.2913 58.6249 75.4002 58.3744 75.5853 58.2002C75.7704 58.0368 76.01 57.917 76.2822 57.9279Z" fill="black"/>
<path d="M80.7251 56.9043C80.0717 56.9043 79.4837 57.1548 79.059 57.5686C78.6234 57.9824 78.3621 58.5595 78.3621 59.202V60.1494C78.3621 60.781 78.6343 61.3581 79.059 61.7828C79.4837 62.1966 80.0826 62.4471 80.7251 62.4471C81.3785 62.4471 81.9665 62.1857 82.3912 61.7828C82.8268 61.369 83.0881 60.7919 83.0881 60.1494V59.202C83.0881 58.5704 82.8159 57.9933 82.3912 57.5795C81.9556 57.1656 81.3676 56.9043 80.7251 56.9043ZM82.0754 60.1494C82.0754 60.4979 81.9229 60.8137 81.6834 61.0423C81.4329 61.2819 81.0953 61.4235 80.7251 61.4235C80.3548 61.4235 80.0064 61.271 79.7668 61.0423C79.5272 60.8137 79.3748 60.4979 79.3748 60.1494V59.202C79.3748 58.8535 79.5272 58.5377 79.7668 58.2982C80.0173 58.0586 80.3548 57.917 80.7251 57.917C81.0953 57.917 81.4438 58.0695 81.6834 58.2982C81.9229 58.5268 82.0754 58.8535 82.0754 59.1911V60.1494Z" fill="black"/>
<path d="M60.7754 56.9043H58.8152C58.8043 56.9043 58.7935 56.9043 58.7826 56.9043C58.6519 56.9152 58.5321 56.9696 58.445 57.0459L58.4341 57.0568C58.3796 57.1112 58.347 57.1656 58.3143 57.231C58.2816 57.2963 58.2708 57.3617 58.2708 57.4379V59.6485V61.9353C58.2708 62.2184 58.4994 62.4471 58.7826 62.4471H61.2545C61.7119 62.4471 62.1257 62.262 62.4197 61.968C62.7137 61.663 62.9097 61.2492 62.9097 60.8028C62.9097 60.3672 62.7355 59.9643 62.4523 59.6703C62.4415 59.6594 62.4306 59.6485 62.4197 59.6376C62.3326 59.5505 62.2346 59.4742 62.1365 59.4089C62.2999 59.1584 62.387 58.8644 62.387 58.5486C62.387 58.1022 62.2019 57.6992 61.9079 57.4052C61.6356 57.0894 61.2218 56.9043 60.7754 56.9043ZM61.2 58.1022C61.3089 58.211 61.3852 58.3635 61.3852 58.5268C61.3852 58.6902 61.3198 58.8426 61.2109 58.9515C61.1129 59.0495 60.9714 59.1149 60.8298 59.1258H60.7862H60.5902C60.3071 59.1258 60.0784 59.3545 60.0784 59.6376C60.0784 59.9207 60.3071 60.1494 60.5902 60.1494H60.7754H61.2654C61.4396 60.1494 61.603 60.2256 61.7227 60.3345L61.7445 60.3563C61.8534 60.4761 61.9188 60.6176 61.9188 60.7919C61.9188 60.9661 61.8425 61.1295 61.7336 61.2383C61.6138 61.3581 61.4614 61.4235 61.2872 61.4235H59.327V59.6485V57.9279H60.7971C60.9387 57.917 61.0911 57.9933 61.2 58.1022Z" fill="black"/>
<path fill-rule="evenodd" clip-rule="evenodd" d="M46.4668 8H74.1154H75.5746C77.6218 8 79.2988 9.775 79.2988 11.9311V13.815C79.2988 16.4721 75.6944 16.4612 75.6944 13.8368V12.8132C75.6944 12.1598 75.1608 11.6262 74.5074 11.6262H45.3452C44.6918 11.6262 44.1582 12.1598 44.1582 12.8132V13.8259C44.1582 16.4721 40.728 16.4503 40.728 13.8804V11.9311C40.728 9.76411 42.405 8 44.4413 8H46.4668ZM59.8065 51.885H78.6781C82.9904 51.885 83.034 47.3005 82.5875 45.0354C82.3479 43.5218 79.7671 43.5327 79.484 45.0354V46.7995C79.484 47.6054 78.8197 48.2696 78.0139 48.2696H59.8065H58.3473H41.8387C41.0329 48.2696 40.3686 47.6054 40.3686 46.7995V45.0354C40.0855 43.5327 37.5047 43.5109 37.2651 45.0354C36.8295 47.3005 36.8731 51.885 41.1744 51.885H58.3473H59.8065Z" fill="#2765AF"/>
</svg>
