<svg width="120" height="70" viewBox="0 0 120 70" fill="none" xmlns="http://www.w3.org/2000/svg">
<path d="M78.0078 30.223C74.4294 30.192 72.7564 32.2523 72.7564 32.2523C71.672 33.4141 72.3691 34.9632 73.438 35.0871C74.9716 35.2575 74.9561 33.9718 77.3107 33.3986C79.3709 32.9029 79.4639 34.8083 79.4639 34.8083C70.6651 34.5914 71.0834 41.9805 74.0731 43.5451C76.9389 45.0477 79.6343 43.1578 79.6343 43.1578C79.6343 43.1578 79.7272 44.1802 81.1524 44.1802C82.7789 44.1802 82.7789 42.5537 82.7789 42.5537V35.3659C82.655 30.0991 78.0078 30.223 78.0078 30.223ZM77.3107 40.6328C77.3107 40.6328 75.0025 41.0975 75.0335 39.4555C75.049 37.8135 79.2315 37.9064 79.6498 38.0459C79.6498 38.0304 79.7892 39.9047 77.3107 40.6328Z" fill="#204866"/>
<path d="M106.433 41.2676L102.84 35.8614L105.473 33.3673C105.473 33.3673 106.697 32.2365 105.69 31.1212C104.59 29.8819 103.258 31.1057 103.258 31.1057L99.9428 34.1883V28.0075C99.9428 27.1246 99.2302 26.3965 98.3318 26.3965C97.4488 26.3965 96.7207 27.1091 96.7207 28.0075V42.5534C96.7207 43.4363 97.4333 44.1644 98.3318 44.1644C99.2147 44.1644 99.9428 43.4518 99.9428 42.5534V38.6807L100.547 38.0765L103.8 43.173C103.8 43.173 104.853 44.939 106.418 43.8081C107.595 42.9561 106.433 41.2676 106.433 41.2676Z" fill="#204866"/>
<path d="M94.9856 35.3496C94.9856 30.0983 90.6017 29.3547 87.6275 31.0277V31.0432C87.4106 30.4081 86.8065 29.9434 86.0939 29.9434C85.1955 29.9434 84.4519 30.6714 84.4519 31.5854V42.5374C84.4519 43.4358 85.18 44.1794 86.0939 44.1794C86.9924 44.1794 87.7359 43.4513 87.7359 42.5374L87.7205 35.1483C87.7205 35.1483 88.1232 34.6835 88.7583 34.2188C90.2919 33.1345 91.748 33.5062 91.748 35.3651L91.7945 42.5684C91.7945 43.4668 92.5226 44.1794 93.4056 44.1794C94.2885 44.1794 95.0166 43.4513 95.0166 42.5684L94.9856 35.3496Z" fill="#204866"/>
<path d="M47.8472 44.3809C48.219 43.7613 48.281 43.3121 48.281 43.3121L44.5787 33.6303C44.5787 33.6303 43.9125 31.7559 45.3842 31.1983C46.9487 30.6096 47.5219 32.1122 47.6303 32.422C47.7543 32.7319 49.9695 38.6493 49.9695 38.6493L52.1072 32.4375C52.1072 32.4375 52.7268 30.5012 54.4308 31.1983C55.8405 31.7714 55.1124 33.6613 55.1124 33.6613C55.1124 33.6613 52.9282 40.1365 51.0848 44.8302C49.9849 47.634 49.0555 47.9128 47.9866 48.1762C46.5615 48.5325 43.8506 48.3466 43.8506 46.5806C43.8506 45.171 45.2912 45.0935 45.9418 45.109C46.0038 45.109 47.336 45.2329 47.8472 44.3809Z" fill="#27BCED"/>
<path d="M39.25 28.1161L35.873 37.457L32.1862 28.1626C32.1862 28.1626 31.644 26.4121 30.095 26.4121C28.3135 26.4121 28.3755 27.8218 28.329 28.1626C28.2825 28.5034 28.329 42.6774 28.329 42.6774C28.329 42.6774 28.3135 44.1646 29.94 44.1646C31.6131 44.1646 31.5356 42.6619 31.5511 42.6619C31.5666 42.6619 31.5511 35.1799 31.5511 35.1799L34.262 42.6619C34.262 42.6619 34.6647 44.1336 35.9195 44.1026C37.1743 44.0716 37.5305 42.6619 37.5305 42.6619L39.8077 35.1954V42.6619C39.8077 42.6619 39.8077 44.1646 41.4497 44.1646C43.0453 44.1646 43.0453 42.6619 43.0453 42.6619V28.1781C43.0453 28.1781 43.0453 26.4121 41.3103 26.4121C39.8851 26.4276 39.343 27.8063 39.25 28.1161C39.2345 28.1471 39.2345 28.1781 39.2345 28.1781L39.25 28.1161Z" fill="#27BCED"/>
<path d="M106.96 49.8802H78.3952H57.4207L57.4362 49.8957C53.2847 54.7443 47.1348 57.8425 40.2414 57.8425C27.7558 57.8425 17.6403 47.727 17.6403 35.2414C17.6403 22.7558 27.7558 12.6403 40.2414 12.6403C47.1503 12.6403 53.3466 15.754 57.4827 20.6336H62.0215C57.3123 13.6163 49.319 9 40.2414 9C25.742 9 14 20.7575 14 35.2414C14 49.7253 25.742 61.4828 40.2414 61.4828C47.8474 61.4828 54.6788 58.2298 59.4655 53.0713L104.792 53.0248L106.96 49.8802Z" fill="#27BCED"/>
<path d="M68.9613 34.6546C69.0542 34.5307 70.1386 33.6477 70.0456 31.2931C69.8752 26.5374 65.7392 26.5839 64.8252 26.5684C63.3536 26.5219 62.4706 26.5374 59.7597 26.5684C57.4671 26.5839 57.4981 28.6597 57.4981 28.6597V44.166H65.197C69.3175 44.166 70.8511 41.9043 70.8511 38.7287C70.8511 35.5376 68.9613 34.6546 68.9613 34.6546ZM60.8131 29.8524H65.0731C65.9251 29.8679 66.8235 30.3327 66.8235 31.6029C66.8235 32.9351 66.049 33.3534 65.0731 33.3534H60.8131V29.8524ZM65.3674 41.0058H60.8131V36.6529H65.3674C66.4672 36.7149 67.5361 37.2725 67.5361 38.8216C67.5361 40.4172 66.5602 41.0058 65.3674 41.0058Z" fill="#204866"/>
</svg>
