<svg width="120" height="70" viewBox="0 0 120 70" fill="none" xmlns="http://www.w3.org/2000/svg">
<path fill-rule="evenodd" clip-rule="evenodd" d="M17.7693 18.2102C17.7693 16.756 18.9634 15.5664 20.4232 15.5664H100.346C101.806 15.5664 103 16.756 103 18.2102V52.0551C103 53.5095 101.806 54.699 100.346 54.699H20.4232C18.9634 54.699 17.7693 53.5095 17.7693 52.0551V18.2102Z" fill="#F0A929"/>
<path fill-rule="evenodd" clip-rule="evenodd" d="M17.7693 19.4102H103V50.858H17.7693V19.4102Z" fill="white"/>
<path fill-rule="evenodd" clip-rule="evenodd" d="M89.9997 27.5781C86.1002 27.5781 82.9215 30.7452 82.9215 34.6298C82.9215 38.513 86.1002 41.6805 89.9997 41.6805C93.8984 41.6805 97.0773 38.513 97.0773 34.6298C97.0773 30.7452 93.8984 27.5781 89.9997 27.5781ZM31.6584 27.5781C27.7586 27.5781 24.5793 30.7452 24.5793 34.6298C24.5793 38.513 27.7586 41.6805 31.6584 41.6805C35.5564 41.6805 38.7357 38.513 38.7357 34.6298C38.7357 30.7452 35.5564 27.5781 31.6584 27.5781Z" fill="#E21C2A"/>
<path fill-rule="evenodd" clip-rule="evenodd" d="M89.4446 21.3711C82.8922 21.2211 79.8116 25.4067 75.3407 30.5691L71.1232 35.4382L77.8018 43.403C79.3929 45.8502 76.3561 48.279 74.472 46.0396L68.2973 38.702L62.2804 45.6505C60.3643 47.8624 57.362 45.3915 58.9871 42.9672L65.519 35.4004L61.2397 30.315L63.9925 26.9188L68.3445 32.1267L72.096 27.7795C73.9368 25.648 75.814 22.8235 78.2471 21.3711H17.7695V48.8961H31.9094C38.4627 48.8961 41.4376 44.9929 45.7873 39.7295L49.8915 34.7634L43.0291 26.9553C41.3832 24.545 44.3622 22.0478 46.2979 24.243L52.6401 31.4373L58.4963 24.352C60.3601 22.0956 63.4183 24.4981 61.85 26.9594L55.4947 34.6749L59.891 39.6608L57.121 42.9284L52.7452 38.0119L49.0958 42.4431C47.3046 44.6164 45.4914 47.3882 43.0922 48.8961H103V21.3711H89.4446ZM42.8406 34.6285C42.8406 40.7647 37.8181 45.7686 31.6588 45.7686C25.4979 45.7686 20.4753 40.7647 20.4753 34.6285C20.4753 28.4914 25.4979 23.4879 31.6588 23.4879C37.8181 23.4879 42.8406 28.4914 42.8406 34.6285ZM90.0001 45.7686C83.8404 45.7686 78.8167 40.7647 78.8167 34.6285C78.8167 28.4914 83.8404 23.4879 90.0001 23.4879C96.1602 23.4879 101.183 28.4914 101.183 34.6285C101.183 40.7647 96.1602 45.7686 90.0001 45.7686Z" fill="#E21C2A"/>
</svg>
