<svg width="120" height="70" viewBox="0 0 120 70" fill="none" xmlns="http://www.w3.org/2000/svg">
<path d="M21.6166 33.9116C21.6035 33.4963 21.4069 33.2806 21.0252 33.2662H18.9908C18.509 33.2955 18.2615 33.561 18.2483 34.0572V37.7173C18.2615 38.2303 18.5353 38.4915 19.0711 38.5077H20.9359C21.1295 38.5077 21.29 38.4352 21.4189 38.2878C21.5525 38.1781 21.6166 38.0367 21.6166 37.8617V33.9116ZM15.6362 33.3926C15.65 32.4776 15.8538 31.7807 16.2493 31.3055C16.456 31.1053 16.7161 30.9381 17.0313 30.8003C17.3584 30.6541 17.676 30.584 17.9846 30.584H21.7191C23.367 30.5972 24.2041 31.4984 24.2317 33.2878V38.7972C24.2185 39.4323 23.9704 39.9842 23.4875 40.4457C23.0117 40.9304 22.443 41.1773 21.7808 41.1917H18.2483V45.1629H15.6362V33.3926Z" fill="#198FCD"/>
<path d="M28.9468 37.9762C28.9468 38.129 29.0169 38.2506 29.1559 38.3405C29.2788 38.4508 29.4334 38.5077 29.6293 38.5077H31.6368C32.0904 38.5077 32.3259 38.3315 32.3391 37.9762V37.2265C32.3391 36.8173 32.1 36.6111 31.6176 36.6111H29.6293C29.368 36.6111 29.1883 36.6549 29.087 36.7364C28.9941 36.8346 28.9468 37.0252 28.9468 37.3086V37.9762ZM32.3391 33.848C32.3523 33.4459 32.1191 33.2542 31.6356 33.2674H26.3736V30.584H32.2989C34.0241 30.611 34.9002 31.4457 34.9296 33.0912V38.7055C34.9152 39.4168 34.6977 40.001 34.2764 40.4672C33.8348 40.9496 33.2661 41.1923 32.5692 41.1923H28.9863C27.2443 41.1773 26.3605 40.3815 26.3335 38.799V36.6327C26.3467 34.98 27.1916 34.1399 28.8629 34.1111H32.3391V33.848Z" fill="#198FCD"/>
<path d="M42.268 42.4813C42.476 42.4675 42.6539 42.3932 42.8007 42.2596C42.9404 42.1349 43.0111 41.9923 43.0111 41.8299V41.1935H39.6655C39.2287 41.1935 38.8793 41.1372 38.6193 41.0263C38.3454 40.9256 38.0704 40.7381 37.7959 40.4714C37.534 40.188 37.3465 39.8926 37.2326 39.5834C37.1134 39.3017 37.0522 38.9404 37.0522 38.5089V30.584H39.6655V37.6574C39.6655 38.2255 39.8968 38.5089 40.3654 38.5089H42.2099C42.4292 38.5089 42.6204 38.4364 42.7798 38.289C42.9332 38.1656 43.0111 38.0181 43.0111 37.8438V30.584H45.6016V42.2745C45.5866 43.1392 45.3649 43.8326 44.937 44.3575C44.502 44.883 43.9087 45.1509 43.1519 45.1641H37.0522V42.4813H42.268Z" fill="#198FCD"/>
<path d="M47.6533 38.5077H52.3094C52.7355 38.4921 52.9566 38.322 52.9692 37.9948V37.7545C52.9692 37.6838 52.9482 37.6065 52.9086 37.5232C52.8038 37.3206 52.6761 37.22 52.5245 37.22H50.2157C49.5319 37.2056 48.9465 36.9707 48.4551 36.5141C47.9583 36.094 47.7031 35.5756 47.6899 34.968V32.9672C47.7162 31.4049 48.5642 30.6104 50.236 30.584H55.6358V33.2662H51.0612C50.5231 33.2662 50.2534 33.4316 50.2534 33.76V34.02C50.2534 34.3604 50.5303 34.5312 51.0804 34.5312H53.3814C53.9945 34.545 54.517 34.7799 54.9532 35.2377C55.3937 35.6991 55.6208 36.2468 55.6358 36.8838V38.8421C55.6208 39.3928 55.3673 39.9411 54.8777 40.4894C54.638 40.7579 54.3942 40.9424 54.1509 41.0473C53.8974 41.1432 53.5546 41.1917 53.116 41.1917H47.6533V38.5077Z" fill="#198FCD"/>
<path d="M60.1066 37.9762C60.1066 38.129 60.1767 38.2506 60.3187 38.3405C60.4398 38.4508 60.5962 38.5077 60.7891 38.5077H62.799C63.2544 38.5077 63.4875 38.3315 63.5013 37.9762V37.2265C63.5013 36.8173 63.258 36.6111 62.778 36.6111H60.7891C60.5279 36.6111 60.3487 36.6549 60.248 36.7364C60.1557 36.8346 60.1066 37.0252 60.1066 37.3086V37.9762ZM63.5013 33.848C63.5127 33.4459 63.2784 33.2542 62.7966 33.2662H57.5347V30.584H63.4605C65.1857 30.6104 66.0612 31.4445 66.0888 33.0912V38.7055C66.075 39.4168 65.8551 40.001 65.4362 40.4672C64.9976 40.9496 64.4277 41.1917 63.7296 41.1917H60.1467C58.4042 41.1773 57.5197 40.3815 57.4951 38.799V36.6327C57.5065 34.98 58.3502 34.1393 60.0245 34.1111H63.5013V33.848Z" fill="#198FCD"/>
<path d="M68.2124 29.0605C68.2292 28.336 68.4952 27.7541 69.0196 27.3179C69.5271 26.8751 70.1929 26.6479 71.018 26.6348H72.6779V29.2283H71.673C71.1199 29.2397 70.8383 29.5045 70.8275 30.0157V30.5837H72.6779V33.2695H70.8275V41.1927H68.2124V29.0605Z" fill="#198FCD"/>
<path d="M80.1089 33.7983V33.736C80.1089 33.5982 80.0538 33.4807 79.9405 33.3938C79.8189 33.3093 79.6697 33.2674 79.4911 33.2674H77.6718C77.4393 33.2674 77.2511 33.3333 77.1055 33.4675C76.9246 33.591 76.8323 33.754 76.8323 33.9553V35.0321L80.1089 33.7983ZM76.8742 37.5933V37.7593C76.8742 37.9756 76.93 38.1452 77.0438 38.2686C77.1259 38.428 77.2362 38.5089 77.383 38.5089H82.751V41.1929H77.0438C76.5231 41.1929 76.1174 41.1432 75.8303 41.0467C75.5163 40.9436 75.2359 40.774 74.9896 40.5403C74.7026 40.2557 74.5066 39.9669 74.4084 39.6696C74.3011 39.3592 74.2472 38.947 74.2472 38.434L74.2256 33.0612C74.2543 31.4379 75.1017 30.6115 76.7694 30.584H80.2899C81.918 30.6115 82.7426 31.4673 82.7683 33.1523V35.2754L76.8742 37.5933Z" fill="#198FCD"/>
<path d="M88.2989 41.1927C87.9028 41.1927 87.5414 41.1562 87.2137 41.0896C86.8709 41.0333 86.5287 40.8733 86.1788 40.6049C85.8198 40.2933 85.5723 39.9433 85.4369 39.5556C85.2937 39.1751 85.2242 38.7454 85.2242 38.26V33.251C85.2092 32.8423 85.2506 32.4834 85.3458 32.173C85.4345 31.8614 85.6179 31.5581 85.8971 31.2615C86.2147 30.9475 86.5401 30.7408 86.8823 30.6383C87.2125 30.5556 87.5834 30.5137 87.9999 30.5137H92.004V31.1417H88.0921C87.4024 31.1417 86.8589 31.2837 86.4622 31.5677C86.0559 31.8781 85.8492 32.4121 85.8492 33.1647V38.1773C85.8492 38.5303 85.9031 38.8725 86.0098 39.2032C86.1206 39.5298 86.3022 39.8139 86.5653 40.0643C86.8493 40.2807 87.1334 40.4149 87.4096 40.4706C87.6984 40.5329 88.0071 40.5635 88.3342 40.5635H92.0669V41.1927H88.2989Z" fill="#198FCD"/>
<path d="M102.304 34.6934H97.0533C96.4247 34.7071 95.9334 34.9019 95.5774 35.2758C95.2107 35.6551 95.0291 36.1777 95.0291 36.8404V38.4386C95.0291 38.7496 95.0615 39.0325 95.128 39.2871C95.1945 39.5556 95.3593 39.7953 95.6194 40.0026C96.0736 40.3783 96.5751 40.5641 97.124 40.5641H100.305C101.635 40.5503 102.304 39.8498 102.304 38.459V34.6934ZM102.927 38.3026C102.927 38.7053 102.898 39.0606 102.846 39.371C102.76 39.7102 102.587 40.0374 102.323 40.3472C101.774 40.9248 101.095 41.2065 100.284 41.1921H97.1618C96.351 41.1921 95.6937 40.95 95.1837 40.4676C94.6642 39.99 94.3999 39.3285 94.3999 38.4776V36.8644C94.4269 35.0415 95.3353 34.1085 97.1228 34.0666H102.323V33.3595C102.323 32.7776 102.155 32.267 101.819 31.8284C101.606 31.5438 101.354 31.3544 101.068 31.2549C100.779 31.1794 100.454 31.1417 100.092 31.1417H94.4191V30.5137H99.7972C100.289 30.5137 100.734 30.5484 101.137 30.6167C101.343 30.6581 101.531 30.7378 101.706 30.8546C101.889 30.9655 102.061 31.1291 102.221 31.3412C102.702 31.9632 102.938 32.6811 102.927 33.4901V38.3026Z" fill="#198FCD"/>
<path d="M108.799 31.1405C107.342 31.1674 106.625 31.962 106.652 33.526V41.1909H106.026V33.5284C105.997 31.5168 106.954 30.5137 108.899 30.5137H109.594V31.1405H108.799Z" fill="#198FCD"/>
<path d="M119.374 31.1445H114.426C114.069 31.1445 113.749 31.1846 113.461 31.2601C113.16 31.3285 112.869 31.5118 112.597 31.8096C112.335 32.0805 112.172 32.349 112.102 32.6174C112.01 32.8883 111.969 33.2143 111.984 33.593V38.4804C111.984 39.2923 112.219 39.846 112.697 40.1421C112.931 40.2805 113.19 40.3836 113.48 40.4531C113.77 40.5298 114.091 40.5675 114.446 40.5675H116.609C117.416 40.5675 118.078 40.3818 118.586 40.006C119.096 39.6549 119.357 39.0473 119.374 38.1814V31.1445ZM120 38.2245C119.944 40.2469 118.872 41.2375 116.788 41.1955H114.469C113.978 41.1955 113.54 41.1536 113.153 41.0721C112.754 40.9678 112.372 40.7257 112.006 40.3464C111.728 40.006 111.551 39.6621 111.48 39.3091C111.384 38.9574 111.343 38.5655 111.357 38.1382V33.5768C111.384 31.5226 112.42 30.5015 114.464 30.5177H119.374V27.0547H120V38.2245Z" fill="#198FCD"/>
<path d="M1.12254 30.1795C1.32748 30.089 1.53302 30.0183 1.73736 29.9745C2.11488 28.1738 3.70946 26.8219 5.62223 26.8219C7.535 26.8219 9.13077 28.1756 9.50649 29.9757C10.0943 30.0872 10.5797 30.3251 10.9578 30.6781C10.9734 30.3323 10.9602 29.9991 10.9189 29.6851C10.6762 26.9646 8.3949 24.8301 5.61384 24.8301C2.74947 24.8301 0.419035 27.0994 0.297988 29.9374C0.28121 30.1819 0.276416 30.4372 0.284805 30.7038C0.524501 30.5019 0.799551 30.3197 1.12254 30.1795Z" fill="#C32026"/>
<path d="M8.73031 30.584H2.34842C2.04101 30.584 1.72341 30.6553 1.39623 30.8015C1.08043 30.9405 0.820358 31.1065 0.613621 31.3055C0.216925 31.7819 0.0137825 32.4782 0 33.3932V38.3825C0.0137825 39.2993 0.216925 39.9944 0.613621 40.469C0.820358 40.6704 1.08043 40.8382 1.39623 40.9766C1.72341 41.1204 2.04101 41.1935 2.34842 41.1935H8.73031C10.3782 41.1785 11.2172 40.2743 11.2429 38.4873V33.2901C11.2172 31.4996 10.3782 30.599 8.73031 30.584Z" fill="#C32026"/>
</svg>
