<svg width="120" height="70" viewBox="0 0 120 70" fill="none" xmlns="http://www.w3.org/2000/svg">
<path d="M78.6348 40.3392L79.544 40.614C79.4829 40.8689 79.3867 41.0819 79.2554 41.2529C79.1241 41.4239 78.9608 41.5529 78.7653 41.6399C78.5714 41.727 78.3241 41.7705 78.0233 41.7705C77.6585 41.7705 77.36 41.7178 77.1279 41.6125C76.8974 41.5056 76.6981 41.3186 76.5302 41.0514C76.3623 40.7842 76.2783 40.4422 76.2783 40.0254C76.2783 39.4697 76.4256 39.043 76.7203 38.7453C77.0165 38.446 77.4348 38.2964 77.9753 38.2964C78.3982 38.2964 78.7302 38.3819 78.9714 38.5529C79.2142 38.7239 79.3943 38.9865 79.5119 39.3407L78.5959 39.5445C78.5638 39.4422 78.5302 39.3674 78.4951 39.3201C78.4371 39.2407 78.3661 39.1796 78.2821 39.1369C78.1982 39.0941 78.1043 39.0727 78.0004 39.0727C77.7653 39.0727 77.5852 39.1674 77.46 39.3567C77.3653 39.4972 77.318 39.7178 77.318 40.0186C77.318 40.3911 77.3745 40.6468 77.4875 40.7857C77.6004 40.9231 77.7592 40.9918 77.9638 40.9918C78.1623 40.9918 78.3119 40.9361 78.4127 40.8247C78.515 40.7132 78.589 40.5514 78.6348 40.3392ZM79.9195 40.0346C79.9195 39.4865 80.0722 39.0598 80.3776 38.7544C80.6829 38.4491 81.1081 38.2964 81.6531 38.2964C82.2119 38.2964 82.6425 38.4468 82.9448 38.7476C83.2471 39.0468 83.3982 39.4666 83.3982 40.0071C83.3982 40.3995 83.3318 40.7216 83.199 40.9735C83.0677 41.2239 82.8768 41.4193 82.6264 41.5598C82.3776 41.6987 82.0669 41.7682 81.6944 41.7682C81.3157 41.7682 81.002 41.7079 80.7531 41.5873C80.5058 41.4667 80.305 41.2758 80.1508 41.0147C79.9966 40.7537 79.9195 40.427 79.9195 40.0346ZM80.957 40.0392C80.957 40.3781 81.0196 40.6216 81.1447 40.7697C81.2715 40.9178 81.4432 40.9918 81.66 40.9918C81.8829 40.9918 82.0554 40.9193 82.1776 40.7743C82.2997 40.6292 82.3608 40.3689 82.3608 39.9934C82.3608 39.6773 82.2967 39.4468 82.1684 39.3018C82.0417 39.1552 81.8692 39.0819 81.6509 39.0819C81.4417 39.0819 81.2738 39.156 81.147 39.304C81.0203 39.4521 80.957 39.6972 80.957 40.0392ZM83.9455 38.3537H85.3104L85.8371 40.3964L86.3616 38.3537H87.7219V41.7109H86.8746V39.1506L86.2173 41.7109H85.4501L84.7952 39.1506V41.7109H83.9455V38.3537ZM88.3814 38.3537H90.1059C90.4815 38.3537 90.7624 38.443 90.9486 38.6216C91.1364 38.8002 91.2303 39.0544 91.2303 39.3842C91.2303 39.7231 91.128 39.988 90.9234 40.1789C90.7204 40.3697 90.4097 40.4651 89.9914 40.4651H89.4234V41.7109H88.3814V38.3537ZM89.4234 39.785H89.6776C89.8776 39.785 90.0181 39.7506 90.099 39.6819C90.1799 39.6117 90.2204 39.5224 90.2204 39.414C90.2204 39.3086 90.1853 39.2193 90.115 39.146C90.0448 39.0727 89.9128 39.0361 89.7189 39.0361H89.4234V39.785ZM91.7754 38.3537H92.8128V40.8842H94.4319V41.7109H91.7754V38.3537ZM94.9449 38.3537H95.9846V41.7109H94.9449V38.3537ZM98.7968 41.1567H97.6151L97.4525 41.7109H96.3922L97.654 38.3537H98.7853L100.047 41.7109H98.9617L98.7968 41.1567ZM98.5792 40.4308L98.2082 39.2239L97.8395 40.4308H98.5792ZM100.388 38.3537H101.357L102.621 40.2109V38.3537H103.599V41.7109H102.621L101.364 39.8674V41.7109H100.388V38.3537ZM104.053 38.3537H107.206V39.1827H106.148V41.7109H105.111V39.1827H104.053V38.3537Z" fill="#225E63"/>
<path fill-rule="evenodd" clip-rule="evenodd" d="M65.9584 43.8695L69.0187 42.8625L68.0279 40.5578C67.2912 41.5075 66.5654 42.7352 65.9584 43.8695ZM64.9161 33.3199L58.9149 19.3613L14.9819 21.9657L27.1532 56.6385L50.5834 48.9287C49.0981 46.6922 48.547 44.0338 50.2695 42.7343C52.1976 41.2799 55.0983 42.962 56.9617 45.3536C58.75 42.2162 63.7676 34.9707 64.9161 33.3199Z" fill="#225E63"/>
<path fill-rule="evenodd" clip-rule="evenodd" d="M57.5483 29.4484C59.3873 29.4484 60.8781 27.9804 60.8781 26.1695C60.8781 24.3586 59.3873 22.8906 57.5483 22.8906C55.7093 22.8906 54.2185 24.3586 54.2185 26.1695C54.2185 27.9804 55.7093 29.4484 57.5483 29.4484ZM54.8239 30.8705H60.2726V45.7243H54.8239V30.8705Z" fill="#FEFEFE"/>
<path fill-rule="evenodd" clip-rule="evenodd" d="M52.1387 35.2047C52.1777 35.2286 52.2093 35.2091 52.2093 35.1622V31.3992C52.2093 31.3518 52.1782 31.2944 52.1374 31.2717C52.1374 31.2717 51.4228 30.7854 49.2418 30.6499C49.1253 30.5827 47.2273 30.5728 46.7006 30.6499C38.7766 31.3134 38.4827 37.2986 38.4827 37.572V39.0261C38.4827 39.2046 38.4827 45.3239 46.7003 45.8665C47.5031 45.9302 49.0761 45.8665 49.2415 45.8665C51.1341 45.8665 52.4457 45.2714 52.4457 45.2714C52.4874 45.2538 52.5212 45.2005 52.5212 45.1536V41.6304C52.5212 41.5829 52.4911 41.5661 52.4518 41.5911C52.4518 41.5911 51.8636 42.0847 49.2769 42.3481C48.5436 42.4342 48.1957 42.3938 47.9314 42.3481C44.2639 41.7042 44.0893 38.8987 44.0893 38.8987C44.0843 38.8523 44.0802 38.776 44.0802 38.729V37.6544C44.0802 37.6071 44.0844 37.5307 44.0907 37.4842C44.0907 37.4842 44.3386 34.4787 47.9315 34.1617H49.2771C50.8641 34.3854 52.1387 35.2047 52.1387 35.2047Z" fill="#FEFEFE"/>
<path fill-rule="evenodd" clip-rule="evenodd" d="M23.3674 45.6666C23.3674 45.7138 23.4038 45.7521 23.449 45.7521H28.7569C28.802 45.7521 28.8385 45.7134 28.8385 45.6666V41.3559C28.8385 41.3087 28.8748 41.2728 28.9205 41.2754C28.9205 41.2754 37.3929 41.9154 37.3929 35.9774C37.3929 31.292 32.0773 30.7779 30.3272 30.8637C30.292 30.8654 23.4504 30.8637 23.4504 30.8637C23.4048 30.8637 23.3678 30.9025 23.3678 30.9492L23.3674 45.6666ZM28.744 37.9831V34.0993H30.0429C30.0429 34.0993 31.9317 34.188 32.0788 35.5296C32.1131 35.6345 32.1048 36.2912 32.0786 36.3274C31.8352 37.9061 30.1942 37.9834 30.1942 37.9834L28.744 37.9831Z" fill="#FEFEFE"/>
<path fill-rule="evenodd" clip-rule="evenodd" d="M57.6985 52.8948C58.1413 52.8948 58.4805 52.8948 59.0403 52.6355C60.9749 51.5734 67.4868 34.97 74.3551 29.863C74.3969 29.8303 74.4531 29.7826 74.4855 29.7341C74.5306 29.6668 74.5324 29.5981 74.5324 29.5981C74.5324 29.5981 74.5324 29.2556 73.5141 29.2556C67.3996 29.0816 61.0411 42.4641 57.6985 47.7589C57.6568 47.8172 57.4269 47.7589 57.4269 47.7589C57.4269 47.7589 55.187 45.0003 53.2411 43.9414C53.2005 43.9194 52.9791 43.8489 52.7494 43.8667C52.5955 43.8667 51.6904 44.0569 51.2687 44.5215C50.7702 45.0706 50.7805 45.3787 50.7849 46.0469C50.7853 46.1014 50.8187 46.3214 50.8805 46.4341C51.3562 47.3026 53.5293 50.4222 55.31 52.1432C55.5855 52.3479 56.0047 52.8948 57.6985 52.8948Z" fill="#2BBC5D"/>
<path d="M76.1441 26.4244H81.1398C82.1246 26.4244 82.9189 26.558 83.5226 26.8253C84.1313 27.0925 84.6336 27.476 85.0295 27.9758C85.4254 28.4757 85.7124 29.0571 85.8906 29.7203C86.0687 30.3834 86.1578 31.0861 86.1578 31.8284C86.1578 32.9914 86.0242 33.8945 85.757 34.5378C85.4947 35.1762 85.1285 35.7132 84.6583 36.1486C84.1882 36.5792 83.6834 36.8662 83.144 37.0097C82.4067 37.2077 81.7386 37.3066 81.1398 37.3066H76.1441V26.4244ZM79.5067 28.8889V34.8348H80.3307C81.0334 34.8348 81.5332 34.7581 81.8302 34.6046C82.1271 34.4463 82.3597 34.1741 82.5279 33.7881C82.6962 33.3972 82.7803 32.7662 82.7803 31.8952C82.7803 30.7422 82.5923 29.9529 82.2162 29.5273C81.84 29.1017 81.2165 28.8889 80.3455 28.8889H79.5067ZM87.3455 33.7065L90.5448 33.506C90.6141 34.0256 90.7552 34.4215 90.9679 34.6937C91.3144 35.1342 91.8092 35.3544 92.4526 35.3544C92.9326 35.3544 93.3013 35.243 93.5586 35.0203C93.8209 34.7927 93.952 34.5304 93.952 34.2335C93.952 33.9514 93.8283 33.699 93.5809 33.4763C93.3334 33.2536 92.7594 33.0433 91.8587 32.8454C90.384 32.5138 89.3324 32.0734 88.7039 31.5241C88.0705 30.9748 87.7538 30.2745 87.7538 29.4233C87.7538 28.8641 87.9146 28.3371 88.2363 27.8422C88.5629 27.3424 89.0503 26.9515 89.6986 26.6694C90.3518 26.3824 91.2451 26.2388 92.3783 26.2388C93.7689 26.2388 94.8279 26.4987 95.5554 27.0183C96.2878 27.5329 96.7233 28.3544 96.8619 29.4827L93.6922 29.6683C93.6081 29.1784 93.4299 28.8221 93.1578 28.5994C92.8905 28.3767 92.5194 28.2653 92.0443 28.2653C91.6533 28.2653 91.3589 28.3495 91.1609 28.5177C90.963 28.681 90.864 28.8815 90.864 29.119C90.864 29.2922 90.9457 29.4481 91.109 29.5867C91.2673 29.7302 91.6434 29.8638 92.2373 29.9875C93.7071 30.3042 94.7587 30.6259 95.3921 30.9525C96.0305 31.2742 96.4932 31.675 96.7802 32.155C97.0722 32.6351 97.2182 33.172 97.2182 33.7658C97.2182 34.4636 97.0252 35.1069 96.6392 35.6958C96.2532 36.2847 95.7138 36.7326 95.0209 37.0394C94.3281 37.3413 93.4547 37.4922 92.4006 37.4922C90.5498 37.4922 89.2681 37.1359 88.5554 36.4233C87.8428 35.7107 87.4395 34.8051 87.3455 33.7065Z" fill="#225E63"/>
<path d="M98.2062 33.7065L101.406 33.506C101.475 34.0256 101.616 34.4215 101.829 34.6937C102.175 35.1342 102.67 35.3544 103.313 35.3544C103.793 35.3544 104.162 35.243 104.419 35.0203C104.682 34.7927 104.813 34.5304 104.813 34.2335C104.813 33.9514 104.689 33.699 104.442 33.4763C104.194 33.2536 103.62 33.0433 102.719 32.8454C101.245 32.5138 100.193 32.0734 99.5647 31.5241C98.9312 30.9748 98.6145 30.2745 98.6145 29.4233C98.6145 28.8641 98.7753 28.3371 99.097 27.8422C99.4236 27.3424 99.9111 26.9515 100.559 26.6694C101.213 26.3824 102.106 26.2388 103.239 26.2388C104.63 26.2388 105.689 26.4987 106.416 27.0183C107.149 27.5329 107.584 28.3544 107.723 29.4827L104.553 29.6683C104.469 29.1784 104.291 28.8221 104.018 28.5994C103.751 28.3767 103.38 28.2653 102.905 28.2653C102.514 28.2653 102.22 28.3495 102.022 28.5177C101.824 28.681 101.725 28.8815 101.725 29.119C101.725 29.2922 101.806 29.4481 101.97 29.5867C102.128 29.7302 102.504 29.8638 103.098 29.9875C104.568 30.3042 105.619 30.6259 106.253 30.9525C106.891 31.2742 107.354 31.675 107.641 32.155C107.933 32.6351 108.079 33.172 108.079 33.7658C108.079 34.4636 107.886 35.1069 107.5 35.6958C107.114 36.2847 106.575 36.7326 105.882 37.0394C105.189 37.3413 104.315 37.4922 103.261 37.4922C101.411 37.4922 100.129 37.1359 99.4162 36.4233C98.7036 35.7107 98.3003 34.8051 98.2062 33.7065Z" fill="#225E63"/>
</svg>
