<svg width="120" height="70" viewBox="0 0 120 70" fill="none" xmlns="http://www.w3.org/2000/svg">
<path d="M19 48.6458V23.0322H25.6385C28.0805 23.0322 30.3682 22.976 31.5331 23.1866C32.698 23.3971 34.2278 23.9585 35.0137 24.4637C36.0804 25.1093 36.8804 26.0777 37.4418 27.3549C38.0032 28.6321 38.2698 30.1619 38.2698 31.9303C38.2698 34.8495 37.6383 37.1372 36.0944 38.653C34.5506 40.1687 31.1401 40.8143 28.1647 40.8143H26.4665V48.6317H19V48.6458ZM26.4244 36.1267C26.5227 36.1407 26.5367 36.1407 26.7753 36.1547C29.091 36.239 29.6945 35.6635 30.0594 35.2285C30.6068 34.5548 30.6208 33.039 30.6208 31.6355C30.6208 30.4706 30.6629 29.5163 29.8209 28.604C29.2735 28.0005 27.9121 27.804 26.4244 27.804L26.4385 28.2251V36.1267H26.4244Z" fill="black"/>
<path d="M87.3075 48.5326H70.5078V22.877H78.7884V40.8415H87.3075V48.5326Z" fill="black"/>
<path d="M96.683 31.7324H88.7393V48.5742H96.683V31.7324Z" fill="black"/>
<path d="M96.7386 22.9883H88.6265V29.9496H96.7386V22.9883Z" fill="black"/>
<path d="M100.262 46.0762H97.918V46.5674H98.7881V48.434H99.3916V46.5674H100.262V46.0762Z" fill="black"/>
<path fill-rule="evenodd" clip-rule="evenodd" d="M59.364 46.7644C60.4306 46.3855 61.4832 45.5715 62.3955 44.7434C64.9639 42.4136 67.6586 38.4418 67.448 33.6138C67.2235 28.5332 64.5007 25.2771 60.8797 23.242C61.9324 23.4666 62.7885 24.1683 63.6025 24.828C65.9323 26.7087 67.7007 29.6279 67.7708 33.7401C67.8691 39.1997 64.9639 42.9329 62.0867 45.5013C62.985 45.0522 63.6867 44.2241 64.3604 43.4101C66.2691 41.1224 68.0235 37.8663 68.0235 33.7962C68.0235 28.07 64.7814 24.7718 61.0061 22.6105C62.2552 22.9754 63.3639 23.7192 64.2902 24.5052C66.5779 26.442 68.6129 29.8525 68.3322 34.3717C68.0656 38.8347 66.0867 42.3575 63.406 44.9259C60.7254 47.4942 57.0482 49.3328 52.7817 49.7258C52.3606 49.7679 51.701 49.7679 51.1957 49.7258C44.5993 49.1784 39.8135 44.9539 39.3082 38.4698C39.2521 37.7962 39.2521 37.1365 39.3082 36.4488C39.6029 32.3647 41.4275 29.1086 43.8555 26.5823C46.494 23.8455 49.8203 21.7824 54.4658 21.4596C54.5781 20.9544 54.7185 20.3649 54.7886 20C56.3184 21.628 58.171 23.3964 60.0938 25.3052C57.778 26.4841 55.5325 27.7332 53.2729 28.9683C53.329 28.5051 53.4273 27.9718 53.4553 27.635C49.5677 28.3227 46.2976 31.1437 45.6239 35.0874C44.7958 39.9014 48.0098 43.5926 52.6413 43.6206C57.3149 43.6487 61.2868 40.0417 61.9885 35.9155C62.5639 32.5752 61.0903 30.2454 59.2096 28.7156C60.964 29.8805 62.8727 31.9717 62.6201 35.1015C62.2271 39.9856 57.6377 44.0417 52.8238 44.0697C50.1992 44.0838 47.8554 42.9189 46.1853 40.968C47.7572 43.2557 50.508 44.4627 53.6378 44.2522C56.0939 44.0838 58.171 42.8768 59.7008 41.4031C61.2727 39.9014 62.4797 37.8102 62.8025 35.6488C62.9148 34.8348 62.9288 33.9226 62.8025 33.0524C62.4236 30.5261 60.8797 29.3472 59.4763 27.7332C61.4692 29.3332 63.5744 31.4524 63.4341 34.891C63.2236 39.9154 58.4237 44.3504 53.3851 44.6873C50.087 44.9118 48.0519 43.789 46.3116 42.161C47.9677 44.2522 51.0694 45.3329 54.3395 44.8136C58.985 44.0838 63.1253 40.2102 63.6306 35.3962C64.0797 31.0594 61.8903 29.0384 59.785 26.9051C62.0166 28.6034 63.9253 30.47 64.0657 33.9366C64.192 36.94 62.7183 39.8874 60.8376 41.768C57.8342 44.7715 51.9817 46.7504 47.4344 43.9855C51.308 46.9469 57.3149 45.2487 60.5148 42.3435C62.8306 40.2382 64.5288 37.4313 64.2481 33.2489C64.0235 29.8805 62.1148 28.1542 59.9534 26.3578C62.185 27.4946 64.3183 29.7823 64.627 33.0524C65.0341 37.3471 63.0551 40.533 60.6412 42.6522C57.7359 45.2206 53.6378 46.7504 49.0063 45.5574C56.6412 47.9434 63.785 42.2592 64.8095 35.705C65.5393 30.9893 63.1253 28.2104 60.8236 26.2174C60.585 26.0209 60.4587 25.8666 60.1359 25.5859C63.42 27.2981 66.1428 31.0594 65.0621 36.3927C63.813 42.5961 57.5956 47.6346 49.5817 46.3153C50.7466 46.7785 52.108 46.6802 53.2869 46.6241C56.936 46.4276 60.2341 44.6031 62.0025 42.6382C64.1499 40.2523 65.8481 37.2488 65.5112 32.912C65.2165 28.9963 63.0271 27.1157 60.3464 25.0385C61.4692 25.4455 62.4516 26.2315 63.2516 27.1157C64.599 28.5753 65.6937 30.5682 65.8761 33.0524C66.1989 37.5155 64.1499 40.8417 61.8903 43.1715C59.4903 45.6557 56.2342 47.2416 52.0939 47.2837C58.578 47.4802 62.9008 43.4943 64.9919 39.0733C66.1849 36.533 66.5358 32.9542 65.5674 30.1612C64.6691 27.5788 62.606 25.8104 60.571 24.3789C64.1218 26.2736 67.0972 29.8244 66.4516 35.3401C66.213 37.4313 65.5393 39.1435 64.599 40.7154C62.6622 43.9575 59.5043 46.2451 55.9535 47.4802C58.578 46.9048 61.0762 45.3329 62.9008 43.3119C65.1463 40.8277 66.8726 37.6839 66.7603 33.3331C66.634 28.6314 63.7288 25.9227 60.7534 23.7894C60.7955 23.7894 60.8517 23.8175 60.8657 23.8175C64.1078 25.4034 66.5639 28.1683 67.0691 32.4489C67.9533 39.2558 63.4902 44.1961 59.364 46.7644Z" fill="#2F4398"/>
<path d="M102.62 48.4761V47.3393L102.283 47.9147L101.904 47.9007L101.567 47.3393V48.4761H100.978V46.0762H101.553L102.086 47.1288L102.634 46.0762H103.209V48.4761H102.62Z" fill="black"/>
</svg>
