<svg width="120" height="70" viewBox="0 0 120 70" fill="none" xmlns="http://www.w3.org/2000/svg">
<path d="M46.7414 24.0391V28.3444C46.7414 28.519 46.7996 28.5578 46.9548 28.5578H49.3596C49.5341 28.5578 49.5923 28.5965 49.5923 28.7711C49.5729 29.2365 49.5729 29.702 49.5923 30.1674C49.5923 30.3613 49.5341 30.3807 49.3596 30.3807H46.9548C46.7996 30.3807 46.7414 30.4195 46.7414 30.5941V36.4121C46.7414 36.6448 46.7608 36.8582 46.819 37.0909C46.9935 38.1381 47.905 38.8945 48.9523 38.8945C49.185 38.9139 49.4177 38.9139 49.6311 38.8945C49.7474 38.8945 49.7668 38.8945 49.7668 39.0109V40.7369C49.7668 40.8145 49.7668 40.8726 49.6505 40.892C48.2929 41.0084 46.9935 40.8532 45.8493 39.9999C44.9766 39.3211 44.6081 38.3709 44.4918 37.3042C44.453 36.9357 44.4336 36.5673 44.453 36.1988V30.6716C44.453 30.4583 44.3948 30.4195 44.2009 30.4195C43.8324 30.4389 43.4639 30.4195 43.0954 30.4195C42.9597 30.4195 42.9209 30.3807 42.9209 30.245V28.7517C42.9209 28.6159 42.9791 28.5771 43.0954 28.5965C43.4639 28.5965 43.8324 28.5771 44.2009 28.5965C44.453 28.6159 44.5306 28.5577 44.5306 28.2862C44.5112 26.9869 44.5306 25.6681 44.5306 24.3688C44.5306 24.2718 44.55 24.1942 44.55 24.0972L46.7414 24.0391Z" fill="#284F9B"/>
<path d="M30.1019 24.0388C30.2958 24.0776 30.3346 24.2133 30.3346 24.3879C30.3152 24.8533 30.3152 25.3382 30.3346 25.8036C30.3346 25.9781 30.3152 26.0363 30.1213 26.0169C29.6365 25.9587 29.1516 26.0169 28.7056 26.1527C27.7747 26.5018 27.1929 27.4133 27.2899 28.4023C27.3092 28.5575 27.4062 28.5187 27.4838 28.5187H29.8304C30.0243 28.5187 30.0825 28.5769 30.0825 28.7708C30.0631 29.2169 30.0631 29.6629 30.0825 30.109C30.0825 30.3029 30.0437 30.3611 29.8498 30.3417C29.0934 30.3223 28.3177 30.3417 27.542 30.3417C27.3286 30.3417 27.2705 30.3805 27.2705 30.5938C27.2705 33.9101 27.2705 37.2264 27.2705 40.5233C27.2705 40.9112 27.3286 40.853 26.9408 40.853C26.3978 40.853 25.8547 40.8336 25.3311 40.853C25.079 40.853 25.0596 40.7754 25.0596 40.5621V30.652C25.0596 30.3805 25.0014 30.3029 24.7299 30.3223C24.4002 30.3417 24.0705 30.3223 23.7408 30.3223C23.6245 30.3223 23.5857 30.3029 23.5857 30.1671V28.6544C23.5857 28.5381 23.6245 28.4993 23.7408 28.4993H24.8269C25.0014 28.4993 25.0596 28.4605 25.0596 28.286C25.0402 27.5684 25.176 26.8702 25.4669 26.2109C26.0293 24.9697 27.0377 24.3491 28.3371 24.097C28.4923 24.097 28.628 24.0582 28.7638 24L30.1019 24.0388Z" fill="#284F9B"/>
<path d="M40.4971 37.557C40.788 38.0612 41.0401 38.5461 41.331 39.0115C41.4086 39.0891 41.4086 39.2248 41.331 39.3024C41.3116 39.3218 41.2922 39.3412 41.2534 39.3606C40.4195 40.02 39.4498 40.4854 38.422 40.6987C36.4632 41.1254 34.6209 40.8539 32.9918 39.6515C31.5373 38.5848 30.8003 37.0915 30.6452 35.3267C30.4707 33.8916 30.8003 32.4177 31.5373 31.1765C32.4876 29.6444 33.9033 28.7911 35.6875 28.5778C36.7929 28.4032 37.9178 28.5778 38.9068 29.0626C40.3807 29.819 41.1371 31.0796 41.4668 32.6504C41.6025 33.3486 41.6219 34.0468 41.5637 34.7643C41.5443 34.9583 41.4862 35.0164 41.2728 35.0164H33.2439C33.0112 35.0164 32.953 35.0746 32.9724 35.3073C33.0888 37.3049 34.7178 38.8758 36.7154 38.9145C37.9759 38.9533 39.2171 38.5461 40.2256 37.7703C40.3032 37.7121 40.4001 37.6346 40.4971 37.557Z" fill="#284F9B"/>
<path d="M19.5904 38.5831C19.4547 38.7965 19.3189 39.0292 19.1638 39.2231C18.1941 40.4837 16.8947 40.9879 15.3239 40.8522C14.4899 40.794 13.6948 40.4837 13.0548 39.9795C11.5809 38.7771 11.3676 36.5856 12.57 35.1117C12.7445 34.8984 12.9385 34.7044 13.1518 34.5493C14.0245 33.9093 15.0136 33.6378 16.0608 33.4439C17.0887 33.2693 18.1359 33.2111 19.1832 33.2305C19.3771 33.2305 19.4159 33.1724 19.4159 32.9978C19.4159 32.7457 19.3771 32.4742 19.3383 32.2221C19.1056 31.136 18.3686 30.5348 17.205 30.4573C15.9832 30.3991 14.7808 30.7288 13.7724 31.4269C13.559 31.5627 13.5009 31.5239 13.4039 31.33C13.1906 30.9033 12.9578 30.496 12.7057 30.0888C12.6282 29.953 12.6475 29.8755 12.7639 29.7979C13.753 29.1385 14.8972 28.7118 16.0802 28.5761C17.0887 28.4209 18.1165 28.5179 19.0668 28.8476C20.5407 29.3906 21.3165 30.496 21.5686 32.0087C21.6461 32.4354 21.6655 32.8427 21.6655 33.2693V40.6195C21.6655 40.8522 21.6074 40.9104 21.394 40.891C20.8704 40.8716 20.3274 40.8716 19.8038 40.891C19.5904 40.891 19.5516 40.8134 19.5516 40.6389C19.5904 39.9601 19.571 39.2813 19.5904 38.5831Z" fill="#284F9B"/>
<path d="M49.9221 28.5389H52.3269C52.4821 28.5389 52.4821 28.6553 52.5208 28.7523C53.3354 30.8468 54.1305 32.9413 54.9256 35.0357C55.3135 35.9472 55.6432 36.8975 55.9147 37.8478C55.9341 37.8866 55.9535 37.9254 55.9729 37.9642C56.3414 36.4515 56.9426 35.0745 57.4468 33.6394C58.048 32.0104 58.6492 30.3813 59.2504 28.7329C59.3086 28.5777 59.3668 28.5195 59.5413 28.5195C60.2783 28.5389 61.0152 28.5195 61.7716 28.5195C61.6358 28.8686 61.5 29.1789 61.3837 29.5086C59.6577 33.8915 57.9122 38.2745 56.1668 42.6768C55.7984 43.6271 55.2359 44.4416 54.3438 44.9652C52.9669 45.7604 51.59 45.6828 50.213 44.907C50.0579 44.8295 50.0579 44.7519 50.1354 44.6161C50.3488 44.1701 50.5621 43.7434 50.7366 43.278C50.8142 43.1034 50.8724 43.0841 51.0275 43.181C52.0748 43.821 53.0833 43.6271 53.8202 42.7156C53.9948 42.5022 54.1305 42.2695 54.2469 42.0368C54.4602 41.5714 54.6541 41.0865 54.8675 40.6211C54.9062 40.5241 54.9063 40.4077 54.8481 40.3108C53.6069 37.4018 52.3851 34.4927 51.1439 31.5837C50.756 30.6722 50.3682 29.7413 49.9803 28.8298C49.9415 28.7135 49.9221 28.6359 49.9221 28.5389Z" fill="#284F9B"/>
<path d="M9.48635 31.5456C8.59425 30.8087 7.45003 30.4402 6.28642 30.5372C5.93734 30.5566 5.58826 30.6535 5.27796 30.8475C4.69615 31.1578 4.46343 31.8947 4.79312 32.4765C4.8707 32.6123 4.96766 32.748 5.10342 32.845C5.4719 33.1359 5.89855 33.3686 6.32521 33.5238C7.04277 33.8341 7.76033 34.0862 8.4585 34.4353C8.98212 34.6874 9.46696 35.0171 9.87422 35.4243C11.0184 36.6849 10.9409 38.6437 9.68029 39.7879C9.60271 39.8461 9.52514 39.9236 9.44757 39.9818C8.73001 40.5248 7.8573 40.8545 6.9458 40.8933C5.20039 41.0485 3.47436 40.5054 2.13621 39.3612C1.96167 39.2255 1.96167 39.1091 2.09742 38.9346C2.38833 38.5273 2.65983 38.1394 2.93134 37.7322C3.02831 37.5964 3.0671 37.5964 3.20285 37.6934C4.15314 38.5273 5.37493 38.9734 6.63551 38.9152C7.04277 38.8958 7.41125 38.7794 7.76033 38.5661C8.55546 38.0425 8.61365 37.1116 7.8573 36.5104C7.50821 36.2389 7.12034 36.0449 6.71308 35.8704C6.01491 35.5601 5.29735 35.308 4.61858 34.9783C4.19192 34.765 3.78466 34.5128 3.41618 34.2025C2.13621 33.1359 1.94227 31.2159 3.02831 29.936C3.18346 29.7614 3.358 29.5869 3.55194 29.4511C4.2501 28.9275 5.10342 28.6366 5.95673 28.5784C7.29489 28.4621 8.57486 28.656 9.75786 29.3542C10.4366 29.7614 10.4366 29.7808 10.0682 30.4596L9.48635 31.5456Z" fill="#284F9B"/>
<path d="M36.172 33.3463H33.3018C33.0691 33.3463 33.0109 33.3076 33.0691 33.0554C33.6121 30.6894 35.7648 30.0106 37.3163 30.4567C38.4993 30.7864 39.0617 31.6591 39.2362 32.8033C39.3138 33.327 39.3138 33.327 38.7708 33.327L36.172 33.3463Z" fill="white"/>
<path d="M18.4658 34.959H19.2804C19.3967 34.959 19.4549 34.9784 19.4549 35.1335C19.4549 36.4911 19.0282 37.6547 17.9228 38.5274C17.1859 39.1286 16.158 39.2837 15.2659 38.8959C14.6065 38.6631 14.1605 38.0813 14.1023 37.3832C14.0053 36.6656 14.3738 35.9674 15.0138 35.6378C15.6732 35.2499 16.3907 35.1335 17.1277 35.0366C17.5931 34.9784 18.0198 34.959 18.4658 34.959Z" fill="white"/>
<path d="M74.8234 34.9375C74.8234 34.2393 74.7264 33.5606 74.5519 32.9012C73.6598 29.9534 71.701 28.111 68.7144 27.3546C68.2684 27.2383 67.8223 27.1801 67.3763 27.1607C67.2793 27.1607 67.2793 27.1025 67.2793 27.0443V24.2129H67.3569C67.4151 24.2323 67.4926 24.2323 67.5508 24.2129H67.706C67.8805 24.2517 68.0744 24.2323 68.2684 24.2517C69.1993 24.368 70.1301 24.5814 71.0029 24.9305C72.1277 25.3765 73.1943 26.0165 74.1058 26.8116C75.2694 27.8201 76.2197 29.0613 76.8597 30.477C77.3445 31.5242 77.6548 32.6297 77.7712 33.7545C77.7906 33.929 77.7712 34.1036 77.81 34.2781V34.4333C77.7906 34.4914 77.7906 34.569 77.81 34.6272V34.9569C77.7518 34.9957 77.6936 35.0151 77.6354 34.9957H75.0367C74.9397 34.9957 74.8622 34.9957 74.8234 34.9375Z" fill="#284F9B"/>
<path d="M74.8234 34.9395H77.7906V35.2304C77.7712 35.2885 77.7906 35.3467 77.7712 35.3855C77.7518 35.4243 77.7518 35.5019 77.7906 35.5406V35.6182C77.7518 35.8122 77.7712 36.0061 77.7518 36.2C77.6742 36.8206 77.5385 37.4412 77.3639 38.0618C77.073 39.0509 76.627 39.9818 76.0452 40.8351C75.7349 41.3199 75.3664 41.766 74.9785 42.1926C74.2804 42.949 73.4852 43.6084 72.6125 44.132C71.2744 44.9465 69.7811 45.4507 68.2102 45.6253C68.055 45.6447 67.8805 45.6253 67.7253 45.6641H67.6672C67.609 45.6447 67.5508 45.6641 67.512 45.6447C67.4538 45.6447 67.3957 45.6253 67.3569 45.6641H67.2793V42.8326C67.2793 42.7356 67.2987 42.7163 67.3957 42.7163C70.8865 42.5611 73.9507 39.9624 74.6682 36.5491C74.7652 36.0449 74.8234 35.5019 74.8234 34.9395Z" fill="#009BD0"/>
<path d="M67.5313 24.2129C67.4732 24.2517 67.3956 24.2517 67.3374 24.2129H67.5313Z" fill="#5673AF"/>
<path d="M77.7901 34.6275C77.7513 34.5693 77.7513 34.4918 77.7901 34.4336V34.6275Z" fill="#6A83B9"/>
<path d="M77.7519 35.4032C77.7519 35.345 77.7325 35.2868 77.7713 35.248V35.4032C77.7713 35.4226 77.7713 35.4226 77.7519 35.4032Z" fill="#4CB4DC"/>
<path d="M77.752 35.4023H77.7713V35.5575C77.7326 35.5187 77.7713 35.4605 77.752 35.4023Z" fill="#77C5E5"/>
<path d="M67.3374 45.6824C67.3956 45.6437 67.4538 45.6631 67.4925 45.6631V45.6824H67.3374Z" fill="#40B0DB"/>
<path d="M67.4929 45.6825V45.6631C67.5511 45.6631 67.6093 45.6243 67.6481 45.6825H67.4929Z" fill="#87CDE8"/>
<path d="M64.7776 34.9588V34.1249V30.7117V30.5371L65.4176 31.0413C67.0466 32.3213 68.6951 33.6013 70.3242 34.8813C70.363 34.9007 70.4017 34.92 70.4017 34.9588C70.3436 34.9976 70.266 35.017 70.1884 34.9976H64.9715C64.9133 35.017 64.8358 34.9976 64.7776 34.9588Z" fill="#284F9B"/>
<path d="M64.7773 34.959H70.4014C70.2269 35.1141 70.0523 35.2693 69.8584 35.405C68.2294 36.685 66.5809 37.965 64.9325 39.245C64.8937 39.2837 64.8355 39.3031 64.7967 39.3419C64.7579 39.3031 64.7773 39.2837 64.7773 39.2644V35.0172C64.7773 34.9784 64.7773 34.959 64.7773 34.959Z" fill="#009BD0"/>
<path d="M80.1953 45.5093C80.3311 44.7142 80.4668 43.9385 80.622 43.1433C81.165 40.2343 81.708 37.3447 82.2704 34.4357C82.6195 32.5351 82.988 30.6539 83.3371 28.7534C83.3759 28.5982 83.4146 28.54 83.5892 28.54C84.1322 28.5594 84.6946 28.5594 85.2376 28.54C85.451 28.54 85.4704 28.6176 85.4316 28.7921C85.3346 29.4127 85.1794 30.0333 85.0049 30.6345C85.1407 30.6151 85.1794 30.5182 85.2376 30.4406C86.5758 28.6952 88.9224 28.0552 90.9781 28.8697C92.2775 29.3933 93.0144 30.4212 93.3247 31.74C93.9453 34.3581 93.092 37.8489 90.4933 39.7301C89.0775 40.7385 87.5261 41.1458 85.8 40.6804C84.8885 40.4476 84.1128 39.827 83.7055 38.9737C83.6861 38.9349 83.6474 38.8962 83.628 38.838H83.6086C83.2401 41.0488 82.794 43.2597 82.3674 45.4706L80.1953 45.5093Z" fill="#009BD0"/>
<path d="M105.349 45.5087C105.194 45.4312 105.019 45.373 104.845 45.373C104.437 45.2566 104.03 45.0821 103.662 44.8494C103.545 44.7718 103.526 44.7136 103.603 44.5972C103.875 44.1706 104.166 43.7439 104.437 43.2979C104.515 43.1815 104.554 43.1621 104.689 43.2397C105.543 43.7439 106.629 43.647 107.366 42.9682C107.734 42.6579 108.045 42.27 108.297 41.8434C108.529 41.4555 108.781 41.0482 109.034 40.6604C109.111 40.544 109.15 40.3889 109.092 40.2337C108.219 36.4326 107.327 32.6121 106.435 28.7915C106.396 28.5782 106.396 28.52 106.648 28.52C107.269 28.5394 107.889 28.52 108.491 28.52C108.646 28.52 108.723 28.5394 108.762 28.7334C109.305 31.4678 109.848 34.2217 110.391 36.9756C110.469 37.3635 110.508 37.7513 110.566 38.2168C110.895 37.5186 111.225 36.898 111.574 36.2774C112.951 33.7757 114.328 31.2739 115.705 28.7721C115.783 28.5976 115.938 28.5006 116.132 28.52C116.869 28.5394 117.606 28.52 118.323 28.52C118.362 28.617 118.284 28.6752 118.246 28.7334C115.472 33.4266 112.68 38.1392 109.906 42.8324C109.305 43.8603 108.51 44.6942 107.385 45.1984C107.075 45.3342 106.726 45.373 106.415 45.5087H105.349Z" fill="#009BD0"/>
<path d="M101.586 38.6046C101.451 38.7791 101.334 38.9343 101.218 39.07C100.306 40.1173 99.1816 40.8154 97.7464 40.893C96.8349 40.9706 95.9235 40.6991 95.1671 40.1561C94.1393 39.3997 93.7902 38.1003 94.2362 36.704C94.5659 35.6568 95.2641 34.9392 96.195 34.435C97.184 33.9113 98.2701 33.5623 99.3755 33.4265C100.306 33.2908 101.257 33.2326 102.207 33.252C102.401 33.252 102.478 33.1938 102.498 32.9999C102.556 32.612 102.556 32.2241 102.517 31.8362C102.401 31.0605 101.838 30.5757 100.985 30.4787C99.6276 30.3235 98.4252 30.7502 97.2616 31.3902C96.9513 31.5647 96.9513 31.5647 96.8349 31.2156C96.6992 30.789 96.544 30.3429 96.4083 29.9163C96.3695 29.7999 96.3695 29.7417 96.4859 29.6836C98.2507 28.7527 100.112 28.2872 102.11 28.6557C103.603 28.9272 104.515 29.8387 104.786 31.2544C104.883 31.9914 104.864 32.7477 104.689 33.4653C104.224 35.8701 103.758 38.2555 103.293 40.6603C103.254 40.8348 103.196 40.893 103.021 40.893C102.478 40.8736 101.916 40.893 101.373 40.893C101.179 40.893 101.16 40.8542 101.198 40.6603C101.315 40.0009 101.451 39.3221 101.586 38.6046Z" fill="#009BD0"/>
<path d="M84.2678 35.7742C84.326 34.1257 84.8884 32.6518 86.149 31.5076C86.8472 30.8288 87.7974 30.4798 88.7671 30.5185C89.9307 30.5767 90.7646 31.2361 91.0555 32.3415C91.521 34.0676 90.9974 36.7439 89.058 38.1208C88.3792 38.6444 87.5453 38.8965 86.692 38.8578C85.4508 38.7802 84.5781 37.985 84.3454 36.7051C84.3066 36.3948 84.2678 36.0845 84.2678 35.7742Z" fill="white"/>
<path d="M101.218 34.918H101.993C102.11 34.918 102.149 34.9568 102.11 35.0731C101.838 36.4501 101.043 37.6525 99.899 38.467C99.3172 38.8743 98.5996 39.0682 97.8821 38.9906C96.3112 38.8355 96.0397 37.4779 96.5827 36.4889C96.8348 36.0816 97.1839 35.7713 97.6105 35.5774C98.3475 35.2477 99.1426 35.0343 99.9378 34.9761C100.384 34.9374 100.81 34.918 101.218 34.918Z" fill="white"/>
</svg>
