<svg width="120" height="70" viewBox="0 0 120 70" fill="none" xmlns="http://www.w3.org/2000/svg">
<path d="M16.0444 48.0138L16.9451 47.9252C17.0042 48.2353 17.1075 48.4567 17.2847 48.6044C17.4471 48.7521 17.6834 48.8111 17.9639 48.8111C18.2592 48.8111 18.4955 48.7521 18.6432 48.6192C18.7908 48.4863 18.8794 48.3386 18.8794 48.1762C18.8794 48.0728 18.8499 47.9695 18.776 47.8957C18.717 47.8218 18.5989 47.748 18.4364 47.6889C18.3331 47.6447 18.0821 47.5856 17.6834 47.4822C17.1814 47.3641 16.827 47.2017 16.6351 47.0245C16.3545 46.7735 16.2069 46.4634 16.2069 46.0943C16.2069 45.858 16.2807 45.6365 16.4136 45.4298C16.5465 45.2231 16.7384 45.0755 16.9894 44.9573C17.2404 44.854 17.5357 44.7949 17.8901 44.7949C18.466 44.7949 18.9089 44.9278 19.2042 45.1788C19.4995 45.4298 19.6472 45.7694 19.662 46.1976L18.7317 46.2272C18.6874 45.9909 18.5989 45.8137 18.4807 45.7104C18.3478 45.607 18.1559 45.548 17.8901 45.548C17.6243 45.548 17.4029 45.607 17.2552 45.7104C17.1518 45.7842 17.1075 45.8728 17.1075 45.9909C17.1075 46.0943 17.1518 46.1976 17.2404 46.2715C17.3586 46.3748 17.6391 46.4782 18.0968 46.5815C18.5546 46.6849 18.8794 46.803 19.1009 46.9211C19.3224 47.0393 19.4848 47.1869 19.6177 47.3936C19.7358 47.6004 19.7949 47.8366 19.7949 48.1319C19.7949 48.3977 19.721 48.6487 19.5734 48.8849C19.4257 49.1212 19.219 49.2836 18.9532 49.4017C18.6874 49.5199 18.3478 49.5642 17.9492 49.5642C17.3586 49.5642 16.9156 49.4313 16.6055 49.1507C16.2954 48.9292 16.1035 48.5306 16.0444 48.0138Z" fill="#00489A"/>
<path d="M20.7837 44.8984H21.6696V45.7105H20.7837V44.8984ZM20.7837 46.1683H21.6696V49.52H20.7837V46.1683Z" fill="#00489A"/>
<path d="M25.819 49.5204H24.9331V47.8076C24.9331 47.4385 24.9183 47.217 24.874 47.0989C24.8297 46.9955 24.7707 46.9069 24.6969 46.8479C24.6083 46.7888 24.5049 46.7593 24.3868 46.7593C24.2391 46.7593 24.0915 46.8036 23.9733 46.8922C23.8552 46.9808 23.7666 47.0841 23.7223 47.2318C23.678 47.3647 23.6633 47.6304 23.6633 47.9996V49.5204H22.7773V46.1687H23.6042V46.6559C23.8995 46.272 24.2687 46.0801 24.7116 46.0801C24.9036 46.0801 25.0808 46.1096 25.2432 46.1834C25.4056 46.2573 25.5237 46.3459 25.6123 46.4492C25.7009 46.5526 25.76 46.6855 25.7895 46.8183C25.819 46.9512 25.8338 47.158 25.8338 47.409V49.5204" fill="#00489A"/>
<path d="M26.8232 49.7408L27.8273 49.8442C27.842 49.9771 27.8863 50.0509 27.9454 50.1099C28.034 50.1838 28.1669 50.2133 28.344 50.2133C28.5803 50.2133 28.7575 50.1838 28.8608 50.1099C28.9347 50.0657 28.9937 49.9918 29.038 49.8885C29.0675 49.8146 29.0823 49.6818 29.0823 49.475V48.9878C28.8165 49.3421 28.4917 49.5193 28.0783 49.5193C27.6205 49.5193 27.2662 49.3274 27.0152 48.9435C26.8084 48.6482 26.7051 48.2643 26.7051 47.8213C26.7051 47.2602 26.838 46.832 27.1037 46.5367C27.3695 46.2414 27.7091 46.0938 28.1078 46.0938C28.5212 46.0938 28.8608 46.2709 29.1266 46.6401V46.1823H29.9535V49.1945C29.9535 49.5932 29.9239 49.8885 29.8501 50.0804C29.7911 50.2724 29.6877 50.4348 29.5696 50.5381C29.4514 50.6415 29.289 50.7301 29.0971 50.8039C28.9051 50.863 28.6541 50.8925 28.344 50.8925C27.7682 50.8925 27.3695 50.7892 27.1333 50.5972C26.897 50.4053 26.7789 50.1542 26.7789 49.8442C26.8232 49.8146 26.8232 49.7851 26.8232 49.7408ZM27.6205 47.777C27.6205 48.1314 27.6944 48.3972 27.8273 48.5596C27.9601 48.722 28.1373 48.8106 28.3293 48.8106C28.536 48.8106 28.7279 48.722 28.8756 48.5596C29.0233 48.3972 29.0971 48.1461 29.0971 47.8065C29.0971 47.4522 29.0233 47.2012 28.8904 47.0387C28.7575 46.8763 28.5655 46.7877 28.3588 46.7877C28.1521 46.7877 27.9749 46.8616 27.842 47.0387C27.6944 47.1864 27.6205 47.4374 27.6205 47.777Z" fill="#00489A"/>
<path d="M31.9323 44.8984H31.0464V49.52H31.9323V44.8984Z" fill="#00489A"/>
<path d="M34.9887 48.4721L35.8747 48.6197C35.7565 48.9446 35.5794 49.1808 35.3283 49.358C35.0773 49.5352 34.782 49.609 34.4129 49.609C33.8223 49.609 33.3941 49.4171 33.1135 49.0332C32.892 48.7231 32.7739 48.3392 32.7739 47.8667C32.7739 47.3056 32.9216 46.8774 33.2169 46.5526C33.5122 46.2425 33.8813 46.0801 34.3243 46.0801C34.8263 46.0801 35.225 46.2425 35.5055 46.5673C35.8008 46.9069 35.9337 47.409 35.919 48.0882H33.6894C33.6894 48.354 33.7632 48.5607 33.9109 48.7083C34.0438 48.856 34.2209 48.9298 34.4277 48.9298C34.5753 48.9298 34.6787 48.9003 34.782 48.8117C34.8706 48.7526 34.9444 48.6345 34.9887 48.4721ZM35.033 47.5714C35.033 47.3056 34.9592 47.1137 34.8263 46.9808C34.6934 46.8479 34.5458 46.7741 34.3686 46.7741C34.1766 46.7741 34.0142 46.8479 33.8813 46.9808C33.7484 47.1284 33.6894 47.3204 33.6894 47.5714H35.033Z" fill="#00489A"/>
<path d="M38.8276 49.52V44.8984H42.2532V45.681H39.7726V46.6998H42.076V47.4824H39.7726V48.7522H42.3418V49.52H38.8276Z" fill="#00489A"/>
<path d="M45.5304 49.5186V49.0166C45.4122 49.1938 45.2498 49.3414 45.0431 49.4448C44.8364 49.5482 44.6297 49.6072 44.4082 49.6072C44.1867 49.6072 43.98 49.5629 43.8028 49.4596C43.6256 49.3562 43.4927 49.2233 43.4189 49.0461C43.3451 48.8689 43.3008 48.6179 43.3008 48.3079V46.1816H44.1867V47.7172C44.1867 48.1897 44.2015 48.4703 44.231 48.5884C44.2605 48.6918 44.3196 48.7804 44.4082 48.8394C44.4968 48.8985 44.6001 48.928 44.733 48.928C44.8807 48.928 45.0136 48.8837 45.1465 48.8099C45.2646 48.7213 45.3532 48.6179 45.3975 48.4998C45.4418 48.3817 45.4565 48.0716 45.4565 47.5991V46.1816H46.3425V49.5186H45.5304Z" fill="#00489A"/>
<path d="M48.3068 49.5193H47.4209V46.1676H48.2478V46.6401C48.3954 46.4186 48.5135 46.2709 48.6317 46.1971C48.7498 46.1233 48.8679 46.0938 49.0156 46.0938C49.2223 46.0938 49.4142 46.1528 49.6062 46.2562L49.3404 47.024C49.1928 46.9206 49.0451 46.8763 48.927 46.8763C48.8088 46.8763 48.6907 46.9058 48.6169 46.9797C48.5283 47.0535 48.4545 47.1716 48.4102 47.3488C48.3659 47.526 48.3364 47.9099 48.3364 48.471V49.5193" fill="#00489A"/>
<path d="M49.9458 47.8065C49.9458 47.5112 50.0196 47.2307 50.1673 46.9501C50.3149 46.6696 50.5217 46.4629 50.7874 46.3152C51.0532 46.1676 51.3485 46.0938 51.6734 46.0938C52.1754 46.0938 52.6036 46.2562 52.9137 46.581C53.2385 46.9206 53.4009 47.334 53.4009 47.8361C53.4009 48.3529 53.2385 48.7663 52.9137 49.1059C52.5888 49.4455 52.1754 49.6079 51.6734 49.6079C51.3633 49.6079 51.068 49.5341 50.7874 49.4012C50.5069 49.2683 50.3002 49.0616 50.1525 48.7958C50.0196 48.5153 49.9458 48.1904 49.9458 47.8065ZM50.8613 47.8508C50.8613 48.1904 50.9351 48.4415 51.0975 48.6186C51.2599 48.7958 51.4519 48.8844 51.6881 48.8844C51.9244 48.8844 52.1163 48.7958 52.264 48.6186C52.4264 48.4415 52.5002 48.1904 52.5002 47.8508C52.5002 47.526 52.4264 47.275 52.264 47.0978C52.1016 46.9206 51.9096 46.832 51.6881 46.832C51.4519 46.832 51.2599 46.9206 51.0975 47.0978C50.9351 47.2602 50.8613 47.5112 50.8613 47.8508Z" fill="#00489A"/>
<path d="M56.3101 49.52V44.8984H57.8014C58.3772 44.8984 58.7316 44.928 58.9088 44.9723C59.1746 45.0461 59.396 45.1937 59.5732 45.43C59.7504 45.6662 59.839 45.9615 59.839 46.3307C59.839 46.6112 59.7947 46.8475 59.6913 47.0542C59.588 47.2461 59.4551 47.3938 59.3074 47.5119C59.145 47.6153 58.9826 47.6891 58.8202 47.7334C58.5987 47.7777 58.2739 47.8072 57.8457 47.8072H57.2403V49.52H56.3101ZM57.2403 45.681V46.9951H57.7571C58.1262 46.9951 58.3625 46.9656 58.4953 46.9213C58.6135 46.8622 58.7168 46.7884 58.7907 46.6851C58.8645 46.5817 58.894 46.4636 58.894 46.3307C58.894 46.1535 58.8497 46.0206 58.7464 45.9173C58.643 45.8139 58.5249 45.7401 58.3772 45.7105C58.2591 45.681 58.0376 45.681 57.698 45.681H57.2403Z" fill="#00489A"/>
<path d="M61.4479 47.1875L60.6506 47.0398C60.7392 46.715 60.9016 46.4787 61.1083 46.3163C61.3298 46.1539 61.6547 46.0801 62.0976 46.0801C62.4963 46.0801 62.7916 46.1244 62.9835 46.213C63.1755 46.3016 63.3084 46.4197 63.397 46.5673C63.4708 46.715 63.5151 46.9808 63.5151 47.3647L63.5003 48.3982C63.5003 48.6936 63.5151 48.915 63.5446 49.0479C63.5742 49.1808 63.6185 49.3432 63.707 49.4909H62.8211C62.7916 49.4318 62.7768 49.3432 62.7325 49.2399C62.7178 49.1808 62.703 49.1513 62.703 49.1365C62.5553 49.2842 62.3929 49.4023 62.2157 49.4761C62.0386 49.55 61.8614 49.5942 61.6694 49.5942C61.3298 49.5942 61.0493 49.5057 60.8573 49.3137C60.6654 49.1218 60.562 48.8855 60.562 48.605C60.562 48.413 60.6063 48.2506 60.6949 48.1029C60.7835 47.9553 60.9164 47.8372 61.0788 47.7633C61.2412 47.6895 61.4775 47.6157 61.7875 47.5566C62.201 47.4828 62.4815 47.409 62.6439 47.3351V47.2465C62.6439 47.0694 62.5996 46.9512 62.511 46.8774C62.4225 46.8036 62.26 46.7741 62.0238 46.7741C61.8614 46.7741 61.7432 46.8036 61.6547 46.8626C61.5808 46.9217 61.507 47.0398 61.4479 47.1875ZM62.6439 47.911C62.5258 47.9553 62.3486 47.9996 62.0976 48.0439C61.8466 48.0882 61.699 48.1472 61.6104 48.2063C61.4922 48.2949 61.4332 48.3983 61.4332 48.5164C61.4332 48.6345 61.4775 48.7526 61.5661 48.8412C61.6547 48.9298 61.7728 48.9741 61.9204 48.9741C62.0829 48.9741 62.2305 48.915 62.3782 48.8117C62.4815 48.7379 62.5553 48.6345 62.5849 48.5164C62.6144 48.4425 62.6144 48.2949 62.6144 48.0882V47.911H62.6439Z" fill="#00489A"/>
<path d="M64.1501 46.1699H65.0951L65.8925 48.5472L66.675 46.1699H67.5905L66.4093 49.3888L66.1878 49.9794C66.1139 50.1714 66.0401 50.319 65.9663 50.4224C65.8925 50.5257 65.8186 50.6143 65.73 50.6734C65.6415 50.7324 65.5233 50.7915 65.3904 50.821C65.2576 50.8506 65.1099 50.8801 64.9327 50.8801C64.7555 50.8801 64.5931 50.8653 64.4307 50.821L64.3421 50.1271C64.475 50.1566 64.6079 50.1714 64.726 50.1714C64.9327 50.1714 65.0804 50.1123 65.1837 49.9942C65.2871 49.876 65.3609 49.7136 65.4052 49.5217L64.1501 46.1699Z" fill="#00489A"/>
<path d="M68.2992 46.1687H69.1113V46.6264C69.4066 46.272 69.761 46.0801 70.1596 46.0801C70.3811 46.0801 70.5583 46.1244 70.7207 46.213C70.8831 46.3016 71.0013 46.4344 71.1046 46.6116C71.2523 46.4344 71.4147 46.3016 71.5771 46.213C71.7543 46.1244 71.9315 46.0801 72.1234 46.0801C72.3744 46.0801 72.5812 46.1244 72.7436 46.2277C72.906 46.3311 73.0389 46.4787 73.1275 46.6707C73.1865 46.8183 73.2161 47.0398 73.2161 47.3647V49.5204H72.3302V47.6009C72.3302 47.2613 72.3006 47.0546 72.2416 46.9512C72.153 46.8183 72.0348 46.7593 71.8577 46.7593C71.7395 46.7593 71.6214 46.7888 71.5033 46.8774C71.3999 46.9512 71.3113 47.0694 71.267 47.217C71.2227 47.3647 71.1932 47.6009 71.1932 47.911V49.5204H70.3073V47.6895C70.3073 47.3647 70.2925 47.1432 70.263 47.0546C70.2335 46.9512 70.1892 46.8922 70.1153 46.8479C70.0415 46.8036 69.9529 46.7741 69.8496 46.7741C69.7167 46.7741 69.5985 46.8036 69.4804 46.8774C69.3771 46.9512 69.2885 47.0546 69.2442 47.2022C69.1999 47.3351 69.1703 47.5714 69.1703 47.8962V49.5204H68.2844V46.1687" fill="#00489A"/>
<path d="M76.2578 48.4721L77.1437 48.6197C77.0256 48.9446 76.8484 49.1808 76.5974 49.358C76.3464 49.5352 76.0511 49.609 75.6819 49.609C75.0913 49.609 74.6631 49.4171 74.3826 49.0332C74.1611 48.7231 74.043 48.3392 74.043 47.8667C74.043 47.3056 74.1906 46.8774 74.4859 46.5526C74.7812 46.2425 75.1504 46.0801 75.5933 46.0801C76.0954 46.0801 76.494 46.2425 76.7746 46.5673C77.0699 46.9069 77.2028 47.409 77.188 48.0882H74.9584C74.9584 48.354 75.0323 48.5607 75.1799 48.7083C75.3128 48.856 75.49 48.9298 75.6967 48.9298C75.8444 48.9298 75.9625 48.9003 76.0511 48.8117C76.1397 48.7526 76.2135 48.6345 76.2578 48.4721ZM76.3021 47.5714C76.3021 47.3056 76.2283 47.1137 76.0954 46.9808C75.9625 46.8479 75.8148 46.7741 75.6376 46.7741C75.4457 46.7741 75.2833 46.8479 75.1504 46.9808C75.0175 47.1284 74.9584 47.3204 74.9584 47.5714H76.3021Z" fill="#00489A"/>
<path d="M81.1452 49.5204H80.2593V47.8076C80.2593 47.4385 80.2445 47.217 80.2002 47.0989C80.1559 46.9955 80.0968 46.9069 80.023 46.8479C79.9492 46.7888 79.8311 46.7593 79.7129 46.7593C79.5653 46.7593 79.4176 46.8036 79.2995 46.8922C79.1814 46.9808 79.0928 47.0841 79.0485 47.2318C79.0042 47.3647 78.9894 47.6304 78.9894 47.9996V49.5204H78.1035V46.1687H78.9304V46.6559C79.2257 46.272 79.5948 46.0801 80.0378 46.0801C80.2297 46.0801 80.4069 46.1096 80.5693 46.1834C80.7318 46.2573 80.8499 46.3459 80.9385 46.4492C81.0271 46.5526 81.0861 46.6855 81.1157 46.8183C81.1452 46.9512 81.16 47.158 81.16 47.409V49.5204" fill="#00489A"/>
<path d="M83.7734 46.1693V46.878H83.168V48.2364C83.168 48.517 83.168 48.6794 83.1828 48.7237C83.1975 48.768 83.2123 48.7975 83.2566 48.8418C83.3009 48.8714 83.3452 48.8861 83.4043 48.8861C83.4781 48.8861 83.5962 48.8566 83.7586 48.7975L83.8325 49.4767C83.6257 49.5653 83.3895 49.6096 83.1385 49.6096C82.9761 49.6096 82.8284 49.5801 82.7103 49.5358C82.5774 49.4767 82.4888 49.4029 82.4297 49.3291C82.3707 49.2405 82.3264 49.1224 82.3116 48.9895C82.2968 48.8861 82.2821 48.6794 82.2821 48.3693V46.9076H81.8687V46.1988H82.2673V45.5344L83.1532 45.0176V46.2136H83.7734" fill="#00489A"/>
<path d="M84.2754 48.5754L85.1613 48.4425C85.1908 48.6197 85.2794 48.7526 85.3976 48.8264C85.5157 48.915 85.6781 48.9593 85.8848 48.9593C86.1211 48.9593 86.2835 48.915 86.4016 48.8264C86.4754 48.7674 86.5197 48.6936 86.5197 48.5902C86.5197 48.5164 86.505 48.4721 86.4607 48.4278C86.4164 48.3835 86.313 48.354 86.1654 48.3097C85.4419 48.1472 84.9841 47.9996 84.7922 47.8667C84.5264 47.6895 84.3935 47.4385 84.3935 47.1137C84.3935 46.8183 84.5116 46.5821 84.7331 46.3754C84.9694 46.1834 85.3237 46.0801 85.811 46.0801C86.2687 46.0801 86.6083 46.1539 86.8446 46.3016C87.0661 46.4492 87.2285 46.6707 87.3171 46.966L86.4754 47.1284C86.4459 46.9955 86.3721 46.8922 86.2687 46.8331C86.1654 46.7593 86.0177 46.7298 85.8405 46.7298C85.6043 46.7298 85.4419 46.7593 85.3385 46.8331C85.2647 46.8774 85.2351 46.9365 85.2351 47.0103C85.2351 47.0694 85.2647 47.1284 85.3237 47.1727C85.3976 47.2318 85.6781 47.3204 86.1506 47.4237C86.6231 47.5271 86.9479 47.66 87.1399 47.8224C87.3318 47.9848 87.4204 48.2063 87.4204 48.4868C87.4204 48.7969 87.2875 49.0627 87.0365 49.2842C86.7708 49.5057 86.4016 49.6238 85.8996 49.6238C85.4419 49.6238 85.0875 49.5352 84.8217 49.3432C84.5264 49.1513 84.3492 48.9003 84.2754 48.5754Z" fill="#00489A"/>
<path d="M94.5373 49.52H93.5333L93.1346 48.4717H91.2742L90.8755 49.52H89.8862L91.6728 44.8984H92.6621L94.5373 49.52ZM92.8098 47.7039L92.1601 45.9911L91.54 47.7039H92.8098Z" fill="#00489A"/>
<path d="M96.0583 49.5193H95.1724V46.1676H95.9992V46.6401C96.1469 46.4186 96.265 46.2709 96.3831 46.1971C96.5012 46.1233 96.6194 46.0938 96.767 46.0938C96.9737 46.0938 97.1657 46.1528 97.3576 46.2562L97.0919 47.024C96.9442 46.9206 96.7966 46.8763 96.6784 46.8763C96.5603 46.8763 96.4422 46.9058 96.3684 46.9797C96.2798 47.0535 96.2059 47.1716 96.1616 47.3488C96.1173 47.526 96.0878 47.9099 96.0878 48.471V49.5193" fill="#00489A"/>
<path d="M99.8676 48.4721L100.754 48.6197C100.635 48.9446 100.458 49.1808 100.207 49.358C99.9562 49.5352 99.6609 49.609 99.2918 49.609C98.7012 49.609 98.273 49.4171 97.9924 49.0332C97.771 48.7231 97.6528 48.3392 97.6528 47.8667C97.6528 47.3056 97.8005 46.8774 98.0958 46.5526C98.3911 46.2425 98.7602 46.0801 99.2032 46.0801C99.7052 46.0801 100.104 46.2425 100.384 46.5673C100.68 46.9069 100.813 47.409 100.798 48.0882H98.5683C98.5683 48.354 98.6421 48.5607 98.7898 48.7083C98.9227 48.856 99.0998 48.9298 99.3066 48.9298C99.4542 48.9298 99.5723 48.9003 99.6609 48.8117C99.7495 48.7526 99.8234 48.6345 99.8676 48.4721ZM99.9119 47.5714C99.9119 47.3056 99.8381 47.1137 99.7052 46.9808C99.5723 46.8479 99.4247 46.7741 99.2475 46.7741C99.0556 46.7741 98.8931 46.8479 98.7602 46.9808C98.6274 47.1284 98.5683 47.3204 98.5683 47.5714H99.9119Z" fill="#00489A"/>
<path d="M102.363 47.1875L101.566 47.0398C101.654 46.715 101.817 46.4787 102.023 46.3163C102.245 46.1539 102.57 46.0801 103.013 46.0801C103.411 46.0801 103.707 46.1244 103.899 46.213C104.091 46.3016 104.223 46.4197 104.312 46.5673C104.386 46.715 104.43 46.9808 104.43 47.3647L104.415 48.3982C104.415 48.6936 104.43 48.915 104.46 49.0479C104.489 49.1808 104.533 49.3432 104.622 49.4909H103.736C103.707 49.4318 103.692 49.3432 103.648 49.2399C103.633 49.1808 103.618 49.1513 103.618 49.1365C103.47 49.2842 103.308 49.4023 103.131 49.4761C102.954 49.55 102.776 49.5942 102.584 49.5942C102.245 49.5942 101.964 49.5057 101.772 49.3137C101.58 49.1218 101.477 48.8855 101.477 48.605C101.477 48.413 101.521 48.2506 101.61 48.1029C101.699 47.9553 101.831 47.8372 101.994 47.7633C102.156 47.6895 102.393 47.6157 102.703 47.5566C103.116 47.4828 103.397 47.409 103.559 47.3351V47.2465C103.559 47.0694 103.515 46.9512 103.426 46.8774C103.337 46.8036 103.175 46.7741 102.939 46.7741C102.776 46.7741 102.658 46.8036 102.57 46.8626C102.496 46.9217 102.422 47.0398 102.363 47.1875ZM103.559 47.911C103.441 47.9553 103.264 47.9996 103.013 48.0439C102.762 48.0882 102.614 48.1472 102.525 48.2063C102.407 48.2949 102.348 48.3983 102.348 48.5164C102.348 48.6345 102.393 48.7526 102.481 48.8412C102.57 48.9298 102.688 48.9741 102.835 48.9741C102.998 48.9741 103.146 48.915 103.293 48.8117C103.397 48.7379 103.47 48.6345 103.5 48.5164C103.529 48.4425 103.529 48.2949 103.529 48.0882V47.911H103.559Z" fill="#00489A"/>
<path d="M35.6971 26.7225H29.6433C29.6433 25.7332 29.5251 25.0688 29.2889 24.7144C28.9345 24.2124 27.9305 23.9613 26.3063 23.9613C24.7264 23.9613 23.678 24.109 23.1612 24.3895C22.6444 24.6849 22.3934 25.3198 22.3934 26.2795C22.3934 27.1654 22.6149 27.7413 23.0726 28.0218C23.3975 28.2138 23.8257 28.3319 24.3572 28.3762L25.5828 28.4648C28.1962 28.642 29.8352 28.7601 30.4849 28.8339C32.5521 29.0407 34.0581 29.587 34.9883 30.4877C35.7266 31.1816 36.1548 32.0971 36.3025 33.2193C36.3763 33.8837 36.4206 34.6515 36.4206 35.4931C36.4206 37.4422 36.2286 38.8744 35.8595 39.7751C35.1803 41.4289 33.6742 42.4772 31.3118 42.9202C30.3225 43.0973 28.8164 43.2007 26.7788 43.2007C23.3827 43.2007 21.0202 42.994 19.6914 42.5953C18.0524 42.0933 16.9745 41.0892 16.443 39.5684C16.1477 38.7268 16 37.3241 16 35.3455H22.0538C22.0538 35.567 22.0538 35.7294 22.0538 35.8475C22.0538 36.8959 22.3639 37.5751 22.9545 37.8704C23.368 38.0771 23.8847 38.1805 24.4754 38.1952H26.7049C27.8419 38.1952 28.5654 38.1362 28.8755 38.018C29.4365 37.7966 29.7909 37.4422 29.9681 36.9549C30.0567 36.6596 30.101 36.261 30.101 35.7885C30.101 34.7253 29.7171 34.0757 28.9345 33.8394C28.6392 33.7508 27.2956 33.6179 24.874 33.4555C22.9398 33.3226 21.5961 33.1897 20.8431 33.0569C18.8645 32.6877 17.5356 31.9199 16.8712 30.7682C16.2953 29.7789 16 28.2876 16 26.2943C16 24.7734 16.1624 23.5627 16.4725 22.6472C16.7826 21.7318 17.2994 21.0378 17.9933 20.5653C19.0121 19.8418 20.3263 19.3988 21.9062 19.2807C23.2351 19.1626 24.6968 19.1035 26.321 19.1035C28.8607 19.1035 30.6768 19.2512 31.7547 19.5465C34.3977 20.2552 35.7119 22.2338 35.7119 25.4969C35.7562 25.7923 35.7414 26.1909 35.6971 26.7225Z" fill="#00489A"/>
<path d="M62.3486 43.2162V19.0156H71.8428H73.3341H74.4858C76.1543 19.0156 77.4241 19.1485 78.2953 19.4291C80.2886 20.0492 81.6323 21.3338 82.3115 23.2681C82.6659 24.2869 82.8431 25.8077 82.8431 27.8601C82.8431 30.3112 82.6511 32.083 82.2524 33.1609C81.4699 35.2871 79.8752 36.5127 77.4537 36.8227C77.1731 36.867 75.9624 36.9113 73.8214 36.9409L72.7435 36.9704H68.8602V43.2162H62.3486ZM68.8602 31.3448H72.9207C74.2053 31.3005 74.9878 31.1971 75.2684 31.0495C75.6523 30.8427 75.9181 30.4145 76.0362 29.7796C76.11 29.3514 76.1543 28.7313 76.1543 27.8897C76.1543 26.8708 76.0805 26.103 75.9033 25.6158C75.6671 24.9218 75.106 24.4936 74.22 24.3459C74.0429 24.3164 73.6294 24.3164 72.9502 24.3164H68.8307V31.3448H68.8602Z" fill="#00489A"/>
<path d="M96.7523 39.0219H88.0407L86.8743 43.2005H80.1265L87.4058 19H97.2248L104.593 43.2005H97.9926L96.7523 39.0219ZM95.453 34.3118L92.3965 23.8283L89.4287 34.3118H95.453Z" fill="#00489A"/>
<path d="M53.3565 22.41C56.0438 22.41 58.4358 23.6503 60.0157 25.5846L61.4185 22.5725C59.2184 20.5053 56.2358 19.2207 52.9431 19.2207C47.8047 19.2207 43.4194 22.3214 41.618 26.7068H38.8864L37.2622 30.1767H40.7911C40.7616 30.5015 40.7468 30.8263 40.7468 31.1512C40.7468 31.5498 40.7764 31.9337 40.8059 32.3324H39.0341L37.4099 35.8023H41.6918C43.5375 40.0843 47.8786 43.0816 52.9283 43.0816C55.468 43.0816 57.8305 42.3138 59.7943 41.0145V36.762C58.2144 38.5634 55.9109 39.6856 53.3418 39.6856C50.3444 39.6856 47.7014 38.1352 46.151 35.7875H55.1284L56.7378 32.3176H44.8516C44.7926 31.9042 44.7483 31.476 44.7483 31.0478C44.7483 30.7525 44.763 30.4572 44.7926 30.1767H57.7566L59.3808 26.7068H45.9295C47.4208 24.1376 50.182 22.41 53.3565 22.41Z" fill="#FDC300"/>
<path d="M53.3565 22.5132C55.9109 22.5132 58.3177 23.6502 59.9419 25.6583L60.0452 25.7912L60.119 25.6435L61.5218 22.6314L61.5513 22.5575L61.4922 22.4985C59.1888 20.3132 56.1471 19.1172 52.943 19.1172C50.4329 19.1172 48.0261 19.8555 45.9738 21.2434C43.9657 22.5871 42.43 24.477 41.5294 26.6771L41.6327 26.618H38.8863H38.8125L38.783 26.6771L37.1588 30.147L37.085 30.2946H37.2474H40.7763L40.673 30.1765C40.6434 30.5309 40.6287 30.8557 40.6287 31.151C40.6287 31.5349 40.6434 31.9336 40.6877 32.347L40.7911 32.2289H39.0192H38.9602L38.9306 32.288L37.3064 35.7578L37.2326 35.9055H37.395H41.677L41.5737 35.8464C43.5079 40.3056 47.9523 43.1848 52.9135 43.1848C55.3941 43.1848 57.7861 42.4613 59.8385 41.1029L59.8828 41.0734V41.0143V36.7619V36.4813L59.7056 36.6881C58.0962 38.519 55.778 39.5821 53.3417 39.5821C50.4772 39.5821 47.8194 38.1498 46.2395 35.7431L46.1509 35.9055H55.1283H55.1874L55.2169 35.8464L56.8263 32.3765L56.9002 32.2289H56.7673H44.8663L44.9697 32.3175C44.9106 31.9041 44.8811 31.4759 44.8811 31.0477C44.8811 30.7671 44.8959 30.4718 44.9254 30.1913L44.822 30.2799H57.7861H57.8599L57.8895 30.2208L59.4989 26.7509L59.5727 26.6033H59.4103H45.9295L46.018 26.7657C47.5389 24.1374 50.3443 22.5132 53.3565 22.5132ZM45.9295 26.81H59.3955L59.3069 26.6623L57.6827 30.1322L57.7713 30.0731H44.8073H44.7187L44.7039 30.1617C44.6744 30.457 44.6596 30.7523 44.6596 31.0477C44.6596 31.4759 44.6892 31.9041 44.763 32.347L44.7778 32.4356H44.8663H56.7673L56.6787 32.288L55.0693 35.7578L55.1579 35.6988H46.1805H45.9885L46.0919 35.8612C47.7013 38.327 50.4329 39.8036 53.3565 39.8036C55.8518 39.8036 58.2291 38.7257 59.8828 36.8505L59.7056 36.7766V41.0291L59.7499 40.9405C57.7418 42.2842 55.3793 42.9929 52.943 42.9929C48.0704 42.9929 43.6999 40.1579 41.7951 35.7726L41.7656 35.7135H41.7065H37.4246L37.5279 35.8612L39.1374 32.3913L39.0488 32.4504H40.8206H40.9387L40.924 32.3323C40.8797 31.9483 40.8649 31.5497 40.8649 31.1658C40.8649 30.8705 40.8797 30.5604 40.9092 30.206L40.924 30.0879H40.8059H37.2621L37.3507 30.2356L38.9749 26.7657L38.8863 26.8247H41.6179H41.6918L41.7213 26.7657C42.6072 24.5952 44.1281 22.7495 46.0919 21.4206C48.1147 20.0622 50.4772 19.3387 52.943 19.3387C56.0881 19.3387 59.0855 20.5199 61.3593 22.6609L61.3298 22.5428L59.9271 25.5549L60.1043 25.5254C58.4505 23.4878 55.9847 22.3065 53.3565 22.3065C50.2705 22.3065 47.3912 23.975 45.8409 26.6623L45.7523 26.81H45.9295Z" fill="#00489A"/>
</svg>
