<svg width="120" height="70" viewBox="0 0 120 70" fill="none" xmlns="http://www.w3.org/2000/svg">
<path d="M78.2599 27.5798C80.1569 27.5798 81.6929 26.0438 81.6929 24.1498C81.6929 22.2558 80.1559 20.7168 78.2599 20.7168C76.3639 20.7168 74.8299 22.2548 74.8299 24.1498C74.8298 24.6003 74.9184 25.0464 75.0907 25.4627C75.2631 25.879 75.5157 26.2572 75.8342 26.5758C76.1527 26.8944 76.5309 27.1472 76.9471 27.3196C77.3633 27.492 77.8094 27.5808 78.2599 27.5808V27.5798ZM51.9659 29.4298C51.8109 29.8298 50.6959 32.9698 47.9989 36.2328V22.2768L40.8139 23.6968V48.9968H47.9999V41.1768C50.0819 44.2968 51.1099 48.9968 51.1099 48.9968H59.7169C58.8669 45.4568 55.1419 38.9318 55.1419 38.9318C57.3551 36.0772 59.0609 32.8634 60.1849 29.4308L51.9659 29.4298ZM70.8559 29.1658C64.4209 29.3728 61.1529 32.2598 61.1529 37.9998V48.9958H68.1749V40.0298C68.1749 36.5938 68.6249 35.1298 72.7029 34.9798V29.2698C72.0169 29.1238 70.8559 29.1698 70.8559 29.1698V29.1658ZM28.7639 32.2198C27.8839 32.1628 25.8459 32.0298 25.8459 30.1958C25.8459 27.9828 28.7789 27.9828 29.8799 27.9828C31.8149 27.9828 34.3199 28.5528 36.1099 29.0898C36.7195 29.3434 37.3358 29.5808 37.9579 29.8018L38.0379 29.8238V23.7598L37.9299 23.7278C35.8179 22.9878 33.3629 22.2778 28.8099 22.2778C20.9599 22.2778 18.1799 26.8498 18.1799 30.7678C18.1799 33.0258 19.1479 38.3408 28.1369 38.9538C28.8989 39.0008 30.9209 39.1168 30.9209 41.0138C30.9209 42.5788 29.2649 43.5018 26.4809 43.5018C23.4309 43.5018 20.4679 42.7238 18.6709 41.9858V48.2288C21.3629 48.9338 24.3969 49.2868 27.9539 49.2868C35.6289 49.2868 39.0659 44.9608 39.0659 40.6728C39.0659 35.8108 35.2199 32.6528 28.7659 32.2198H28.7639ZM74.7819 48.9998H81.7459V29.4538H74.7799L74.7819 48.9998ZM94.8599 23.5248V48.9998H101.826V22.2798L94.8599 23.5248ZM84.6969 23.5248L91.6549 22.2798V48.9998H84.6969V23.5228V23.5248Z" fill="#862565"/>
</svg>
