<svg width="120" height="70" viewBox="0 0 120 70" fill="none" xmlns="http://www.w3.org/2000/svg">
<path d="M36.3022 25.5549H25.6239C23.94 25.5549 22.3039 25.5549 20.8394 26.2982C19.3739 27.0426 18.0802 28.5315 17.0834 31.5071C16.8692 32.1463 16.7547 32.699 16.7388 33.176C16.7239 33.6576 16.8077 34.0658 16.9891 34.4199C17.2139 34.8514 17.5765 35.2599 18.0315 35.6023C18.4853 35.9459 19.0303 36.2247 19.6157 36.4039C19.638 36.4092 19.9465 36.4983 20.3198 36.6044C20.692 36.7115 21.1278 36.8399 21.4025 36.9225C21.5637 36.9723 21.7407 37.0359 21.9019 37.1325C22.0631 37.2289 22.2073 37.3562 22.2985 37.5332C22.3578 37.6521 22.3897 37.7805 22.393 37.9184C22.3972 38.057 22.3738 38.2067 22.3186 38.3646C22.1829 38.7686 21.9751 39.0296 21.5806 39.1886C21.1872 39.3478 20.6062 39.3986 19.726 39.4048H8.73801L7 44.1777H18.7621C19.8692 44.1777 21.8924 44.1777 23.8382 43.3518C25.783 42.5259 27.6472 40.8735 28.4372 37.5705C28.7341 36.3286 28.6429 35.3159 28.1562 34.5218C27.6674 33.7274 26.7851 33.1517 25.4999 32.7826C25.4999 32.7826 25.2126 32.699 24.8732 32.6024C24.5371 32.5047 24.1479 32.3936 23.9485 32.3363C23.6197 32.2429 23.3663 32.052 23.2168 31.8102C23.0684 31.5684 23.0238 31.2739 23.1087 30.9735C23.1967 30.6619 23.4098 30.4126 23.7184 30.2409C24.0281 30.0702 24.4341 29.9759 24.9082 29.9759H31.7447C31.7934 29.9068 31.8379 29.8315 31.8856 29.7604C33.1339 27.9949 34.6458 26.5645 36.3022 25.5549" fill="#F37016"/>
<path d="M36.3081 25.537H25.6297C23.9458 25.537 22.3106 25.537 20.8452 26.2804C19.3797 27.025 18.087 28.5127 17.0902 31.4893C16.875 32.1285 16.7604 32.6801 16.7456 33.1582C16.7308 33.6387 16.8145 34.0469 16.9959 34.4011C17.2196 34.8338 17.5822 35.242 18.0371 35.5844C18.492 35.9271 19.036 36.2069 19.6224 36.3851C19.6447 36.3913 19.9534 36.4794 20.3266 36.5866C20.6978 36.6937 21.1335 36.8208 21.4093 36.9037C21.5693 36.9545 21.7475 37.0181 21.9087 37.1137C22.0688 37.21 22.213 37.3384 22.3042 37.5156C22.3636 37.6333 22.3954 37.7614 22.3986 37.9003C22.4029 38.0392 22.3795 38.1889 22.3244 38.3458C22.1887 38.7508 21.9819 39.0106 21.5864 39.1707C21.1929 39.3299 20.6129 39.3807 19.7328 39.387H8.74377L7.00684 44.1602H18.7688C19.8759 44.1602 21.8992 44.1602 23.8439 43.334C25.7888 42.5078 27.6529 40.8557 28.443 37.5517C28.7409 36.3108 28.6487 35.2981 28.162 34.504C27.673 33.7086 26.7908 33.1329 25.5067 32.765C25.5067 32.765 25.2182 32.6811 24.8799 32.5835C24.5438 32.4869 24.1536 32.3758 23.9542 32.3185C23.6255 32.2251 23.3732 32.0342 23.2226 31.7914C23.0751 31.5496 23.0296 31.2558 23.1144 30.9559C23.2035 30.6441 23.4156 30.3948 23.7241 30.2231C24.0338 30.0524 24.4399 29.9578 24.9139 29.9578H31.7514C31.8002 29.888 31.8437 29.8126 31.8925 29.7428C33.1405 27.9761 34.6528 26.5467 36.3081 25.537" fill="#F37016"/>
<path d="M94.4386 25.5682C94.8043 25.8565 95.1171 26.1864 95.3792 26.5618C96.0492 27.5279 96.306 28.6752 96.1521 29.989H99.5814L94.4131 44.1953H99.5772L104.749 29.989H111.384L112.995 25.5682H94.4386" fill="#F37016"/>
<path d="M89.1686 31.5068C88.615 32.9968 87.6226 33.9173 85.734 33.9173H85.7255L84.7488 33.9151L86.42 29.4117H87.3701C89.108 29.4117 89.757 29.9208 89.1686 31.5068ZM94.181 27.3927C93.3306 26.17 91.6021 25.5698 88.8938 25.5666H82.6237L75.8435 44.1895H81.6025L84.0691 37.635C84.1877 37.9043 85.6426 44.1895 85.6426 44.1895H91.6987C91.6987 44.1895 90.597 39.5715 89.7868 37.7061C89.5788 37.2258 89.3616 36.6882 89.071 36.2394C90.7814 35.6045 93.2608 34.2387 94.2862 31.474C94.9181 29.7744 94.8811 28.401 94.181 27.3927Z" fill="#F37016"/>
<path d="M41.3179 34.7813C39.7221 39.1502 38.563 40.2497 36.8198 40.2497H36.8165C35.1189 40.2477 34.5229 39.1735 36.1115 34.8258C37.2991 31.5799 38.8356 29.5045 40.6967 29.5045H40.6977C42.4654 29.5068 42.8704 30.5312 41.3179 34.7813V34.7813ZM46.7939 27.3C45.864 25.9693 44.2702 25.2928 42.055 25.2905C40.6063 25.2905 39.1982 25.6236 37.8802 26.2461C35.9926 27.1379 34.2832 28.6288 32.8866 30.6043C31.979 31.8885 31.2028 33.3752 30.5941 35.0388C29.4489 38.1766 29.4616 40.7248 30.6344 42.4024C31.2982 43.3525 32.6788 44.486 35.4878 44.4883H35.4985C40.6148 44.4883 44.4344 41.1342 46.8534 34.5215C47.4916 32.7707 48.3346 29.5058 46.7939 27.3" fill="#F37016"/>
<path d="M67.2392 25.5549H56.3561C53.3139 25.5549 51.0489 27.0946 49.9799 29.9759L44.8105 44.1777H50.472L53.1285 36.877L58.1334 36.8812L59.5565 32.9703L54.5684 32.9673L55.371 30.7032C55.5397 30.2982 55.9384 29.9759 56.5248 29.9759C56.8515 29.9759 60.5236 29.9759 62.426 29.9769C62.4748 29.9068 62.5184 29.8315 62.5669 29.7604C63.8151 27.9949 65.5829 26.5645 67.2392 25.5549" fill="#F37016"/>
<path d="M72.189 34.7813C70.5932 39.1502 69.4341 40.2497 67.6919 40.2497H67.6874C65.9887 40.2477 65.3961 39.1735 66.9846 34.8258C68.17 31.5799 69.7087 29.5045 71.5666 29.5045H71.5698C73.3373 29.5068 73.7425 30.5312 72.189 34.7813V34.7813ZM77.666 27.3C76.7349 25.9693 75.1434 25.2928 72.9249 25.2905C71.4775 25.2905 70.0704 25.6236 68.7511 26.2461C66.8647 27.1379 65.1553 28.6288 63.7587 30.6043C62.8509 31.8885 62.0748 33.3752 61.4671 35.0388C60.3188 38.1766 60.3336 40.7248 61.5064 42.4024C62.1702 43.3525 63.551 44.486 66.3609 44.4883H66.3704C71.486 44.4883 75.3066 41.1342 77.7233 34.5215C78.3638 32.7707 79.2057 29.5058 77.666 27.3" fill="#F37016"/>
<path d="M94.445 25.5467C94.8096 25.835 95.1235 26.1639 95.3855 26.5403C96.0558 27.5052 96.3113 28.6537 96.1584 29.9675H99.5878L94.4194 44.1738H99.5835L104.754 29.9675H111.39L113 25.5467H94.445" fill="#F37016"/>
<path d="M89.1742 31.4875C88.6219 32.9762 87.6282 33.8968 85.7396 33.8968H85.7321L84.7555 33.8945L86.4256 29.3922H87.3769C89.1149 29.3922 89.7639 29.9 89.1742 31.4875ZM94.1869 27.3731C93.3374 26.1505 91.609 25.5503 88.9007 25.5471H82.6306L75.8491 44.1699H81.6094L84.0747 37.6155C84.1946 37.8848 85.6485 44.1699 85.6485 44.1699H91.7054C91.7054 44.1699 90.6026 39.5519 89.7934 37.6856C89.5857 37.2063 89.3682 36.6687 89.0779 36.2189C90.7881 35.5837 93.2664 34.2191 94.2928 31.4545C94.9237 29.7548 94.8867 28.3815 94.1869 27.3731" fill="#F37016"/>
<path d="M41.3239 34.762C39.7281 39.1307 38.5691 40.2294 36.8258 40.2294H36.8226C35.1249 40.2284 34.5287 39.153 36.1183 34.8053C37.3051 31.5596 38.8416 29.4843 40.7025 29.4843H40.7035C42.4725 29.4865 42.8775 30.5119 41.3239 34.762V34.762ZM46.8009 27.2808C45.8699 25.95 44.2773 25.2735 42.061 25.2702C40.6114 25.2702 39.2043 25.6041 37.886 26.2256C35.9987 27.1186 34.2892 28.6085 32.8926 30.585C31.9861 31.868 31.2087 33.3559 30.6011 35.0185C29.4548 38.1573 29.4676 40.7055 30.6404 42.3831C31.3052 43.3332 32.6859 44.4657 35.4938 44.4688H35.5043C40.6209 44.4688 44.4405 41.1149 46.8592 34.5012C47.4977 32.7502 48.3417 29.4853 46.8009 27.2808" fill="#F37016"/>
<path d="M67.2461 25.537H56.363C53.3196 25.537 51.0545 27.0768 49.9858 29.9578L44.8162 44.1602H50.4788L53.1351 36.8591L58.1393 36.8624L59.5621 32.9524L54.5742 32.9494L55.3779 30.6854C55.5453 30.2792 55.9453 29.9571 56.5304 29.9571C56.8571 29.9571 60.5305 29.9578 62.4329 29.9578C62.4804 29.889 62.524 29.8126 62.5728 29.7428C63.822 27.9761 65.5897 26.5467 67.2461 25.537" fill="#F37016"/>
<path d="M72.1954 34.762C70.5995 39.1307 69.4415 40.2294 67.6993 40.2294H67.695C65.9951 40.2284 65.4024 39.153 66.9897 34.8053C68.1763 31.5596 69.714 29.4843 71.5729 29.4843H71.5762C73.3437 29.4865 73.7489 30.5119 72.1954 34.762ZM77.6723 27.2808C76.7413 25.95 75.1497 25.2735 72.9322 25.2702C71.4838 25.2702 70.0767 25.6041 68.7585 26.2256C66.8711 27.1186 65.1616 28.6085 63.765 30.585C62.8575 31.868 62.0821 33.3559 61.4734 35.0185C60.3261 38.1573 60.3399 40.7055 61.5137 42.3831C62.1765 43.3332 63.5573 44.4657 66.3685 44.4688H66.3768C71.4933 44.4688 75.3139 41.1149 77.7296 34.5012C78.3711 32.7502 79.2131 29.4853 77.6723 27.2808" fill="#F37016"/>
</svg>
