<svg width="120" height="70" viewBox="0 0 120 70" fill="none" xmlns="http://www.w3.org/2000/svg">
<path fill-rule="evenodd" clip-rule="evenodd" d="M84.067 49.203C84.471 48.145 86.003 44.055 86.003 44.055C85.975 44.106 86.403 42.992 86.649 42.302L86.974 43.89L88.104 49.203H84.067ZM90.062 37.338H86.306C85.141 37.338 84.271 37.663 83.756 38.868L76.535 55.734H81.643C81.643 55.734 82.478 53.462 82.667 52.967C83.225 52.967 88.185 52.979 88.892 52.979C89.042 53.621 89.482 55.734 89.482 55.734H94L90.062 37.338ZM77.592 37.775C76.632 37.403 75.115 37 73.234 37C68.42 37 65.046 39.499 65.013 43.075C64.983 45.72 67.43 47.197 69.27 48.078C71.168 48.978 71.803 49.555 71.797 50.362C71.779 51.594 70.281 52.157 68.883 52.157C66.939 52.157 65.904 51.88 64.311 51.194L63.678 50.9L62.996 55.022C64.136 55.534 66.236 55.977 68.418 56C73.523 56 76.844 53.528 76.886 49.715C76.905 47.615 75.606 46.025 72.798 44.71C71.103 43.86 70.055 43.291 70.073 42.428C70.073 41.664 70.949 40.846 72.856 40.846C74.1063 40.8178 75.3481 41.059 76.497 41.553L76.927 41.764L77.591 37.774L77.592 37.775ZM55.086 55.728L58.128 37.322H62.991L59.95 55.728H55.087H55.086ZM51.006 37.338L46.246 49.883L45.739 47.333C44.554 44.209 41.989 40.931 38.999 39.599L43.354 55.709L48.502 55.707L56.155 37.337H51.007L51.006 37.338Z" fill="#00579F"/>
<path fill-rule="evenodd" clip-rule="evenodd" d="M42.025 37H34.046L34 37.315C40.203 38.838 44.296 42.578 46 47L44.266 38.546C43.969 37.386 43.1 37.041 42.026 37" fill="#FAA61A"/>
<path fill-rule="evenodd" clip-rule="evenodd" d="M19.68 32.707H16.577L13 16.197L16.428 15.61L18.876 28.53L25.112 15.781H28.406L19.68 32.707ZM31.458 22.621C30.312 22.621 29.242 23.548 28.736 25.478H33.318C33.403 23.646 32.841 22.621 31.458 22.621ZM35.81 27.311H28.414C28.211 29.605 29.254 30.606 31.019 30.606C32.499 30.606 33.801 30.044 35.202 29.14L35.191 31.437C33.818 32.316 32.229 32.877 30.368 32.877C27.147 32.877 25.019 30.997 25.658 26.747C26.234 22.912 28.827 20.593 31.833 20.593C35.294 20.593 36.444 23.256 35.942 26.601C35.905 26.845 35.837 27.138 35.81 27.311ZM40.633 25.869L39.615 32.634H36.752L38.525 20.837H40.96L40.962 23.205C41.932 21.838 43.248 20.69 45.053 20.593L45.07 23.5C43.262 23.622 41.636 24.6 40.634 25.87L40.633 25.869ZM48.558 18.859C47.604 18.859 46.944 18.175 47.09 17.199C47.1623 16.7254 47.4011 16.2931 47.7634 15.9797C48.1257 15.6663 48.5879 15.4923 49.067 15.489C49.997 15.489 50.653 16.197 50.503 17.199C50.356 18.175 49.49 18.859 48.558 18.859ZM45.031 32.634L46.807 20.837H49.669L47.895 32.634H45.031ZM57.6 17.613C56.621 17.613 56.03 18.052 55.874 19.103L55.612 20.837H57.807L57.805 23.23H55.253L53.838 32.634H50.998L52.413 23.23H50.743L51.103 20.837H52.773L53.076 18.81C53.47 16.197 55.24 15.22 57.602 15.22C58.104 15.22 58.477 15.269 58.758 15.318L58.778 17.71C58.3887 17.6448 57.9947 17.6124 57.6 17.613ZM61.159 18.859C60.204 18.859 59.544 18.175 59.691 17.199C59.7631 16.7257 60.0015 16.2935 60.3634 15.9801C60.7254 15.6667 61.1872 15.4926 61.666 15.489C62.596 15.489 63.253 16.197 63.106 17.199C62.957 18.175 62.09 18.859 61.159 18.859ZM57.63 32.634L59.406 20.837H62.267L60.495 32.634H57.63ZM69.017 22.62C67.872 22.62 66.801 23.547 66.299 25.477H70.88C70.963 23.645 70.402 22.62 69.017 22.62ZM73.374 27.31H65.974C65.774 29.604 66.814 30.605 68.577 30.605C70.058 30.605 71.361 30.043 72.761 29.139L72.751 31.436C71.376 32.315 69.79 32.876 67.928 32.876C64.705 32.876 62.581 30.996 63.218 26.746C63.794 22.911 66.387 20.592 69.394 20.592C72.856 20.592 74.005 23.255 73.502 26.6C73.466 26.844 73.396 27.137 73.374 27.31ZM82.81 23.571C82.147 23.229 81.623 23.059 80.643 23.059C79.14 23.059 77.855 24.304 77.465 26.893C77.12 29.189 77.915 30.263 79.177 30.263C80.228 30.263 81.135 29.63 82.044 28.653L82.81 23.571ZM81.851 32.633L81.859 30.997C80.899 31.998 79.644 32.877 78.047 32.877C75.634 32.877 73.979 31.044 74.578 27.063C75.238 22.667 77.894 20.715 80.565 20.715C81.664 20.715 82.517 20.91 83.173 21.153L84.028 15.463L86.961 15L84.312 32.634H81.852L81.851 32.633ZM94.681 25.473C93.96 25.473 93.235 25.973 92.591 26.638L91.983 30.69C92.41 30.857 92.704 30.93 93.319 30.93C94.693 30.93 95.652 30.08 95.959 28.045C96.219 26.323 95.658 25.473 94.681 25.473ZM93.082 32.744C91.728 32.744 90.622 32.521 89.594 32.15L91.475 19.627L93.697 19.277L92.885 24.696C93.532 24.104 94.436 23.512 95.537 23.512C97.382 23.512 98.614 24.918 98.165 27.915C97.671 31.207 95.685 32.744 93.082 32.744ZM103.275 33.114C102.168 35.315 101.071 36 99.388 36C99.01 36 98.798 35.963 98.608 35.906L98.594 34.076C98.871 34.15 99.171 34.206 99.586 34.206C100.22 34.206 100.77 33.91 101.139 33.261L101.425 32.67L99.588 23.865L101.893 23.569L102.958 29.932L105.848 23.698H108L103.275 33.115V33.114Z" fill="#00579F"/>
</svg>
