<svg width="120" height="70" viewBox="0 0 120 70" fill="none" xmlns="http://www.w3.org/2000/svg">
<path fill-rule="evenodd" clip-rule="evenodd" d="M68.8628 24.75C71.119 24.75 72.9437 25.2542 74.0941 25.7108L73.3009 30.5843L72.7734 30.3446C71.718 29.8883 70.3249 29.4323 68.4287 29.4805C66.126 29.4805 65.0932 30.4643 65.0693 31.4248C65.0693 32.4814 66.3186 33.1777 68.3586 34.2103C71.719 35.819 73.2776 37.7875 73.2543 40.3567C73.2071 45.0387 69.2229 48.0642 63.103 48.0642C60.4864 48.0399 57.9661 47.4866 56.5982 46.863L57.4144 41.7968L58.1824 42.1574C60.0785 42.9986 61.3262 43.3579 63.6548 43.3579C65.334 43.3579 67.1345 42.661 67.1574 41.149C67.1574 40.1646 66.3904 39.4437 64.1339 38.3393C61.9261 37.2585 58.9743 35.458 59.0222 32.2165C59.047 27.823 63.103 24.75 68.8628 24.75ZM47.1187 47.7275H52.9512L56.599 25.1588H50.7668L47.1187 47.7275ZM81.846 39.7322C82.3263 38.4357 84.1746 33.4177 84.1746 33.4177C84.1648 33.4371 84.2411 33.2255 84.3545 32.911L84.3546 32.9106C84.5221 32.4463 84.7703 31.7578 84.942 31.257L85.3496 33.2016C85.3496 33.2016 86.4541 38.6039 86.6939 39.7322H81.846ZM89.0455 25.1588H84.534C83.1428 25.1588 82.0858 25.5666 81.4856 27.0313L72.8221 47.7272H78.942C78.942 47.7272 79.9496 44.9417 80.1661 44.3418H87.6546C87.822 45.1341 88.3505 47.7272 88.3505 47.7272H93.7508L89.0455 25.1588ZM42.2447 25.1588L36.5328 40.5485L35.9088 37.4281L35.9098 37.4308L33.8698 27.0585C33.534 25.6171 32.5019 25.2089 31.2299 25.1614H21.846L21.75 25.6174C24.0385 26.2029 26.0853 27.0466 27.8788 28.0956L33.0767 47.7036H39.2444L48.4121 25.1588H42.2447Z" fill="#1A1F71"/>
</svg>
